<?xml version="1.0" encoding="UTF-8"?>
<svg xmlns="http://www.w3.org/2000/svg" xmlns:xlink="http://www.w3.org/1999/xlink" width="189px" height="22px" version="1.1" viewBox="0 0 189 22">
<!--Generator: Sketch 52.1 (67048) - http://www.bohemiancoding.com/sketch-->
    <title>
        Group 9
    </title>
    <desc>
        Created with Sketch.
    </desc>
    <defs>
        <linearGradient id="linearGradient-1" x1="0%" x2="114.997072%" y1="0%" y2="122.141149%">
            <stop offset="0%" stop-color="#3A33C5"/>
            <stop offset="100%" stop-color="#50DAE8"/>
        </linearGradient>
    </defs>
    <g id="Page-1" fill="none" fill-rule="evenodd" stroke="none" stroke-width="1">
        <g id="Desktop" transform="translate(-433.000000, -68.000000)">
            <g id="Group-9" transform="translate(433.000000, 67.000000)">
                <text id="Laravel-Installer" fill="#022534" font-family="Roboto-Thin, Roboto" font-size="22" font-style="condensed" font-weight="300">
                    <tspan x="38" y="20">Laravel </tspan> <tspan x="110.595703" y="20" font-family="Roboto-Regular, Roboto" font-weight="normal">Installer</tspan>
                </text>
                <g id="iconfinder_icon-grid_2867906" fill="url(#linearGradient-1)" transform="translate(0.000000, 1.000000)">
                    <path id="Shape" d="M2.44444444,0 L7.33333333,0 C8.68336272,0 9.77777778,1.09441506 9.77777778,2.44444444 L9.77777778,7.33333333 C9.77777778,8.68336272 8.68336272,9.77777778 7.33333333,9.77777778 L2.44444444,9.77777778 C1.09441506,9.77777778 0,8.68336272 0,7.33333333 L0,2.44444444 C0,1.1 1.1,0 2.44444444,0 Z M2.44444444,2.44444444 L2.44444444,7.33333333 L7.33333333,7.33333333 L7.33333333,2.44444444 L2.44444444,2.44444444 Z M14.6666667,0 L19.5555556,0 C20.9055849,0 22,1.09441506 22,2.44444444 L22,7.33333333 C22,8.68336272 20.9055849,9.77777778 19.5555556,9.77777778 L14.6666667,9.77777778 C13.3166373,9.77777778 12.2222222,8.68336272 12.2222222,7.33333333 L12.2222222,2.44444444 C12.2222222,1.1 13.3222222,0 14.6666667,0 Z M14.6666667,2.44444444 L14.6666667,7.33333333 L19.5555556,7.33333333 L19.5555556,2.44444444 L14.6666667,2.44444444 Z M2.44444444,12.2222222 L7.33333333,12.2222222 C8.68336272,12.2222222 9.77777778,13.3166373 9.77777778,14.6666667 L9.77777778,19.5555556 C9.77777778,20.9055849 8.68336272,22 7.33333333,22 L2.44444444,22 C1.09441506,22 0,20.9055849 0,19.5555556 L0,14.6666667 C0,13.3222222 1.1,12.2222222 2.44444444,12.2222222 Z M2.44444444,14.6666667 L2.44444444,19.5555556 L7.33333333,19.5555556 L7.33333333,14.6666667 L2.44444444,14.6666667 Z M14.6666667,12.2222222 L19.5555556,12.2222222 C20.9055849,12.2222222 22,13.3166373 22,14.6666667 L22,19.5555556 C22,20.9055849 20.9055849,22 19.5555556,22 L14.6666667,22 C13.3166373,22 12.2222222,20.9055849 12.2222222,19.5555556 L12.2222222,14.6666667 C12.2222222,13.3222222 13.3222222,12.2222222 14.6666667,12.2222222 Z M14.6666667,14.6666667 L14.6666667,19.5555556 L19.5555556,19.5555556 L19.5555556,14.6666667 L14.6666667,14.6666667 Z"/>
                </g>
            </g>
        </g>
    </g>
</svg>
