<svg xmlns="http://www.w3.org/2000/svg" xmlns:xlink="http://www.w3.org/1999/xlink" width="1440" height="132" viewBox="0 0 1440 132">
    <defs>
        <linearGradient id="a" x1="76.305639%" x2="37.192943%" y1="46.672365%" y2="97.135883%">
            <stop offset="0" stop-color="#50dae8"/>
            <stop offset="1" stop-color="#50dae8"/>
        </linearGradient>
        <linearGradient id="b" x1="19.112018%" x2="44.107358%" y1="70.984999%" y2="20.899619%">
            <stop offset="0" stop-color="#3a33c5"/>
            <stop offset="1" stop-color="#8ee0c5"/>
            <stop offset="1" stop-color="#50dae8"/>
        </linearGradient>
        <path id="c" d="m1501.60722 1251c292.80469 0 472.07813-213.94594 472.07813-505 0-291.054063-235.94594-527-527-527-181.49508 0-260.21185 129.994665-355 269.640625-57.21859 84.29688-172.000002 147.800394-172.000002 257.359375 0 154.698928 170.333792 179.029067 276.492192 275.4375 93.5704 84.97657 154.99218 229.5625 305.42968 229.5625z"/>
        <filter id="d" width="101.3%" height="101.4%" x="-.7%" y="-.5%">
            <feOffset dx="0" dy="2" in="SourceAlpha" result="shadowOffsetOuter1"/>
            <feGaussianBlur in="shadowOffsetOuter1" result="shadowBlurOuter1" stdDeviation="2"/>
            <feColorMatrix in="shadowBlurOuter1" type="matrix" values="0 0 0 0 0   0 0 0 0 0   0 0 0 0 0  0 0 0 0.0563009511 0"/>
        </filter>
        <linearGradient id="e" x1="50%" x2="39.771042%" y1="57.569666%" y2="175.514192%">
            <stop offset="0" stop-color="#3a33c5"/>
            <stop offset="1" stop-color="#50dae8"/>
        </linearGradient>
    </defs>
    <g fill="none" fill-rule="evenodd" transform="translate(-327 -319)">
        <path fill="url(#a)" d="m1137.6368 1069.50919c216.96438 0 349.80362-158.593641 349.80362-374.345926s-174.83281-390.65407-390.5-390.65407c-134.485448 0-192.813529 96.362325-263.050287 199.878952-42.398216 62.487513-127.449716 109.561339-127.449716 190.775118 0 114.675078 126.215081 132.710501 204.877039 204.176054 69.334429 62.991356 114.847154 170.169872 226.319344 170.169872z" opacity=".806378" transform="matrix(-.93358043 .35836795 -.35836795 -.93358043 2367.224596 935.279242)"/>
        <g opacity=".806378" transform="matrix(-.76604444 .64278761 -.64278761 -.76604444 3027.359513 368.131249)">
            <use fill="#000" filter="url(#d)" xlink:href="#c"/>
            <use fill="url(#b)" fill-rule="evenodd" xlink:href="#c"/>
        </g>
        <path fill="url(#e)" d="m778.236527 1274.75078c292.804683 0 472.078123-213.94594 472.078123-504.999998 0-291.054064-235.94594-527-526.999998-527-181.495083 0-260.211853 129.994664-355 269.640625-57.218591 84.296879-172 147.800394-172 257.359375 0 154.698928 170.333795 179.029067 276.492187 275.437498 93.570408 84.97658 154.992188 229.5625 305.429688 229.5625z" transform="matrix(-.83867057 .54463904 -.54463904 -.83867057 1743.182656 1001.147337)"/>
    </g>
</svg>
