<svg xmlns="http://www.w3.org/2000/svg" xmlns:xlink="http://www.w3.org/1999/xlink" width="528px" height="347px" version="1.1" viewBox="0 0 528 347">
<!--Generator: Sketch 52.1 (67048) - http://www.bohemiancoding.com/sketch-->
    <title>
        Success
    </title>
    <desc>
        Created with Sketch.
    </desc>
    <defs>
        <linearGradient id="linearGradient-1" x1="50.0144645%" x2="50.0144645%" y1="100.013623%" y2="-0.0116140481%">
            <stop offset="0%" stop-color="#808080" stop-opacity="0.25"/>
            <stop offset="54%" stop-color="#808080" stop-opacity="0.12"/>
            <stop offset="100%" stop-color="#808080" stop-opacity="0.1"/>
        </linearGradient>
        <linearGradient id="linearGradient-2" x1="50.0028125%" x2="50.0028125%" y1="100.015231%" y2="-0.000623752199%">
            <stop offset="0%" stop-color="#808080" stop-opacity="0.25"/>
            <stop offset="54%" stop-color="#808080" stop-opacity="0.12"/>
            <stop offset="100%" stop-color="#808080" stop-opacity="0.1"/>
        </linearGradient>
    </defs>
    <g id="Symbols" fill="none" fill-rule="evenodd" stroke="none" stroke-width="1">
        <g id="Illustrations-/-Success">
            <g id="Success">
                <path id="Path" fill="#17C671" d="M489.325833,284.5975 C487.681944,286.042778 486.001389,287.446806 484.284167,288.809583 C483.995417,289.043333 483.6975,289.267917 483.404167,289.50625 C477.279079,294.257302 470.848573,298.600955 464.154167,302.509167 L462.902917,303.237917 C462.600417,303.42125 462.3025,303.590833 461.98625,303.760417 C454.992083,307.798333 447.736667,311.515417 440.394167,315.035417 L440.31625,315.076667 L439.761667,315.337917 C433.84,318.176528 427.829722,320.892917 421.730833,323.487083 L421.584167,323.542083 C418.834167,324.700139 416.084167,325.827639 413.334167,326.924583 C412.21125,327.382917 411.08375,327.809167 409.95625,328.244583 C407.834167,329.055833 405.7075,329.853333 403.5625,330.61875 L403.296667,330.719583 L402.838333,330.88 L402.265417,331.090833 C396.670694,333.089167 391.001111,334.934722 385.256667,336.6275 L385.155833,336.655 C381.15,337.822222 377.118194,338.902361 373.060417,339.895417 L372.505833,340.032917 C366.5475,341.472083 360.492917,342.709583 354.401667,343.699583 L352.999167,343.924167 C348.544167,344.623889 344.058611,345.195278 339.5425,345.638333 C314.155417,348.090417 288.465833,346.096667 263.234583,342.6775 C212.28625,335.765833 162.011667,322.80875 116.16,302.5 C107.36,298.604167 98.7311111,294.433333 90.2733333,289.9875 C90.2045833,289.950833 90.145,289.914167 90.07625,289.882083 C85.0131944,287.220694 80.0188889,284.447778 75.0933333,281.563333 C73.6495833,280.729167 72.215,279.876667 70.7895833,279.019583 C69.0356944,277.962361 67.2894444,276.892917 65.5508333,275.81125 C63.2591667,274.38125 60.9675,272.914583 58.6758333,271.415833 L57.6033333,270.700833 L57.1908333,270.42125 C56.60875,270.031667 56.0358333,269.642083 55.4583333,269.247917 C33.9166667,254.58125 14.7079167,236.807083 5.63291667,214.564167 C-4.85375,188.8975 1.85625,156.355833 27.83,141.185 C36.7583333,135.96 47.135,133.122917 57.6216667,130.780833 L58.6941667,130.5425 C60.4679167,130.152917 62.2416667,129.777083 64.00625,129.40125 C70.1891667,128.090417 76.4041667,126.78875 82.5595833,125.335833 C85.7679167,124.579583 88.9441667,123.786667 92.1020833,122.929583 L93.3945833,122.572083 C101.010465,120.528901 108.458755,117.905681 115.674167,114.725417 L115.72,114.725417 C116.494583,114.381667 117.26,114.024167 118.011667,113.6575 C118.4975,113.428333 118.983333,113.199167 119.469167,112.947083 C127.260833,109.069583 135.510833,103.693333 141.85875,97.2858333 C142.3675,96.7725 142.8625,96.25 143.34375,95.7275 C143.715,95.3195833 144.081667,94.9070833 144.434583,94.4945833 C148.885,89.30625 151.965,83.545 152.551667,77.4308333 C152.749202,75.3762864 152.656627,73.3041633 152.276667,71.2754167 C151.557083,67.43 150.860417,63.6670833 150.347083,59.9958333 C149.389167,53.0979167 149.06375,46.5025 150.392917,40.1454167 C151.745,33.6645833 154.81125,27.4266667 160.664167,21.3766667 C161.547222,20.46 162.499028,19.5433333 163.519583,18.6266667 C168.252953,14.4739739 173.608831,11.0900111 179.391667,8.59833333 C180.106667,8.29277778 180.82625,7.98722222 181.550417,7.68166667 C197.62875,1.17333333 216.9475,-0.183333333 234.996667,0.715 C251.859403,1.58279837 268.614884,3.91378238 285.074167,7.68166667 C286.380417,7.975 287.686667,8.28208333 288.98375,8.59833333 C302.985116,11.9900406 316.76176,16.2500849 330.23375,21.35375 C365.24125,34.5216667 398.2825,52.8045833 429.15125,72.9804167 C429.45375,73.1775 429.75625,73.3745833 430.067917,73.57625 C431.357361,74.4165278 432.639167,75.2598611 433.913333,76.10625 C436.379167,77.7409722 438.823611,79.3863889 441.246667,81.0425 L442.882917,82.15625 C443.689583,82.70625 444.491667,83.2577778 445.289167,83.8108333 L447.745833,85.51125 C447.861532,85.580792 447.971843,85.6589286 448.075833,85.745 L450.165833,87.1933333 C451.375833,88.0366667 452.576667,88.8845833 453.782083,89.7370833 L456.367083,91.5704167 C456.903333,91.9554167 457.444167,92.3358333 457.980417,92.7254167 L460.730417,94.7329167 L461.344583,95.19125 C461.472917,95.2829167 461.60125,95.3745833 461.725,95.4754167 L461.802917,95.5258333 C469.255417,100.99375 476.529167,106.663333 483.344583,112.672083 L484.224583,113.45125 L484.31625,113.53375 C485.05875,114.19375 485.80125,114.862917 486.53,115.536667 C495.430833,123.64 503.405833,132.348333 509.923333,141.973333 C539.861667,186.431667 530.974583,247.990417 489.325833,284.5975 Z" opacity="0.1"/>
                <path id="Shape" fill="url(#linearGradient-1)" fill-rule="nonzero" d="M508.947083,156.6125 C509.240417,155.815 507.049583,151.3875 507.049583,151.1675 C507.049583,150.9475 504.757917,148.48625 504.757917,147.102083 C504.757917,145.717917 501.765,142.747917 501.765,142.747917 C501.765,142.747917 497.740833,141.075 497.300833,137.449583 C496.860833,133.824167 492.644167,133.74625 492.479167,133.741667 C492.479167,133.741667 492.479167,133.411667 492.506667,132.9075 C492.506667,131.78 492.474583,129.767917 491.965833,128.663333 C491.446628,127.660729 490.554594,126.902007 489.481667,126.550417 C489.481667,126.550417 489.023333,123.7225 488.161667,122.851667 C487.166352,121.808122 486.78147,120.324072 487.144167,118.928333 C487.387083,118.158333 487.17625,116.732917 486.57125,115.54125 C486.112917,114.5925 485.370417,113.78125 484.435417,113.556667 L484.3575,113.556667 C482.258333,113.047917 479.907083,112.26875 479.907083,112.26875 C479.907083,112.26875 479.66875,112.314583 479.315833,112.365 L479.0225,112.26875 C478.516446,112.362928 478.005282,112.427206 477.491667,112.46125 C477.042447,112.476304 476.60241,112.33179 476.249583,112.053333 C475.51625,111.25125 469.594583,109.729583 468.499167,109.729583 C467.40375,109.729583 464.255,108.276667 464.255,108.276667 L461.115417,105.879583 C460.235417,105.210417 458.60375,102.487917 458.365417,102.084583 L458.32875,102.034167 C458.100038,101.51475 457.907088,100.98031 457.75125,100.434583 C457.719167,100.33375 457.69625,100.232917 457.664167,100.122917 C458.301977,99.4551492 458.885887,98.7379057 459.410417,97.9779167 L459.410417,97.955 C459.5525,97.7579167 459.685417,97.5425 459.818333,97.33625 C460.010833,97.0306944 460.194167,96.7144444 460.368333,96.3875 C460.441667,96.2454167 460.510417,96.09875 460.58375,95.96125 C460.739215,95.9548327 460.893231,95.92865 461.042083,95.8833333 L461.239167,95.81 C461.420083,95.7266288 461.589528,95.6203406 461.743333,95.49375 L461.89,95.3608333 C462.30281,94.9711299 462.617011,94.4888306 462.806667,93.95375 C462.857083,93.7979167 462.902917,93.6375 462.939583,93.4954167 C462.939583,93.4404167 462.967083,93.3808333 462.980833,93.3304167 C462.994583,93.28 463.03125,93.1104167 463.049583,92.9958333 L463.077083,92.8125 C463.077083,92.6979167 463.11375,92.5925 463.132083,92.4870833 C463.150417,92.3816667 463.132083,92.35875 463.132083,92.2991667 C463.132083,92.16625 463.16875,92.0241667 463.1825,91.8866667 C463.246667,91.36875 463.301667,90.86 463.411667,90.3558333 C463.413831,90.3483478 463.413831,90.3404022 463.411667,90.3329167 C463.6517,89.3616346 464.015216,88.4251178 464.493333,87.54625 C464.951667,86.6616667 465.455833,85.7908333 465.868333,84.87875 C465.9875,84.6175 466.102083,84.3516667 466.202917,84.0858333 C466.30375,83.82 466.404583,83.4991667 466.49625,83.20125 C466.49625,83.1141667 466.5375,83.0225 466.560417,82.9308333 C466.620673,82.7150611 466.669628,82.4962914 466.707083,82.2754167 C466.731528,82.1806944 466.749861,82.0844444 466.762083,81.9866667 C466.817083,81.6841667 466.85375,81.3816667 466.88125,81.07 C467.029106,79.3343186 466.771789,77.5880163 466.129583,75.96875 C465.584167,74.59375 464.754583,73.3791667 464.209167,72.0179167 C463.370417,69.9508333 463.150417,67.6133333 462.12375,65.6425 C460.405,62.3425 456.34875,60.6925 453.016667,61.9345833 C451.430833,62.52125 450.05125,63.6716667 448.433333,64.1895833 C446.279167,64.8816667 443.964583,64.3591667 441.727917,64.0475 C439.49125,63.7358333 437.01625,63.7129167 435.219583,65.1704167 C433.1525,66.8525 432.584167,70.015 430.63625,71.8575 C430.163192,72.2848065 429.652349,72.6683222 429.11,73.0033333 C428.715833,73.27375 428.317083,73.5395833 427.945833,73.8466667 C427.339952,74.3264997 426.873181,74.9594093 426.59375,75.68 C426.574208,75.7310191 426.557379,75.7830362 426.543333,75.8358333 C426.522267,75.8972508 426.505423,75.9600359 426.492917,76.02375 C426.492917,76.0925 426.47,76.1658333 426.460833,76.2391667 C426.451667,76.3125 426.460833,76.34 426.460833,76.3904167 C426.453964,76.5003094 426.453964,76.6105239 426.460833,76.7204167 C426.460833,76.7204167 426.460833,76.7570833 426.460833,76.7754167 C426.460833,76.8945833 426.4975,77.0183333 426.520417,77.1420833 C426.520417,77.1741667 426.520417,77.20625 426.520417,77.2429167 C426.520417,77.2795833 426.575417,77.4491667 426.612083,77.5454167 C426.614676,77.5651931 426.614676,77.5852235 426.612083,77.605 C426.65044,77.7173038 426.694809,77.8274629 426.745,77.935 C426.745,77.9854167 426.78625,78.045 426.809167,78.1 C426.835996,78.1430924 426.85754,78.1892579 426.873333,78.2375 C427.157589,78.7729563 427.384942,79.3367303 427.551667,79.9195833 C427.64127,80.2908336 427.617319,80.6804372 427.482917,81.0379167 C427.412071,81.2160616 427.313028,81.3816494 427.189583,81.5283333 C427.030526,81.7283264 426.859078,81.9181437 426.67625,82.0966667 C425.22116,83.6107427 424.095932,85.4101711 423.371667,87.38125 C423.289167,87.6058333 423.21125,87.8395833 423.137917,88.0641667 L423.234167,88.0916667 L423.330417,88.1145833 C423.508554,88.1685262 423.691048,88.2068652 423.875833,88.2291667 C423.997197,88.2496971 424.119608,88.2634683 424.2425,88.2704167 C424.743633,88.2968888 425.246064,88.2568176 425.736667,88.15125 C425.818576,88.1373336 425.899668,88.1189732 425.979583,88.09625 C426.005009,88.0922025 426.029711,88.084483 426.052917,88.0733333 L426.09875,88.0733333 C426.509534,87.9666298 426.911099,87.827155 427.299583,87.65625 C427.39125,87.615 427.4875,87.5783333 427.579167,87.5325 C427.579167,87.6791667 427.579167,87.8304167 427.579167,87.9908333 C427.579167,88.15125 427.579167,88.1558333 427.579167,88.2383333 C427.579167,88.4354167 427.579167,88.6233333 427.579167,88.8204167 C427.579167,89.0175 427.579167,89.0954167 427.579167,89.2375 C427.927688,95.1015267 431.236943,100.384935 436.360833,103.257917 C436.622083,103.409167 436.87875,103.55125 437.144583,103.684167 C437.1675,103.84 437.190417,104.000417 437.20875,104.1425 C437.227083,104.284583 437.245417,104.40375 437.259167,104.536667 L437.0575,104.34875 C436.885449,104.274148 436.6996,104.236665 436.512083,104.23875 C436.207203,104.236511 435.907022,104.313926 435.64125,104.463333 C435.173164,104.732621 434.780622,105.115703 434.5,105.577083 C433.2625,107.47 430.915833,108.327083 430.915833,108.327083 C430.915833,108.327083 417.624167,110.430833 417.101667,112.1725 L410.886667,112.539167 C410.886667,112.539167 408.69125,112.827917 408.475833,117.402083 L408.475833,117.4525 C408.475833,117.475417 408.475833,117.489167 408.475833,117.5075 C408.44375,118.052917 408.4025,118.53875 408.352083,118.974167 C408.352083,118.974167 408.352083,119.02 408.352083,119.038333 C407.967083,122.08625 407.09625,122.411667 407.09625,122.411667 C407.09625,122.411667 404.534167,126.9125 404.754167,129.23625 C404.756467,129.254511 404.756467,129.272989 404.754167,129.29125 C404.783999,129.605627 404.763889,129.922744 404.694583,130.230833 C404.404839,131.273777 403.716757,132.161041 402.77875,132.70125 L402.49,136.82625 C402.49,136.82625 400.079167,136.464167 399.419167,139.296667 C398.759167,142.129167 397.585833,143.421667 397.585833,143.421667 C397.585833,143.421667 393.56625,146.762917 393.34625,149.590833 L390.8575,151.117083 C390.8575,151.117083 385.087083,149.810833 383.767083,147.487083 C383.767083,147.487083 383.61125,147.33125 383.36375,147.106667 L383.327083,147.051667 C383.326098,147.060807 383.326098,147.070026 383.327083,147.079167 C382.465417,146.263333 380.6275,144.558333 380.911667,144.947917 C381.082281,145.314478 381.124266,145.727872 381.030833,146.12125 L380.6,145.662917 L379.449583,144.379583 C379.449583,144.379583 377.804167,142.839583 375.489583,141.001667 C374.960972,140.58 374.403333,140.149167 373.816667,139.709167 C370.855833,137.51375 367.294583,135.28625 364.65,134.951667 C364.595,134.841667 364.375,134.012083 363.857083,134.012083 C363.639262,134.030638 363.436386,134.13044 363.28875,134.291667 C361.726269,135.727838 360.83286,137.750106 360.823293,139.872332 C360.813725,141.994558 361.688865,144.024799 363.238333,145.475 L363.83875,146.034167 L365.699583,147.775833 L371.97875,153.6425 C372.056667,153.6975 372.13,153.757083 372.207917,153.8075 L372.579167,154.265833 L372.867917,154.637083 L373.3675,155.274167 L374.087083,156.190833 C374.050417,156.287083 374.009167,156.37875 373.977083,156.470417 C373.706667,157.130417 373.472917,157.772083 373.280417,158.35875 C373.280417,158.35875 373.280417,158.404583 373.280417,158.422917 C373.234583,158.569583 373.18875,158.707083 373.1475,158.844583 C373.1475,158.890417 373.115417,158.940833 373.101667,158.986667 C373.055833,159.124167 373.019167,159.261667 372.977917,159.385417 C372.936667,159.509167 372.932083,159.545833 372.91375,159.62375 C372.895417,159.701667 372.881667,159.72 372.867917,159.765833 C372.661667,160.494583 372.533333,161.05375 372.464583,161.365417 L371.97875,161.214167 L372.437083,161.420417 C372.438708,161.446363 372.438708,161.472387 372.437083,161.498333 L372.409583,161.645 C372.551667,161.71375 372.702917,161.777917 372.867917,161.842083 L372.973333,161.887917 L374.77,162.680833 C375.132083,162.84125 375.52625,163.010833 375.947917,163.203333 C376.369583,163.395833 376.695,163.537917 377.102917,163.712083 C381.79625,165.802083 388.373333,168.804167 388.840833,169.404583 C389.569583,170.353333 394.395833,173.107917 398.786667,170.779583 C403.1775,168.45125 404.117083,164.894583 404.117083,164.894583 C404.117083,164.894583 408.36125,159.01875 408.507917,158.147917 C408.617917,157.47875 410.579583,156.7225 411.487083,156.40625 L411.574167,156.37875 L411.940833,156.259583 C411.940833,156.259583 411.940833,156.442917 411.940833,156.759167 L411.940833,156.782083 C411.940833,156.9425 411.940833,157.144167 411.940833,157.36875 C411.940833,159.412917 411.913333,163.85875 411.271667,167.09 C411.269522,167.099041 411.269522,167.108459 411.271667,167.1175 C411.127131,167.953537 410.882453,168.76913 410.542917,169.546667 C408.860833,173.103333 405.72125,188.860833 405.72125,188.860833 L405.794583,188.860833 C405.97595,188.827869 406.160833,188.818624 406.344583,188.833333 C406.280417,189.126667 406.239167,189.355833 406.207083,189.511667 C406.175,189.6675 406.16125,189.745417 406.16125,189.745417 L406.21625,189.745417 C406.391403,189.712289 406.570051,189.701509 406.747917,189.713333 C406.808019,189.716151 406.867797,189.723815 406.926667,189.73625 C406.926667,189.827917 406.899167,189.937917 406.880833,190.06625 C406.880833,190.06625 406.880833,190.112083 406.880833,190.135 C406.880833,190.157917 406.880833,190.1625 406.880833,190.180833 C406.880833,190.199167 406.853333,190.322917 406.844167,190.400833 C406.46375,193.0225 405.36375,199.847083 405.36375,199.847083 C405.36375,199.847083 404.905417,203.619167 404.190417,204.925417 C403.883333,205.48 403.695417,207.015417 403.57625,208.592083 C403.57625,208.82125 403.544167,209.050417 403.525833,209.28875 C403.406667,211.232083 403.388333,213.051667 403.388333,213.051667 L403.35625,213.170833 L402.279167,218.056667 C402.29672,218.101971 402.316607,218.146336 402.33875,218.189583 C402.416667,218.33625 402.540417,218.588333 402.719167,218.9 L402.774167,219.019167 C403.422354,220.339891 404.279806,221.547133 405.313333,222.594167 C405.552874,222.831995 405.810295,223.051109 406.083333,223.249583 C406.083333,223.304583 406.060417,223.364167 406.05125,223.41 C406.042083,223.455833 406.02375,223.584167 406.01,223.666667 C405.916851,224.297493 405.742778,224.913681 405.492083,225.5 C405.204605,226.131497 405.02638,226.807201 404.965,227.498333 C404.909688,227.991286 404.89436,228.487907 404.919167,228.983333 L404.859583,229.25375 C404.699167,230.000833 404.240833,232.191667 403.993333,233.974583 C403.93375,234.3825 403.87875,234.776667 403.846667,235.143333 C403.815945,235.483335 403.815945,235.825415 403.846667,236.165417 C403.874784,236.738437 403.844068,237.31283 403.755,237.879583 C403.755,238.044583 403.718333,238.214167 403.695417,238.38375 C403.447917,239.997083 403.04,241.688333 403.04,241.688333 L401.724583,254.315417 L401.724583,254.54 C401.724583,254.590417 401.724583,254.682083 401.724583,254.80125 C401.724583,254.920417 401.724583,254.96625 401.724583,255.0625 C401.724583,255.15875 401.724583,255.26875 401.697083,255.3925 C401.697083,255.690417 401.65125,256.043333 401.619167,256.455833 C401.619167,256.6025 401.61,256.755278 401.591667,256.914167 C401.591667,257.051667 401.591667,257.198333 401.564167,257.349583 C401.564167,257.4275 401.564167,257.505417 401.564167,257.587917 C401.564167,257.670417 401.564167,257.82625 401.54125,257.95 C401.518333,258.07375 401.54125,258.18375 401.54125,258.298333 C401.54125,258.412917 401.54125,258.51375 401.54125,258.62375 C401.5,259.2975 401.454167,260.02625 401.422083,260.764167 C401.422083,260.883333 401.422083,261.0025 401.422083,261.121667 L401.422083,261.47 C401.422083,261.70375 401.422083,261.928333 401.39,262.175833 C401.39,262.331667 401.39,262.492083 401.39,262.634167 C401.39,262.77625 401.39,263.065 401.39,263.275833 L401.39,263.431667 C401.39,263.569167 401.39,263.706667 401.39,263.835 C401.39,264.142083 401.39,264.44 401.39,264.72875 C401.39,264.857083 401.39,264.99 401.39,265.118333 C401.39,265.533889 401.39,265.928056 401.39,266.300833 C401.39,266.48875 401.39,266.6675 401.39,266.841667 C401.400007,267.329145 401.436729,267.815708 401.5,268.299167 C401.550417,268.656667 401.587083,269.0325 401.605417,269.4175 C401.605417,269.59625 401.605417,269.775 401.605417,269.949167 C401.61,270.037719 401.61,270.126448 401.605417,270.215 C401.605417,270.302083 401.605417,270.398333 401.605417,270.485417 C401.605417,270.5725 401.605417,270.732917 401.605417,270.852083 C401.605417,271.044583 401.605417,271.2325 401.605417,271.420417 C401.605417,271.498333 401.605417,271.571667 401.605417,271.645 C401.605417,271.718333 401.605417,271.915417 401.605417,272.048333 L401.605417,272.268333 C401.490833,273.845 401.275417,275.12375 401.243333,275.325417 C401.243333,275.325417 401.243333,275.325417 401.243333,275.325417 C401.243333,275.325417 401.243333,275.366667 401.243333,275.444583 C401.243333,275.5225 401.243333,275.513333 401.243333,275.554583 C401.243333,275.595833 401.243333,275.6325 401.243333,275.678333 C401.243333,275.724167 401.243333,275.72875 401.243333,275.75625 C401.243333,275.870833 401.270833,276.0175 401.284583,276.177917 C401.284583,276.25125 401.284583,276.324583 401.284583,276.407083 C401.284583,276.489583 401.284583,276.58125 401.312083,276.672917 C401.339583,276.764583 401.312083,276.76 401.312083,276.810417 C401.312083,276.975417 401.339583,277.145 401.357917,277.32375 C401.37625,277.5025 401.399167,277.695 401.412917,277.8875 L401.440417,278.249583 C401.440417,278.42375 401.477083,278.607083 401.490833,278.785833 L401.490833,278.969167 C401.490833,279.092917 401.518333,279.212083 401.5275,279.340417 L401.56875,279.904167 C401.56875,280.027917 401.59625,280.15625 401.605417,280.28 C401.614583,280.40375 401.605417,280.408333 401.605417,280.4725 L401.665,281.215 C401.665,281.33875 401.665,281.457917 401.687917,281.581667 C401.687917,281.774167 401.715417,281.97125 401.73375,282.154583 C401.752083,282.337917 401.73375,282.57625 401.765833,282.76875 C401.797917,282.96125 401.78875,283.15375 401.793333,283.327917 C401.845441,283.844523 401.845441,284.365061 401.793333,284.881667 C401.674167,285.404167 401.289167,286.86625 401.069167,288.452083 C401.069167,288.594167 401.027917,288.73625 401.014167,288.882917 C401.000417,289.029583 401.014167,289.0525 401.014167,289.139583 L400.986667,289.483333 C400.986667,289.758333 400.954583,290.037917 400.954583,290.308333 C400.93382,290.926222 401.003302,291.543836 401.160833,292.141667 C401.265787,292.539063 401.342368,292.943414 401.39,293.351667 C401.39,293.415833 401.39,293.484583 401.412917,293.553333 C401.412917,293.7 401.445,293.85125 401.45875,294.011667 C401.4725,294.172083 401.481667,294.323333 401.490833,294.47 C401.490833,294.790833 401.518333,295.120833 401.532083,295.455417 C401.532083,295.675417 401.532083,295.91375 401.532083,296.12 C401.564167,298.054167 401.4725,299.947083 401.445,300.432917 L401.445,300.469583 C401.445,300.524583 401.445,300.552083 401.445,300.552083 C401.445,300.552083 401.903333,308.6875 402.39375,311.295417 C402.457917,311.639167 402.50375,311.9875 402.535833,312.345 C402.535833,312.477917 402.535833,312.610833 402.55875,312.74375 C402.621851,314.253982 402.517323,315.766554 402.247083,317.25375 C402.247083,317.25375 401.73375,322.840833 401.518333,322.840833 C401.412917,322.840833 400.93625,323.7025 400.862917,325.004167 L400.862917,325.040833 C400.79875,326.49375 401.243333,328.492083 403.269167,330.4675 L403.489167,330.682917 L403.755,330.582083 C405.9,329.816667 408.026667,329.019167 410.14875,328.207917 C411.27625,327.7725 412.40375,327.337083 413.526667,326.887917 C416.301111,325.790972 419.051111,324.663472 421.776667,323.505417 C421.64717,323.436907 421.552385,323.317178 421.515417,323.175417 C421.09375,322.0525 421.721667,318.592083 421.85,318.060417 C421.978333,317.52875 423.165417,306.221667 423.165417,306.221667 C423.165417,306.221667 422.707083,302.669583 423.312083,301.147917 C423.917083,299.62625 422.57875,293.736667 422.57875,293.736667 C422.57875,293.736667 422.120417,293.0125 422.945417,292.141667 C423.770417,291.270833 423.45875,283.502083 423.45875,283.502083 C423.45875,283.502083 423.385417,279.57875 423.385417,278.56125 C423.385417,277.54375 424.265417,273.840417 425.062917,272.602917 C425.860417,271.365417 425.360833,267.515417 425.360833,267.515417 L425.406667,267.222083 C425.406667,267.112083 425.443333,266.974583 425.470833,266.814167 L425.539583,266.424583 C425.886678,264.297353 426.361142,262.192875 426.960417,260.1225 C427.91375,257.074583 429.009167,251.702917 429.009167,251.702917 L435.402917,234.556667 L435.61375,234.025 L435.691667,233.814167 C435.691667,233.814167 438.83125,239.625833 438.83125,244.9975 C438.83125,244.9975 439.637917,251.46 439.4225,253.201667 C439.207083,254.943333 440.077917,263.1475 440.077917,263.1475 C440.077917,263.1475 441.022083,274.912917 441.022083,275.417083 C441.022083,275.92125 442.195417,284.973333 442.92875,286.348333 C443.662083,287.723333 442.195417,291.94 441.76,292.375417 C441.324583,292.810833 441.906667,303.485417 441.906667,303.485417 C441.906667,303.485417 440.802083,311.905 440.586667,313.646667 C440.545417,313.962917 440.48125,314.439583 440.4125,315.021667 C447.745833,311.501667 455.010417,307.784583 462.004583,303.746667 C462.307083,303.577083 462.605,303.4075 462.92125,303.224167 L462.971667,292.80625 C462.971667,292.80625 463.485,287.943333 462.898333,285.977083 C462.311667,284.010833 461.729583,280.247917 462.53625,279.230417 C463.342917,278.212917 462.609583,273.496667 462.609583,273.496667 C462.609583,273.496667 462.609583,263.54625 463.705,261.080417 C464.800417,258.614583 464.438333,243.00375 464.438333,243.00375 L464.727083,232.764583 C464.727083,232.764583 467.06,230.555417 466.560417,219.110833 C466.560417,218.987083 466.560417,218.854167 466.560417,218.72125 C469.10875,218.560833 471.9825,218.469167 472.417917,218.826667 C473.114583,219.385833 477.037917,221.925 480.076667,221.2925 C480.579164,221.196795 481.056576,220.998654 481.479167,220.710417 C482.139167,220.417083 485.145833,217.877917 485.145833,217.877917 L483.981667,198.293333 L483.857917,196.11625 C484.077917,196.450833 484.270417,196.74875 484.435417,197.032917 C484.89375,197.729583 485.145833,198.155833 485.145833,198.155833 C485.145833,195.107917 493.77625,185.235417 493.77625,185.235417 C493.77625,185.235417 501.82,174.854167 503.570833,173.616667 C505.321667,172.379167 508.76375,165.847917 508.76375,165.847917 C509.271168,164.601849 509.857496,163.389391 510.519167,162.217917 C511.298333,160.897917 508.65375,157.41 508.947083,156.6125 Z M483.211667,170.550417 C483.051503,171.272001 482.718004,171.943719 482.24,172.5075 C482.203333,172.049167 482.166667,171.622917 482.13,171.164583 C482.13,171.127917 482.13,171.082083 482.13,171.045417 C481.616667,164.65625 481.066667,156.92875 481.31875,156.1725 C481.525,155.5675 481.598333,153.963333 481.62125,152.423333 C481.653333,150.667917 481.62125,148.995 481.62125,148.995 L481.70375,148.880417 C483.179583,153.46375 487.758333,158.807917 487.758333,158.807917 C487.758333,158.807917 488.565,161.131667 489.51375,161.205 C490.4625,161.278333 490.095833,164.252917 490.095833,164.252917 C489.654551,164.323647 489.231177,164.479299 488.849167,164.71125 C488.398005,164.971854 487.966068,165.264406 487.556667,165.586667 C485.4575,167.181667 483.262083,169.807917 483.211667,170.550417 Z"/>
                <path id="Path" fill="#65617D" d="M372.881667,162.598333 C372.881667,162.598333 375.549167,148.619167 384.12,148.545833 L390.39,161.443333 L386.173333,164.307917 C386.173333,164.307917 377.116667,164.596667 372.881667,162.598333 Z"/>
                <path id="Path" fill="#000000" d="M390.371667,161.425 L386.173333,164.307917 C386.173333,164.307917 379.784167,164.509583 375.219167,163.39125 C374.415771,163.204631 373.632796,162.939033 372.881667,162.598333 C372.881667,162.598333 372.881667,162.520417 372.9275,162.37375 C372.925926,162.35545 372.925926,162.33705 372.9275,162.31875 C373.322318,160.564868 373.865094,158.84761 374.55,157.185417 C374.81125,156.5575 375.11375,155.91125 375.434583,155.265 C376.690417,152.849583 378.455,150.48 380.870417,149.306667 C381.762724,148.869299 382.733662,148.615265 383.725833,148.559583 L383.9825,148.559583 L384.10625,148.559583 L384.248333,148.84375 L386.365833,153.2025 L390.371667,161.425 Z" opacity="0.1"/>
                <path id="Path" fill="#65617D" d="M461.56,219.500417 C461.56,219.500417 470.56625,218.63875 471.359167,219.285 C472.152083,219.93125 477.267083,223.249583 480.296667,221.159583 C483.32625,219.069583 481.305,211.79125 481.305,211.5025 C481.305,211.21375 481.01625,200.910417 481.01625,200.910417 L475.6125,193.632083 L468.838333,180.88125 L455.005833,179.50625 L455.363333,199.755417 L455.294583,210.132083 L461.56,219.500417 Z"/>
                <path id="Path" fill="#000000" d="M461.56,219.500417 C461.56,219.500417 470.56625,218.63875 471.359167,219.285 C472.152083,219.93125 477.267083,223.249583 480.296667,221.159583 C483.32625,219.069583 481.305,211.79125 481.305,211.5025 C481.305,211.21375 481.01625,200.910417 481.01625,200.910417 L475.6125,193.632083 L468.838333,180.88125 L455.005833,179.50625 L455.363333,199.755417 L455.294583,210.132083 L461.56,219.500417 Z" opacity="0.1"/>
                <path id="Path" fill="#A5636D" d="M382.300417,148.17 C382.300417,148.17 381.59,156.960833 376.09,157.098333 C376.09,157.098333 374.540833,156.181667 372.450833,154.600417 C367.638333,151.0025 360.007083,144.081667 362.115417,137.642083 C365.140417,128.420417 379.839167,145.43375 379.839167,145.43375 L380.97125,146.69875 L382.300417,148.17 Z"/>
                <path id="Path" fill="#000000" d="M382.300417,148.17 C382.300417,148.17 381.59,156.960833 376.09,157.098333 C376.09,157.098333 374.540833,156.181667 372.450833,154.600417 L371.9925,154 C372.921666,154.487114 373.946536,154.764063 374.994583,154.81125 C376.369583,154.83875 377.91875,154.352917 378.913333,152.340833 C379.48814,151.209493 379.99474,150.044773 380.430417,148.852917 C380.69006,148.153385 380.874434,147.428181 380.980417,146.689583 L382.300417,148.17 Z" opacity="0.1"/>
                <path id="Path" fill="#E7EFFD" d="M379.921667,164.0925 L378.68875,162.506667 L374.56375,157.167083 L372.423333,154.44 C373.351426,154.925014 374.374673,155.200383 375.420833,155.246667 C376.795833,155.27875 378.345,154.788333 379.339583,152.77625 C379.916326,151.645822 380.422977,150.480983 380.856667,149.288333 C381.539583,147.345 381.525833,146.345833 381.282917,146.006667 C381.04,145.6675 382.81375,147.312917 383.66625,148.124167 L383.698333,148.151667 L384.0925,148.5275 L384.24375,148.820833 L386.329167,152.99625 C386.329167,152.99625 386.329167,153.055833 386.329167,153.170417 C386.521667,154.495 387.222917,162.900833 379.921667,164.0925 Z"/>
                <path id="Path" fill="#3F3D56" d="M421.749167,323.473333 C421.617819,323.361213 421.47311,323.265766 421.318333,323.189167 L421.281667,323.189167 C420.42,322.827083 421.208333,318.358333 421.355,317.780833 C421.501667,317.203333 422.652083,306.056667 422.652083,306.056667 C422.652083,306.056667 422.22125,302.532083 422.79875,301.015 C423.37625,299.497917 422.074583,293.681667 422.074583,293.681667 C422.074583,293.681667 421.64375,292.962083 422.436667,292.095833 C423.229583,291.229583 422.940833,283.520417 422.940833,283.520417 C422.940833,283.520417 422.872083,279.63375 422.872083,278.620833 C422.872083,277.607917 423.73375,273.94125 424.526667,272.712917 C425.319583,271.484583 424.815417,267.67125 424.815417,267.67125 L424.856667,267.377917 C424.879583,267.2725 424.897917,267.135 424.920833,266.974583 L424.989583,266.589583 C424.989583,266.497917 425.021667,266.401667 425.04,266.29625 C425.08125,266.067083 425.127083,265.837917 425.1775,265.544583 C425.205,265.379583 425.237083,265.205417 425.27375,265.03125 C425.379167,264.48125 425.502917,263.87625 425.635833,263.2575 C425.677083,263.065 425.722917,262.867917 425.76875,262.675417 C425.814583,262.482917 425.87875,262.217083 425.938333,261.97875 C425.975,261.836667 426.007083,261.699167 426.048333,261.557083 C426.15375,261.135417 426.268333,260.7275 426.392083,260.337917 C427.30875,257.308333 428.413333,251.977917 428.413333,251.977917 L435.109583,234.387083 L435.1875,234.17625 L435.398333,234.584167 C436.095,235.99125 438.28125,240.780833 438.28125,245.267917 C438.28125,245.267917 439.07875,251.684583 438.85875,253.407917 C438.63875,255.13125 439.509583,263.280417 439.509583,263.280417 C439.509583,263.280417 440.42625,274.949583 440.42625,275.45375 C440.42625,275.957917 441.58125,284.96875 442.300833,286.334583 C443.020417,287.700417 441.58125,291.885 441.145833,292.292917 C440.710417,292.700833 441.2925,303.320417 441.2925,303.320417 C441.2925,303.320417 440.210833,311.675833 439.990833,313.40375 C439.945,313.81625 439.853333,314.508333 439.757083,315.35625 L440.311667,315.095 L440.389583,315.05375 C447.722917,311.53375 454.9875,307.816667 461.981667,303.77875 L462.04125,292.728333 C462.04125,292.728333 462.545417,287.8975 461.9725,285.954167 C461.399583,284.010833 460.8175,280.261667 461.605833,279.24875 C462.394167,278.235833 461.68375,273.560833 461.68375,273.560833 C461.68375,273.560833 461.68375,263.688333 462.760833,261.240833 C463.837917,258.793333 463.485,243.297083 463.485,243.297083 L463.769167,233.140417 C463.769167,233.140417 466.120417,230.899167 465.565833,219.2025 C465.50625,217.955833 465.414583,216.60375 465.28625,215.127917 C464.8875,210.714167 464.484167,206.7175 464.1175,203.257083 C464.085417,202.959167 464.053333,202.665833 464.02125,202.381667 C463.984583,201.996667 463.93875,201.61625 463.902083,201.245 C463.815,200.46125 463.7325,199.709583 463.65,198.994583 C463.6225,198.78375 463.599583,198.5775 463.576667,198.37125 C463.4575,197.344583 463.345972,196.397361 463.242083,195.529583 C463.205417,195.190417 463.159583,194.855833 463.122917,194.539583 C463.063333,194.08125 463.008333,193.622917 462.957917,193.196667 C462.957917,193.095833 462.930417,192.995 462.916667,192.894167 C462.916667,192.710833 462.875417,192.536667 462.8525,192.367083 C462.614167,190.497083 462.472083,189.475 462.472083,189.475 L462.407917,189.475 L455.161667,189.539167 L439.344583,189.690417 L438.881667,189.690417 L430.631667,189.768333 L430.1275,189.768333 L426.1675,189.809583 L425.49375,189.809583 L417.24375,189.8875 L416.744167,189.8875 L413.357083,203.848333 L406.440833,219.702083 C406.440833,219.702083 406.335417,221.439167 406.0925,223.135 L406.0925,223.235833 C406.0925,223.295417 406.0925,223.350417 406.065,223.400833 C406.0375,223.45125 406.0375,223.575 406.02375,223.6575 C405.928092,224.426733 405.732411,225.180184 405.441667,225.89875 C405.211833,226.400379 405.057387,226.933217 404.983333,227.48 C404.892659,228.060478 404.857361,228.648259 404.877917,229.235417 C404.877917,229.299583 404.877917,229.331667 404.877917,229.331667 C404.877917,229.331667 404.327917,231.829583 404.007083,233.95625 C403.9475,234.364167 403.8925,234.758333 403.860417,235.125 C403.798285,235.569761 403.776807,236.019258 403.79625,236.467917 C403.82144,236.926828 403.804564,237.387082 403.745833,237.842917 C403.745833,238.007917 403.709167,238.1775 403.68625,238.347083 C403.461667,240.03375 403.007917,241.922083 403.007917,241.922083 L401.70625,254.462083 C401.707249,254.475815 401.707249,254.489601 401.70625,254.503333 C401.70625,254.55375 401.70625,254.645417 401.70625,254.764583 C401.70625,254.88375 401.70625,254.929583 401.70625,255.025833 C401.70625,255.122083 401.70625,255.232083 401.67875,255.355833 C401.67875,255.65375 401.632917,256.006667 401.600833,256.419167 C401.600833,256.565833 401.591667,256.718611 401.573333,256.8775 C401.573333,257.015 401.573333,257.161667 401.545833,257.312917 C401.545833,257.390833 401.545833,257.46875 401.545833,257.55125 C401.545833,257.63375 401.545833,257.789583 401.522917,257.913333 C401.5,258.037083 401.522917,258.147083 401.522917,258.261667 C401.522917,258.37625 401.522917,258.477083 401.522917,258.587083 C401.48625,259.260833 401.440417,259.989583 401.408333,260.7275 C401.408333,260.846667 401.408333,260.965833 401.408333,261.085 L401.408333,261.433333 C401.408333,261.667083 401.408333,261.891667 401.37625,262.139167 C401.37625,262.295 401.37625,262.455417 401.37625,262.5975 C401.37625,262.739583 401.37625,263.028333 401.37625,263.239167 L401.37625,263.431667 C401.37625,263.569167 401.37625,263.706667 401.37625,263.835 C401.37625,264.142083 401.37625,264.44 401.37625,264.72875 C401.37625,264.857083 401.37625,264.99 401.37625,265.118333 C401.37625,265.533889 401.37625,265.928056 401.37625,266.300833 C401.37625,266.48875 401.37625,266.6675 401.37625,266.841667 C401.381511,267.353716 401.418247,267.864959 401.48625,268.3725 C401.532083,268.711667 401.56875,269.06 401.591667,269.4175 C401.591667,269.59625 401.591667,269.775 401.591667,269.949167 C401.591667,270.123333 401.591667,270.306667 401.591667,270.485417 C401.591667,270.664167 401.591667,270.732917 401.591667,270.852083 C401.591667,271.044583 401.591667,271.2325 401.591667,271.420417 C401.591667,271.498333 401.591667,271.571667 401.591667,271.645 C401.591667,271.718333 401.591667,271.915417 401.591667,272.048333 L401.591667,272.268333 C401.477083,273.845 401.261667,275.12375 401.229583,275.325417 C401.229583,275.325417 401.229583,275.325417 401.229583,275.325417 C401.229583,275.325417 401.229583,275.366667 401.229583,275.444583 C401.229583,275.5225 401.229583,275.513333 401.229583,275.554583 C401.229583,275.595833 401.229583,275.6325 401.229583,275.678333 C401.229583,275.724167 401.229583,275.72875 401.229583,275.75625 C401.229583,275.870833 401.257083,276.0175 401.270833,276.177917 C401.270833,276.25125 401.270833,276.324583 401.270833,276.407083 C401.270833,276.489583 401.270833,276.58125 401.298333,276.672917 C401.325833,276.764583 401.298333,276.76 401.298333,276.810417 C401.298333,276.975417 401.325833,277.145 401.344167,277.32375 C401.3625,277.5025 401.380833,277.695 401.399167,277.8875 L401.426667,278.249583 C401.426667,278.42375 401.463333,278.607083 401.477083,278.785833 L401.477083,278.969167 C401.477083,279.092917 401.504583,279.212083 401.51375,279.340417 L401.555,279.904167 C401.555,280.027917 401.5825,280.15625 401.591667,280.28 L401.591667,280.4725 L401.65125,281.215 C401.65125,281.33875 401.65125,281.457917 401.674167,281.581667 C401.674167,281.774167 401.701667,281.97125 401.72,282.154583 C401.738333,282.337917 401.72,282.57625 401.752083,282.76875 C401.784167,282.96125 401.775,283.15375 401.779583,283.327917 C401.825904,283.827957 401.825904,284.331209 401.779583,284.83125 C401.477948,286.024827 401.239285,287.23344 401.064583,288.452083 C401.064583,288.594167 401.023333,288.73625 401.009583,288.882917 C400.995833,289.029583 401.009583,289.0525 401.009583,289.139583 L400.982083,289.483333 C400.982083,289.758333 400.95,290.037917 400.95,290.308333 C400.938693,290.891063 401.008101,291.472553 401.15625,292.03625 C401.280504,292.535983 401.364798,293.044811 401.408333,293.557917 C401.445,293.85125 401.467917,294.162917 401.48625,294.474583 C401.504583,294.78625 401.51375,295.125417 401.5275,295.46 C401.5275,295.68 401.5275,295.918333 401.5275,296.124583 C401.555,298.301667 401.435833,300.3825 401.435833,300.3825 C401.434823,300.400819 401.434823,300.419181 401.435833,300.4375 L401.435833,300.474167 C401.481667,301.390833 401.894167,308.61875 402.3525,311.047917 C402.431814,311.478229 402.485381,311.91289 402.512917,312.349583 C402.512917,312.4825 402.512917,312.615417 402.535833,312.748333 C402.569248,314.159731 402.460224,315.5709 402.210417,316.960417 C402.210417,316.960417 401.536667,322.556667 401.32125,322.556667 C401.21125,322.556667 400.66125,323.574167 400.675,325.06375 L400.675,325.100417 C400.675,326.502917 401.215833,328.30875 403.05375,330.142083 L403.567083,330.655417 C405.712083,329.89 407.83875,329.0925 409.960833,328.28125 C411.088333,327.845833 412.215833,327.410417 413.33875,326.96125 C416.113194,325.864306 418.863194,324.736806 421.58875,323.57875 L421.749167,323.473333 Z"/>
                <path id="Path" fill="#A5636D" d="M459.543333,106.952083 L448.877917,118.341667 C448.877917,118.341667 435.192083,112.841667 436.63125,111.008333 C437.190417,110.284167 437.089583,107.997083 436.777917,105.471667 C436.27375,101.479583 435.192083,96.8825 435.192083,96.8825 C435.192083,96.8825 459.1125,92.99125 457.09125,97.0291667 C456.357917,98.5004167 456.481667,100.2375 456.94,101.814167 C457.528619,103.654518 458.407472,105.389015 459.543333,106.952083 Z"/>
                <path id="Path" fill="#000000" d="M457.09125,97.0108333 C456.357917,98.4820833 456.005,98.6241667 456.463333,100.219167 C453.3375,103.574167 449.359167,107.245417 444.41375,107.245417 C441.764235,107.250315 439.149958,106.63833 436.777917,105.457917 C436.27375,101.465833 435.192083,96.86875 435.192083,96.86875 C435.192083,96.86875 459.1125,92.9729167 457.09125,97.0108333 Z" opacity="0.1"/>
                <path id="Path" fill="#A5636D" d="M461.564583,89.6591667 C461.564583,99.1313104 453.885894,106.81 444.41375,106.81 C434.941606,106.81 427.262917,99.1313104 427.262917,89.6591667 C427.262917,89.5766667 427.262917,89.4941667 427.262917,89.4116667 C427.468051,80.0398678 435.159607,72.5689511 444.533406,72.6365957 C453.907206,72.7042404 461.49014,80.2853834 461.56,89.6591667 L461.564583,89.6591667 Z"/>
                <path id="Path" fill="#000000" d="M464.044167,202.794167 C461.7525,202.794167 454.208333,202.876667 445.756667,203.009583 L445.65125,203.009583 L442.86,203.055417 L442.772917,203.055417 C432.749167,203.215833 422.872083,201.25875 418.9075,201.63 C410.474167,202.422917 421.9325,193.838333 421.9325,193.838333 C428.214695,195.36247 434.67649,196.016361 441.136667,195.781667 L443.56125,195.653333 C451.22,195.2225 458.92,194.502917 462.944167,193.292917 C463.22375,195.529583 463.631667,198.77 464.044167,202.794167 Z" opacity="0.1"/>
                <path id="Path" fill="#5F5D7E" d="M464.044167,202.363333 C461.7525,202.363333 454.208333,202.44125 445.756667,202.57875 L445.65125,202.57875 L442.86,202.624583 L442.772917,202.624583 C432.749167,202.785 422.872083,200.827917 418.9075,201.199167 C410.474167,201.9875 421.9325,193.4075 421.9325,193.4075 C428.214663,194.931529 434.676654,195.583897 441.136667,195.34625 L443.56125,195.2225 C451.22,194.791667 458.92,194.0675 462.944167,192.862083 C463.22375,195.09875 463.631667,198.348333 464.044167,202.363333 Z"/>
                <path id="Path" fill="#000000" d="M439.798333,111.723333 L426.53875,117.92 L416.313333,197.019167 C416.313333,197.019167 422.363333,194.269167 425.82375,196.010833 C429.284167,197.7525 439.945,196.1575 439.945,196.1575 C439.945,196.1575 447.736667,195.699167 448.877917,196.588333 C450.019167,197.4775 463.58125,192.985833 463.58125,192.985833 C463.58125,192.985833 466.02875,187.50875 464.154167,186.647083 C462.279583,185.785417 464.731667,177.265 464.731667,177.265 L463.58125,120.197917 L461.289583,112.864583 L455.092917,109.12 L448.754167,114.161667 L445.729167,114.597083 L439.798333,111.723333 Z" opacity="0.1"/>
                <path id="Path" fill="#E7EFFD" d="M439.798333,110.843333 L426.543333,117.04 L416.313333,196.1575 C416.313333,196.1575 422.363333,193.4075 425.82375,195.149167 C429.284167,196.890833 439.945,195.29125 439.945,195.29125 C439.945,195.29125 447.736667,194.860417 448.877917,195.722083 C450.019167,196.58375 463.58125,192.119583 463.58125,192.119583 C463.58125,192.119583 466.02875,186.647083 464.154167,185.780833 C462.279583,184.914583 464.731667,176.4125 464.731667,176.4125 L463.58125,119.345417 L461.289583,112.012083 L455.092917,108.262917 L448.754167,113.304583 L445.729167,113.735417 L439.798333,110.843333 Z"/>
                <path id="Path" fill="#000000" d="M439.582917,114.519167 C439.582917,114.519167 443.405417,119.056667 443.332083,119.99625 C443.25875,120.935833 443.116667,123.163333 443.116667,123.163333 L440.256667,129.0025 C440.256667,129.0025 438.670833,136.280833 438.670833,137.793333 C438.670833,139.305833 436.15,152.41875 436.15,152.41875 L433.125,172.585417 L429.3025,199.03125 L433.19375,205.732083 L437.804583,201.840833 L443.923333,154.724167 L445.220417,145.429167 C445.220417,145.429167 446.595417,128.71375 446.595417,126.985833 C446.595417,125.257917 445.8025,120.715833 445.8025,120.715833 C445.8025,120.715833 446.742083,116.39375 450.633333,115.385417 C454.524583,114.377083 450.344583,115.165417 450.344583,115.165417 L448.1125,113.364167 L446.164583,114.157083 C446.164583,114.157083 440.737917,112.5025 439.582917,114.519167 Z" opacity="0.1"/>
                <path id="Path" fill="#202A25" d="M439.152083,114.088333 C439.152083,114.088333 442.97,118.625833 442.90125,119.560833 C442.8325,120.495833 442.68125,122.7325 442.68125,122.7325 L439.798333,128.571667 C439.798333,128.571667 438.2125,135.845417 438.2125,137.357917 C438.2125,138.870417 435.691667,151.987917 435.691667,151.987917 L432.662083,172.154583 L428.844167,198.595833 L432.735417,205.296667 L437.34625,201.405417 L443.465,154.293333 L444.762083,144.998333 C444.762083,144.998333 446.137083,128.282917 446.137083,126.550417 C446.137083,124.817917 445.344167,120.285 445.344167,120.285 C445.344167,120.285 446.260833,115.958333 450.170417,114.95 C454.08,113.941667 449.88625,114.734583 449.88625,114.734583 L447.649583,112.933333 L445.70625,113.72625 C445.70625,113.72625 440.307083,112.067083 439.152083,114.088333 Z"/>
                <path id="Path" fill="#000000" d="M436.63125,106.52125 C436.63125,106.52125 436.05375,106.952083 435.911667,109.835 C435.769583,112.717917 433.748333,119.203333 433.748333,119.203333 C433.748333,119.203333 441.242083,114.015 444.99125,114.5925 L436.63125,106.52125 Z" opacity="0.1"/>
                <path id="Path" fill="#E7EFFD" d="M436.63125,105.655 C436.63125,105.655 436.05375,106.090417 435.911667,108.96875 C435.769583,111.847083 433.748333,118.337083 433.748333,118.337083 C433.748333,118.337083 441.242083,113.14875 444.99125,113.72625 L436.63125,105.655 Z"/>
                <path id="Path" fill="#000000" d="M457.095833,104.215833 L445.298333,114.5925 C445.298333,114.5925 455.244167,120.500417 456.54125,121.925833 C457.838333,123.35125 459.135417,107.804583 459.135417,107.804583 L457.095833,104.215833 Z" opacity="0.1"/>
                <path id="Path" fill="#E7EFFD" d="M457.526667,103.349583 L445.710833,113.72625 C445.710833,113.72625 455.652083,119.634167 456.949167,121.059583 C458.24625,122.485 459.543333,106.93375 459.543333,106.93375 L457.526667,103.349583 Z"/>
                <path id="Path" fill="#000000" d="M437.048333,106.52125 C437.048333,106.52125 435.75125,105.870417 434.5275,107.745 C433.30375,109.619583 430.998333,110.495 430.998333,110.495 C430.998333,110.495 417.880833,112.585 417.376667,114.312917 L411.253333,114.670417 C411.253333,114.670417 409.09,114.931667 408.888333,119.515 C408.686667,124.098333 407.513333,124.483333 407.513333,124.483333 C407.513333,124.483333 404.987917,128.952083 405.221667,131.2575 C405.455417,133.562917 403.27375,134.717917 403.27375,134.717917 L412.298333,158.11125 C412.298333,158.11125 412.587083,167.768333 410.923333,171.2975 C409.259583,174.826667 406.165833,190.465 406.165833,190.465 C406.165833,190.465 407.462917,190.17625 407.389583,191.0425 C407.31625,191.90875 405.80375,201.345833 405.80375,201.345833 C405.80375,201.345833 405.372917,205.090417 404.653333,206.3875 C403.93375,207.684583 403.860417,214.45875 403.860417,214.45875 L402.673333,219.358333 C402.673333,219.358333 405.423333,225.481667 409.594167,224.615417 C413.765,223.749167 421.336667,207.395833 421.336667,207.395833 L426.162917,189.745417 L429.912083,172.305833 L430.99375,160.49 L432.721667,134.332917 L435.2425,117.04 C435.2425,117.04 438.070417,107.745 437.048333,106.52125 Z" opacity="0.1"/>
                <path id="Path" fill="#65617D" d="M436.63125,105.655 C436.63125,105.655 435.334167,105.00875 434.110417,106.883333 C432.886667,108.757917 430.576667,109.633333 430.576667,109.633333 C430.576667,109.633333 417.46375,111.723333 416.959583,113.45125 L410.83625,113.813333 C410.83625,113.813333 408.672917,114.102083 408.4575,118.639583 C408.242083,123.177083 407.0825,123.6125 407.0825,123.6125 C407.0825,123.6125 404.561667,128.08125 404.790833,130.386667 C405.02,132.692083 402.8475,133.8425 402.8475,133.8425 L411.84,157.245 C411.84,157.245 412.12875,166.902083 410.465,170.43125 C408.80125,173.960417 405.712083,189.59875 405.712083,189.59875 C405.712083,189.59875 407.009167,189.31 406.935833,190.17625 C406.8625,191.0425 405.35,200.479583 405.35,200.479583 C405.35,200.479583 404.919167,204.224167 404.199583,205.52125 C403.48,206.818333 403.406667,213.5925 403.406667,213.5925 L402.260833,218.515 C402.260833,218.515 405.010833,224.638333 409.177083,223.776667 C413.343333,222.915 420.924167,206.5525 420.924167,206.5525 L425.750417,188.902083 L429.499583,171.485417 L430.576667,159.669583 L432.309167,133.517083 L434.83,116.224167 C434.83,116.224167 437.639583,106.883333 436.63125,105.655 Z"/>
                <path id="Path" fill="#000000" d="M390.371667,161.425 L386.173333,164.307917 C386.173333,164.307917 379.784167,164.509583 375.219167,163.39125 L372.890833,162.36 L372.4325,162.15375 L372.91375,162.305 C375.324583,163.02 377.208333,163.00625 378.679583,162.51125 C384.596667,160.522083 383.94125,150.755 383.72125,148.545833 C383.72125,148.325833 383.684583,148.18375 383.675417,148.12875 C383.674432,148.11961 383.674432,148.11039 383.675417,148.10125 L383.712083,148.15625 C383.790733,148.290843 383.88123,148.418153 383.9825,148.536667 C384.065118,148.635381 384.153907,148.728763 384.248333,148.81625 L386.33375,152.991667 C386.33375,152.991667 386.33375,153.05125 386.33375,153.165833 L390.371667,161.425 Z" opacity="0.1"/>
                <path id="Path" fill="#65617D" d="M404.855,133.265 L402.838333,133.8425 L402.549583,137.9675 C402.549583,137.9675 400.170833,137.61 399.524583,140.419583 C398.878333,143.229167 397.723333,144.544583 397.723333,144.544583 C397.723333,144.544583 393.75875,147.858333 393.543333,150.667917 L391.09125,152.180417 C391.09125,152.180417 385.39875,150.883333 384.101667,148.577917 C384.101667,148.577917 386.695833,167.167917 372.863333,162.630417 C372.863333,162.630417 388.355,169.404583 389.074583,170.339583 C389.794167,171.274583 394.551667,174.00625 398.87375,171.714583 C403.195833,169.422917 404.135417,165.806667 404.135417,165.806667 C404.135417,165.806667 408.315417,159.972083 408.4575,159.105833 C408.599583,158.239583 411.844583,157.23125 411.844583,157.23125 L418.04125,142.248333 L404.855,133.265 Z"/>
                <path id="Path" fill="#000000" d="M455.436667,112.86 L457.526667,103.349583 C457.526667,103.349583 458.443333,106.447917 459.40125,107.1675 C460.359167,107.887083 462.499583,109.54625 462.499583,109.54625 C462.499583,109.54625 465.597917,110.99 466.675,110.99 C467.752083,110.99 473.595833,112.5025 474.315417,113.281667 C475.035,114.060833 477.917917,113.497083 477.917917,113.497083 C477.917917,113.497083 480.296667,114.29 482.386667,114.794167 C484.476667,115.298333 485.485,118.75875 485.049583,120.124583 C484.696345,121.508758 485.076912,122.977399 486.057917,124.015833 C486.924167,124.882083 487.355,127.6825 487.355,127.6825 C488.416292,128.028011 489.297798,128.779351 489.807083,129.7725 C490.526667,131.358333 490.31125,134.814167 490.31125,134.814167 L479.577083,149.939167 C479.577083,149.939167 479.719167,155.77375 479.288333,157.070833 C478.8575,158.367917 480.800833,180.418333 480.800833,180.418333 L483.032917,218.317917 C483.032917,218.317917 480.08125,220.83875 479.430417,221.1275 C478.779583,221.41625 478.133333,207.725833 478.133333,207.221667 C478.133333,206.7175 461.49125,182.288333 461.49125,182.288333 C461.49125,182.288333 459.254583,178.685833 459.254583,177.892917 C459.254583,177.1 457.164583,169.82625 457.164583,169.82625 L454.006667,155.805833 L455.436667,112.86 Z" opacity="0.1"/>
                <path id="Path" fill="#65617D" d="M491.205,134.012083 C491.205,134.507083 491.1775,134.837083 491.1775,134.837083 L480.447917,149.962083 C480.447917,149.962083 480.594583,155.80125 480.16375,157.098333 C479.911667,157.85 480.461667,165.605 480.970417,171.97125 C481.3325,176.554583 481.67625,180.44125 481.67625,180.44125 L482.620417,196.519583 L483.90375,218.345417 C483.90375,218.345417 480.952083,220.86625 480.305833,221.155 C479.659583,221.44375 479.00875,207.753333 479.00875,207.244583 C479.00875,206.735833 462.352917,182.306667 462.352917,182.306667 C462.352917,182.306667 460.120833,178.699583 460.120833,177.906667 C460.120833,177.11375 458.030833,169.835417 458.030833,169.835417 L454.86375,155.7875 L456.302917,112.841667 L457.526667,103.33125 C457.526667,103.33125 459.327917,106.434167 460.276667,107.149167 C461.225417,107.864167 463.370417,109.527917 463.370417,109.527917 C463.370417,109.527917 466.46875,110.971667 467.550417,110.971667 C468.632083,110.971667 474.466667,112.484167 475.190833,113.263333 C475.915,114.0425 478.793333,113.47875 478.793333,113.47875 C478.793333,113.47875 481.1675,114.271667 483.2575,114.775833 C485.3475,115.28 486.355833,118.740417 485.925,120.10625 C485.569069,121.490428 485.949973,122.96037 486.933333,123.9975 C487.795,124.859167 488.230417,127.664167 488.230417,127.664167 C489.290965,128.011005 490.172022,128.761961 490.6825,129.754167 C491.172917,130.890833 491.21875,132.889167 491.205,134.012083 Z"/>
                <path id="Path" fill="#000000" d="M413.33875,326.924583 C412.215833,327.382917 411.088333,327.809167 409.960833,328.244583 C406.427083,327.213333 403.127083,325.99875 403.127083,325.99875 C406.545302,326.121025 409.954278,326.430097 413.33875,326.924583 Z" opacity="0.1"/>
                <path id="Path" fill="#000000" d="M447.43875,288.456667 C447.43875,288.456667 456.014167,290.473333 456.518333,291.84375 L447.43875,288.456667 Z" opacity="0.1"/>
                <path id="Path" fill="#000000" d="M414.365417,294.653333 C414.365417,294.653333 409.896667,295.950417 414.223333,298.544583 C418.55,301.13875 414.365417,294.653333 414.365417,294.653333 Z" opacity="0.1"/>
                <path id="Path" fill="#000000" d="M434.179167,225.39 C434.683333,225.39 442.539167,222.795833 445.275417,223.950833 C448.011667,225.105833 451.403333,225.10125 451.403333,225.10125 L434.179167,225.39 Z" opacity="0.1"/>
                <path id="Path" fill="#000000" d="M435.215,233.64 L435.137083,234.355 L428.417917,251.9275 C428.417917,251.9275 427.33625,257.257917 426.396667,260.282917 C425.807423,262.339163 425.339121,264.428157 424.994167,266.539167 L430.9525,229.661667 L435.215,233.64 Z" opacity="0.1"/>
                <path id="Path" fill="#3F3D56" d="M445.65125,202.57875 L442.86,202.624583 L442.772917,202.624583 L441.136667,195.36 C441.93875,195.323333 442.75,195.282083 443.56125,195.231667 L445.65125,202.57875 Z"/>
                <path id="Path" fill="#A5636D" d="M479.645833,193.765 L477.85375,195.245417 L471.881667,200.181667 C471.881667,200.181667 455.670417,208.830417 451.20625,200.6125 C447.269167,193.375417 465.648333,188.21 470.075833,187.0825 C470.67625,186.93125 471.02,186.853333 471.02,186.853333 L479.645833,193.765 Z"/>
                <path id="Path" fill="#000000" d="M410.405417,122.947917 C410.405417,122.947917 413.5725,124.391667 414.292083,126.408333 C415.011667,128.425 410.405417,122.947917 410.405417,122.947917 Z" opacity="0.1"/>
                <path id="Path" fill="#000000" d="M400.601667,144.5675 C400.601667,144.5675 395.990833,150.186667 397.851667,152.359167 C399.7125,154.531667 400.601667,144.5675 400.601667,144.5675 Z" opacity="0.1"/>
                <path id="Path" fill="#000000" d="M483.032917,126.119583 C483.032917,126.119583 478.710833,126.550417 478.564167,130.299583 L483.032917,126.119583 Z" opacity="0.1"/>
                <path id="Path" fill="#000000" d="M442.97,185.203333 C443.428333,184.7725 453.346667,170.078333 455.652083,171.370833 L442.97,185.203333 Z" opacity="0.1"/>
                <path id="Path" fill="#000000" d="M461.564583,89.6591667 C461.566966,92.4835434 460.869368,95.2644888 459.534167,97.7533333 L459.405833,97.7533333 C458.319583,97.5241667 457.755833,96.2591667 456.92625,95.4616667 C455.879204,94.4665611 454.315281,94.2473541 453.035,94.91625 C451.74646,95.6854709 451.005731,97.1189697 451.12375,98.615 C450.57375,96.3233333 450.747917,93.8529167 450.207083,91.5429167 C449.66625,89.2329167 448.0575,86.8908333 445.848333,86.8495833 C444.895,86.8495833 443.785833,87.2025 443.098333,86.4875 C442.68125,86.0566667 442.59875,85.3783333 442.287083,84.8558333 C440.705833,82.3029167 435.9025,83.5954167 433.940833,84.90625 C431.979167,86.2170833 429.70125,88.3070833 427.262917,89.43 C427.468051,80.0582012 435.159607,72.5872844 444.533406,72.6549291 C453.907206,72.7225738 461.49014,80.3037167 461.56,89.6775 L461.564583,89.6591667 Z" opacity="0.1"/>
                <path id="Path" fill="#4C3E42" d="M442.291667,84.4066667 C442.603333,84.9291667 442.685833,85.6075 443.102917,86.0383333 C443.790417,86.74875 444.899583,86.3820833 445.852917,86.4004167 C448.062083,86.4370833 449.675417,88.7791667 450.211667,91.0891667 C450.747917,93.3991667 450.57375,95.8558333 451.128333,98.16125 C451.012113,96.666811 451.752604,95.2355494 453.039583,94.4670833 C454.318205,93.797498 455.881311,94.016849 456.92625,95.0125 C457.755833,95.8008333 458.30125,97.0658333 459.410417,97.3041667 C460.519583,97.5425 461.54625,96.4883333 461.940417,95.3425 C462.334583,94.1966667 462.3025,92.9408333 462.559167,91.75375 C463.049583,89.5033333 464.51625,87.6608333 465.309167,85.525 C466.275716,82.9245625 466.249606,80.0590602 465.235833,77.4766667 C464.695,76.1016667 463.892917,74.9054167 463.342917,73.5533333 C462.517917,71.5 462.297917,69.1854167 461.289583,67.2283333 C459.59375,63.95125 455.597083,62.315 452.315417,63.5616667 C450.747917,64.1529167 449.386667,65.2941667 447.79625,65.8029167 C445.669583,66.4858333 443.391667,65.9725 441.187083,65.6654167 C438.9825,65.3583333 436.544167,65.3308333 434.770417,66.7791667 C432.730833,68.4475 432.171667,71.5825 430.255833,73.4158333 C429.449167,74.1858333 428.45,74.67625 427.602083,75.3866667 C426.754167,76.0970833 426.020833,77.1558333 426.117083,78.3108333 C426.245417,79.805 427.7075,81.1616667 427.166667,82.54125 C426.972336,82.9426455 426.699616,83.3010768 426.364583,83.5954167 C424.761149,85.2794703 423.567595,87.3105505 422.876667,89.5308333 C426.735833,90.73625 430.906667,86.4829167 433.927083,84.4891667 C435.911667,83.14625 440.715,81.8491667 442.291667,84.4066667 Z"/>
                <path id="Path" fill="#000000" d="M479.645833,193.765 L477.85375,195.245417 C476.2725,192.61 469.777917,187.348333 469.777917,187.348333 L470.0575,187.077917 C470.657917,186.926667 471.001667,186.84875 471.001667,186.84875 L479.645833,193.765 Z" opacity="0.1"/>
                <path id="Path" fill="#E7EFFD" d="M481.378333,191.11125 C481.378333,191.11125 480.732083,192.715417 480.0675,194.104167 C479.402917,195.492917 478.6925,196.74875 478.6375,195.726667 C478.564167,193.705417 470.20875,186.93125 470.20875,186.93125 L471.340833,185.83125 L472.65625,184.5525 L481.378333,191.11125 Z"/>
                <path id="Path" fill="#000000" d="M481.667083,180.445833 L482.61125,196.524167 C480.374583,193.045417 474.228333,184.121667 470.2775,184.410417 L479.86125,173.410417 C480.261629,172.967129 480.629264,172.495331 480.96125,171.99875 C481.323333,176.572917 481.667083,180.445833 481.667083,180.445833 Z" opacity="0.1"/>
                <path id="Path" fill="#000000" d="M481.378333,191.11125 C481.378333,191.11125 480.732083,192.715417 480.0675,194.104167 C477.555833,190.6575 474.109167,186.592083 471.359167,185.83125 L472.674583,184.5525 L481.378333,191.11125 Z" opacity="0.1"/>
                <path id="Path" fill="#65617D" d="M488.583333,132.806667 L491.1775,134.823333 C491.1775,134.823333 495.499583,134.896667 495.930417,138.49 C496.36125,142.083333 500.325833,143.751667 500.325833,143.751667 C500.325833,143.751667 503.282083,146.703333 503.282083,148.07375 C503.282083,149.444167 505.514167,151.891667 505.514167,152.107083 C505.514167,152.3225 507.6775,156.717917 507.38875,157.510833 C507.1,158.30375 509.680417,161.764167 508.90125,163.06125 C508.250343,164.224681 507.673232,165.427888 507.173333,166.66375 C507.173333,166.66375 503.78625,173.149167 502.05375,174.372917 C500.32125,175.596667 492.40125,185.9 492.40125,185.9 C492.40125,185.9 483.899167,195.699167 483.899167,198.733333 C483.899167,198.733333 475.6125,184.89625 470.712917,185.258333 L480.296667,174.235417 C480.296667,174.235417 481.95125,172.434167 482.024583,171.3525 C482.097917,170.270833 486.635417,165.297917 488.79875,165.0825 C488.79875,165.0825 489.15625,162.12625 488.22125,162.0575 C487.28625,161.98875 486.493333,159.67875 486.493333,159.67875 C486.493333,159.67875 480.15,152.185 480.076667,147.4275 C480.003333,142.67 488.583333,132.806667 488.583333,132.806667 Z"/>
                <path id="Path" fill="#000000" d="M492.40125,139.681667 C492.40125,139.681667 486.346667,144.145833 487.64375,145.589583 C488.940833,147.033333 492.40125,139.681667 492.40125,139.681667 Z" opacity="0.1"/>
                <path id="Path" fill="#000000" d="M492.69,158.11125 C492.69,158.11125 503.928333,154.50875 505.065,158.11125 L492.69,158.11125 Z" opacity="0.1"/>
                <path id="Path" fill="#000000" d="M413.39375,138.801667 C413.39375,138.801667 413.39375,155.228333 411.986667,156.850833 C410.579583,158.473333 413.39375,138.801667 413.39375,138.801667 Z" opacity="0.1"/>
                <path id="Path" fill="#000000" d="M478.34875,144.095417 L480.43875,149.966667 C480.43875,149.966667 481.268333,144.205417 478.34875,144.095417 Z" opacity="0.1"/>
                <g id="Group" fill="#000000" opacity="0.1" transform="translate(422.583333, 76.541667)">
                    <path id="Path" d="M4.84,4.57416667 C5.36708333,3.22208333 3.9875,1.8975 3.80416667,0.449166667 C3.62309693,0.857974219 3.54443634,1.30476638 3.575,1.75083333 C3.66666667,2.84625 4.49166667,3.86375 4.68875,4.87666667 C4.74837949,4.78070897 4.79901154,4.67944487 4.84,4.57416667 Z"/>
                    <path id="Path" d="M28.7329167,20.0933333 C28.215,17.8016667 28.36625,15.41375 27.84375,13.145 C27.32125,10.87625 25.6941667,8.48833333 23.485,8.45166667 C22.5316667,8.45166667 21.4225,8.8 20.735,8.08958333 C20.3179167,7.65875 20.2354167,6.98041667 19.92375,6.45791667 C18.3470833,3.905 13.54375,5.1975 11.5775,6.50833333 C8.63041667,8.46541667 4.58333333,12.5629167 0.802083333,11.6370833 C0.623333333,12.0725 0.45375,12.5125 0.311666667,12.96625 C4.17083333,14.1716667 8.34166667,9.91833333 11.3620833,7.92458333 C13.3283333,6.61833333 18.1270833,5.32125 19.7083333,7.87875 C20.02,8.40125 20.1025,9.07958333 20.5195833,9.51041667 C21.2070833,10.2208333 22.31625,9.85416667 23.2695833,9.8725 C25.47875,9.90916667 27.0920833,12.25125 27.6283333,14.56125 C28.1645833,16.87125 27.9904167,19.3279167 28.545,21.6333333 C28.5042598,21.1126037 28.5681536,20.5889867 28.7329167,20.0933333 Z"/>
                    <path id="Path" d="M39.5679167,17.3891667 C39.17375,18.535 38.1470833,19.5845833 37.0379167,19.3508333 C35.92875,19.1170833 35.3879167,17.8566667 34.5583333,17.0591667 C33.5095949,16.0669125 31.9466656,15.8496855 30.6670833,16.5183333 C29.4435026,17.2472679 28.711746,18.58268 28.7558333,20.00625 C29.0450936,19.1260393 29.648926,18.3834886 30.4516667,17.9208333 C31.7302884,17.251248 33.2933945,17.470599 34.3383333,18.46625 C35.1679167,19.2545833 35.7133333,20.5195833 36.8225,20.7579167 C37.9316667,20.99625 38.9583333,19.9420833 39.3525,18.79625 C39.5559377,18.1213698 39.6880489,17.4270178 39.7466667,16.7245833 C39.6989633,16.9491368 39.6392949,17.1709809 39.5679167,17.3891667 Z"/>
                    <path id="Path" d="M42.955,7.57625 C42.14375,9.71208333 40.6633333,11.5545833 40.205,13.8004167 C40.1041667,14.25875 40.0491667,14.7170833 39.9941667,15.1754167 C40.4845833,12.93875 41.9466667,11.1008333 42.7441667,8.96958333 C43.1055345,8.00980427 43.32928,7.00372107 43.40875,5.98125 C43.3000275,6.52410606 43.1482991,7.05745452 42.955,7.57625 Z"/>
                </g>
                <path id="Path" fill="url(#linearGradient-2)" d="M141.79,200.90125 C140.712484,201.345254 139.593124,201.679987 138.44875,201.900417 C136.449027,202.274669 134.419431,202.46643 132.385,202.473333 C132.444583,203.009583 132.490417,203.509167 132.53625,203.962917 C132.64625,205.209583 132.710417,206.066667 132.710417,206.066667 L130.560833,205.92 L112.8325,204.71 L102.465,203.174583 C102.965407,203.846224 103.508912,204.484651 104.092083,205.085833 C104.696057,205.725145 105.394784,206.267741 106.16375,206.694583 C106.16375,206.694583 115.518333,214.270833 117.13625,214.339583 C117.365417,214.339583 117.43875,214.56875 117.402083,214.930833 C121.339167,214.930833 133.58125,215.50375 130.185,222.319167 C129.62311,223.534059 128.632382,224.498672 127.402917,225.027917 C123.475,226.691667 117.54875,223.69875 114.49625,221.860833 C114.198333,222.442917 113.914167,222.98375 113.662083,223.446667 C113.144167,224.422917 112.782083,225.069167 112.782083,225.069167 L112.475,224.849167 L96.745,213.6475 L93.2983333,210.723333 C92.2859005,210.677104 91.2833713,210.503086 90.3145833,210.205417 L89.85625,210.05875 C89.8363323,210.098663 89.8194782,210.140032 89.8058333,210.1825 C89.6803303,210.540189 89.58677,210.908295 89.52625,211.2825 C89.52625,211.3375 89.52625,211.3925 89.52625,211.4475 C89.4619217,211.874384 89.4190899,212.304232 89.3979167,212.735417 C89.3979167,213.02875 89.375,213.340417 89.375,213.652083 C89.3475,219.894583 91.85,229.9275 91.85,229.9275 C91.85,229.9275 98.3354167,246.46875 96.0345833,250.286667 C95.9160047,250.480324 95.7602268,250.648564 95.57625,250.781667 C94.765,251.368333 94.2791667,252.413333 94.0270833,253.655417 C93.17,257.707083 94.6733333,263.89 94.6733333,263.89 C94.6733333,263.89 94.5358333,264.119167 94.3020833,264.476667 C93.7963299,265.285182 93.2261454,266.051559 92.5970833,266.768333 C92.5008333,266.878333 92.4,266.992917 92.2945833,267.098333 C92.0107678,267.396569 91.7042972,267.672392 91.3779167,267.923333 C91.4375,268.102083 91.5016667,268.285417 91.5658333,268.4825 C91.63,268.679583 91.7125,268.986667 91.7766667,269.261667 C92.2870672,271.514229 92.0869161,273.869607 91.20375,276.00375 C90.6030388,277.559447 90.2145482,279.188949 90.04875,280.848333 C89.7507052,283.886634 89.8292166,286.950121 90.2825,289.969167 C90.21375,289.9325 90.1541667,289.895833 90.0854167,289.86375 C85.01625,287.214583 80.0188889,284.447778 75.0933333,281.563333 C73.6495833,280.729167 72.215,279.876667 70.7895833,279.019583 C69.0356944,277.962361 67.2894444,276.892917 65.5508333,275.81125 C63.2591667,274.38125 60.9675,272.914583 58.6758333,271.415833 L57.6033333,270.700833 L57.1908333,270.42125 C56.60875,270.031667 56.0358333,269.642083 55.4583333,269.247917 C53.0887308,266.185603 50.9237513,262.970287 48.9775,259.622917 C48.6520833,259.040833 48.35875,258.48625 48.1158333,257.9775 L48.1158333,257.95 L47.96,257.615417 L47.31375,257.38625 C46.0991667,256.96 45.3291667,256.662083 45.3291667,256.662083 C45.8897343,254.6171 46.158227,252.503105 46.1266667,250.382917 C46.09,246.257917 44.94875,240.757917 40.24625,236.34875 C33.2979167,229.780833 32.34,223.295417 32.2391667,220.806667 C32.2391667,220.6325 32.2391667,220.476667 32.2391667,220.348333 C32.2368644,220.138683 32.2460448,219.929063 32.2666667,219.720417 L32.7983333,219.211667 C31.4508333,218.94125 30.1858333,218.8175 30.1858333,218.8175 C30.1858333,218.8175 34.7966667,202.134167 42.5608333,196.565417 C46.4108333,193.815417 49.6145833,189.232083 51.87875,185.299583 C56.0090988,178.192556 60.6472717,171.393068 65.7570833,164.954167 L67.155,163.189583 L67.5629167,162.671667 L67.65,162.56625 L67.76,162.419583 C67.5705556,162.132361 67.3780556,161.848194 67.1825,161.567083 L67.0541667,161.379167 C66.4445833,160.4625 65.9220833,159.545833 66.0045833,158.450417 C66.0045833,158.450417 66.0045833,158.4275 66.0045833,158.418333 C66.0045833,158.340417 66.0045833,158.267083 66.0045833,158.184583 C66.0240333,158.001951 66.0577473,157.821121 66.1054167,157.64375 C66.1210694,157.672946 66.1394871,157.700572 66.1604167,157.72625 C66.8158333,155.819583 69.34125,154.97625 71.2020833,153.922083 C75.5883333,151.45625 77.4583333,146.061667 78.3979167,141.042917 C79.1266667,137.137917 79.7316667,132.760833 82.7566667,130.25375 C84.7091667,128.640417 87.34,128.10875 89.3154167,126.509167 C90.4583352,125.499187 91.4033122,124.285327 92.1020833,122.929583 C92.5604167,122.150417 92.9545833,121.34375 93.3808333,120.564583 C95.3333333,117.035417 97.9,113.75375 101.29625,111.640833 C104.6925,109.527917 109.000833,108.7075 112.7225,110.128333 C114.157083,110.67375 115.4725,111.503333 116.8475,112.112917 C117.696513,112.459159 118.573603,112.732099 119.469167,112.92875 C122.269583,113.584167 125.216667,113.75375 127.8475,114.9225 C132.12375,116.82 134.905833,121.018333 137.445,125.005833 C138.760417,127.068333 140.8275,130.084167 142.000833,133.118333 C142.000833,133.008333 142.000833,132.9075 142.000833,132.802083 C142.566593,134.138201 142.877493,135.568339 142.9175,137.01875 C142.940411,137.636162 142.874031,138.253647 142.720417,138.852083 C142.29875,140.410417 141.221667,141.395833 139.869583,142.12 L139.654167,142.225417 C139.365057,142.374005 139.068249,142.507109 138.765,142.624167 C138.719167,142.87625 138.66875,143.132917 138.61375,143.380417 C138.590833,143.485833 138.563333,143.595833 138.535833,143.70125 C138.47625,143.957917 138.4075,144.21 138.334167,144.462083 C137.354414,147.737932 135.44356,150.658354 132.834167,152.867917 C131.027056,154.41389 128.938599,155.596623 126.683333,156.35125 C126.522917,156.40625 126.353333,156.4475 126.192917,156.497917 C126.056587,156.881516 125.861788,157.241741 125.615417,157.565833 C125.436888,157.794272 125.227046,157.9964 124.992083,158.16625 C124.845709,158.265469 124.692556,158.354298 124.53375,158.432083 C124.494858,158.456509 124.453348,158.476495 124.41,158.491667 C122.76,159.234167 120.500417,158.652083 118.91,157.542917 C118.8275,157.487917 118.749583,157.42375 118.671667,157.364167 C118.671667,157.625417 118.630417,157.900417 118.584583,158.184583 C118.53875,158.46875 118.506667,158.642917 118.45625,158.88125 C118.405833,159.119583 118.3875,159.234167 118.355417,159.40375 C118.323333,159.573333 118.300417,159.687917 118.272917,159.820833 L118.217917,160.054583 C117.309959,164.478419 115.577895,168.691968 113.112083,172.475417 C112.754494,173.017248 112.367381,173.539008 111.9525,174.038333 L110.815833,175.770833 L110.815833,176.004583 C111.03125,179.992083 109.720417,183.709167 107.86875,186.908333 C107.24871,187.968969 106.567707,188.99277 105.829167,189.974583 L106.085833,190.125833 C108.6525,191.587917 113.7125,194.186667 116.911667,193.966667 C116.911667,193.966667 129.011667,195.529583 130.414167,194.745833 C130.606667,194.635833 130.794583,194.787083 130.96875,195.1125 C132.925833,193.920833 137.426667,191.395417 140.97875,191.060833 C143.462917,190.8225 145.484167,191.652083 145.86,194.7275 C146.235833,197.802917 144.384167,199.7875 141.79,200.90125 Z"/>
                <path id="Path" fill="#FBBEBE" d="M75.55625,263.926667 C77.1261365,266.60483 77.3697672,269.858316 76.21625,272.740417 C75.1025,275.531667 74.97875,279.010417 75.0933333,281.563333 C73.6495833,280.729167 72.215,279.876667 70.7895833,279.019583 C69.0356944,277.962361 67.2894444,276.892917 65.5508333,275.81125 C63.2591667,274.38125 60.9675,272.914583 58.6758333,271.415833 L57.6033333,270.700833 L57.1908333,270.42125 C57.1547857,270.354558 57.1100943,270.292915 57.0579167,270.237917 C56.44375,269.587083 52.8641667,264.45375 50.7375,260.557917 C50.3525,259.842917 50.0179167,259.182917 49.7520833,258.577917 L49.7520833,258.545833 C49.29375,257.528333 49.0783333,256.7125 49.2158333,256.34125 C49.5525345,255.160708 50.3550194,254.167943 51.43875,253.59125 C54.07875,252.21625 58.31375,253.485833 62.5029167,255.507083 C66.1072146,257.328782 69.5616196,259.432995 72.83375,261.8 L73.205,262.070417 L73.2416667,262.097917 C74.6166667,263.074167 75.4141667,263.720417 75.4141667,263.720417 C75.4141667,263.720417 75.47375,263.79375 75.55625,263.926667 Z"/>
                <path id="Path" fill="#000000" d="M74.8595833,263.317083 C76.4324289,265.997657 76.6761141,269.255255 75.5195833,272.14 C74.4058333,274.93125 74.2820833,278.41 74.3966667,280.9675 C72.9544444,280.127222 71.5198611,279.277778 70.0929167,278.419167 C68.3359722,277.361944 66.5897222,276.2925 64.8541667,275.210833 C62.5625,273.77625 60.2708333,272.309583 58.0020833,270.810833 L56.9295833,270.095833 L56.5170833,269.81625 C56.4799018,269.750278 56.4353073,269.688768 56.3841667,269.632917 C55.77,268.986667 52.1904167,263.853333 50.06375,259.952917 C49.67875,259.237917 49.3441667,258.577917 49.0783333,257.972917 L49.0783333,257.945417 C48.62,256.923333 48.4045833,256.112083 48.5420833,255.73625 C48.8802174,254.556452 49.6822977,253.564188 50.765,252.98625 C53.405,251.61125 57.64,252.880833 61.8291667,254.902083 C65.4334646,256.723782 68.8878696,258.827995 72.16,261.195 L72.53125,261.465417 L72.5679167,261.492917 C73.9429167,262.469167 74.7404167,263.115417 74.7404167,263.115417 C74.7404167,263.115417 74.7770833,263.184167 74.8595833,263.317083 Z" opacity="0.05"/>
                <path id="Path" fill="#FBBEBE" d="M91.7354167,274.431667 C91.6020972,275.216361 91.3854549,275.984596 91.0891667,276.723333 C90.5816162,278.052718 90.2324052,279.437255 90.04875,280.848333 C89.6878154,283.843409 89.7001318,286.87171 90.0854167,289.86375 C85.01625,287.214583 80.0188889,284.447778 75.0933333,281.563333 C73.6495833,280.729167 72.215,279.876667 70.7895833,279.019583 C70.46875,276.58125 70.0104167,274.43625 69.4925,273.909167 C68.8141667,273.194167 64.94125,267.6575 62.535,263.289583 C62.2233333,262.739583 61.9529167,262.207917 61.7008333,261.70375 L61.7008333,261.680833 C61.6045833,261.479167 61.5129167,261.286667 61.4258333,261.094167 C60.8070833,259.765 60.4770833,258.729167 60.6420833,258.229583 C60.9637061,257.143265 61.6256399,256.188924 62.5304167,255.507083 C66.5958333,252.537083 75.0475,256.556667 81.5375,260.54875 L81.6979167,260.645 C82.92625,261.410417 84.0904167,262.166667 85.1354167,262.8725 L85.745,263.285 C88.4308333,265.118333 90.21375,266.54375 90.21375,266.54375 C90.6566926,267.226993 91.0123739,267.962992 91.2725,268.734583 C91.4255868,269.169692 91.5526174,269.613533 91.6529167,270.06375 C91.9700793,271.499812 91.9981246,272.984652 91.7354167,274.431667 Z"/>
                <path id="Path" fill="#000000" d="M50.7604167,260.557917 C54.0925,261.722083 59.0104167,263.266667 61.6870833,263.307917 C61.9642697,263.316418 62.241691,263.302624 62.5166667,263.266667 C64.4004167,263.01 70.2075,263.4225 75.5379167,263.90375 C77.67375,264.091667 79.7316667,264.28875 81.4320833,264.462917 L85.70375,264.92125 L85.70375,263.27125 C84.5166667,262.455417 83.1370833,261.547917 81.66125,260.63125 C75.1483333,256.607083 66.59125,252.495833 62.49375,255.48875 C56.7233333,252.702083 50.8658333,251.36375 49.2020833,256.322917 C49.0095833,256.969167 49.7108333,258.61 50.7604167,260.557917 Z" opacity="0.1"/>
                <path id="Path" fill="#5C5C8E" d="M34.7508333,222.145 C34.8425,224.615417 35.7683333,231.0275 42.4004167,237.50375 C50.86125,245.75375 47.2541667,257.615417 47.2541667,257.615417 C47.2541667,257.615417 57.3375,261.575417 61.6870833,261.680833 C61.9642697,261.689335 62.241691,261.675541 62.5166667,261.639583 C65.1245833,261.2775 75.4920833,262.235417 81.4504167,262.835833 L85.7220833,263.294167 L85.7220833,228.2225 L38.9995833,216.874167 L34.7691667,221.090833 C34.7405856,221.441472 34.734462,221.79358 34.7508333,222.145 Z"/>
                <g id="Group" fill="#000000" opacity="0.1" transform="translate(34.375000, 216.791667)">
                    <path id="Path" d="M50.5816667,46.0670833 L51.3470833,46.145 L51.3470833,46.5208333 L47.0754167,46.0625 C42.7991667,45.6316667 36.2633333,45.0175 31.9504167,44.83875 C34.9341667,44.5729167 44.81125,45.485 50.5816667,46.0670833 Z"/>
                    <path id="Path" d="M0.394166667,4.32208333 L4.62458333,0.105416667 L7.44791667,0.788333333 L3.92333333,4.32208333 C3.90086053,4.67311291 3.90086053,5.02522042 3.92333333,5.37625 C4.015,7.84666667 4.94083333,14.2541667 11.5729167,20.735 C20.03375,28.985 16.4266667,40.8420833 16.4266667,40.8420833 C16.4266667,40.8420833 24.7683333,44.1191667 29.54875,44.7929167 C29.089261,44.7909943 28.6300803,44.8170145 28.17375,44.8708333 C27.8987743,44.9067907 27.621353,44.9205851 27.3441667,44.9120833 C22.9945833,44.8020833 12.91125,40.8420833 12.91125,40.8420833 C12.91125,40.8420833 16.5183333,28.985 8.0575,20.735 C1.39333333,14.2541667 0.4675,7.84666667 0.375833333,5.39 C0.358871132,5.03400546 0.364995074,4.67728588 0.394166667,4.32208333 Z"/>
                </g>
                <path id="Path" fill="#FBBEBE" d="M128.131667,197.376667 C128.131667,197.376667 142.262083,187.5775 143.293333,196.395833 C144.324583,205.214167 128.131667,203.976667 128.131667,203.976667 L128.131667,197.376667 Z"/>
                <path id="Path" fill="#F7CDDD" d="M103.766667,190.8775 C103.766667,190.8775 111.407083,195.919167 115.6375,195.62125 C115.6375,195.62125 127.1875,197.170417 128.530417,196.395833 C129.873333,195.62125 130.698333,207.588333 130.698333,207.588333 L111.71875,206.245417 L99.5454167,204.389167 C99.5454167,204.389167 93.45875,200.676667 93.45875,197.4775 C93.45875,194.278333 103.766667,190.8775 103.766667,190.8775 Z"/>
                <path id="Path" fill="#202A25" d="M103.766667,190.8775 C103.766667,190.8775 111.407083,195.919167 115.6375,195.62125 C115.6375,195.62125 127.1875,197.170417 128.530417,196.395833 C129.873333,195.62125 130.698333,207.588333 130.698333,207.588333 L111.71875,206.245417 L99.5454167,204.389167 C99.5454167,204.389167 93.45875,200.676667 93.45875,197.4775 C93.45875,194.278333 103.766667,190.8775 103.766667,190.8775 Z"/>
                <path id="Path" fill="#FBBEBE" d="M114.968333,216.379167 C114.968333,216.379167 132.15125,215.66875 128.30125,223.67125 C124.45125,231.67375 111.434583,221.957083 111.434583,221.957083 L114.968333,216.379167 Z"/>
                <path id="Path" fill="#5C5C8E" d="M97.6891667,199.33375 C97.6891667,199.33375 111.613333,188.915833 109.65625,176.229167 C107.699167,163.5425 97.6891667,185.9275 97.6891667,185.9275 L97.6891667,199.33375 Z"/>
                <path id="Path" fill="#FBBEBE" d="M101.548333,141.8175 C101.550991,146.381127 103.325731,150.765392 106.498333,154.045833 C108.209468,155.812518 110.269914,157.203319 112.548333,158.129583 C113.283026,158.436862 114.039907,158.688134 114.8125,158.88125 C115.633219,159.093059 116.467964,159.246223 117.310417,159.339583 C117.915417,159.399167 118.525,159.43125 119.14375,159.43125 C121.113289,159.427176 123.067752,159.087741 124.923333,158.4275 C133.391779,155.485925 138.295984,146.649068 136.311846,137.906606 C134.327708,129.164145 126.08933,123.310051 117.180739,124.312267 C108.272148,125.314483 101.540407,132.852715 101.548333,141.8175 Z"/>
                <path id="Path" fill="#000000" d="M34.7508333,222.145 C36.3275,222.43375 38.2754167,222.965417 38.2754167,223.78125 C38.2754167,225.15625 60.2754167,232.585833 60.2754167,232.585833 C60.2754167,232.585833 59.4504167,234.50625 61.6504167,237.810833 C63.8504167,241.115417 81.7391667,260.090417 81.7391667,260.090417 L81.6795833,260.649583 L81.4504167,262.835833 L80.3595833,273.290417 C80.3595833,273.290417 87.2345833,270.815417 89.4345833,271.090417 C90.145,271.1775 90.9195833,270.72375 91.63,270.06375 C91.3685149,268.814776 90.8824377,267.623654 90.1954167,266.548333 C90.1954167,266.548333 88.4125,265.145833 85.7220833,263.289583 L85.7220833,228.2225 L38.9995833,216.874167 L34.7691667,221.090833 C34.7405856,221.441472 34.734462,221.79358 34.7508333,222.145 Z" opacity="0.1"/>
                <path id="Path" fill="#202A25" d="M32.7708333,220.20625 C32.7708333,220.20625 38.2708333,220.751667 38.2708333,222.13125 C38.2708333,223.510833 60.2708333,230.935833 60.2708333,230.935833 C60.2708333,230.935833 59.4458333,232.85625 61.6458333,236.160833 C63.8458333,239.465417 81.7345833,258.440417 81.7345833,258.440417 L80.3595833,271.640417 C80.3595833,271.640417 87.2345833,269.165417 89.4345833,269.440417 C90.42,269.564167 91.50625,268.652083 92.4045833,267.607083 C93.149769,266.726014 93.8139864,265.779543 94.3891667,264.779167 C94.3891667,264.779167 91.9095833,254.32 95.2141667,251.845 C98.51875,249.37 91.6391667,231.22 91.6391667,231.22 C91.6391667,231.22 88.5270833,218.313333 89.44375,212.776667 C89.5020856,212.407838 89.5910034,212.044502 89.7095833,211.690417 C89.7095833,211.649167 89.7325,211.607917 89.7508333,211.566667 C91.7125,206.2775 112.814167,161.90625 112.814167,161.90625 C112.800607,160.647768 112.711838,159.391222 112.548333,158.143333 C112.507083,157.795 112.452083,157.432917 112.383333,157.070833 C112.27684,156.411226 112.134547,155.7579 111.957083,155.11375 C111.837917,154.692083 111.709583,154.28875 111.558333,153.90375 C110.9075,152.22625 109.908333,150.938333 108.414167,150.90625 C108.414167,150.90625 106.764167,149.072917 102.914167,148.587083 C100.0725,148.215833 96.0391667,148.587083 90.5391667,150.90625 C77.6141667,156.40625 74.5891667,156.68125 74.5891667,156.68125 L68.09,165.1925 L66.7516667,166.943333 C61.86017,173.323739 57.4320312,180.046362 53.50125,187.059583 C51.3379167,190.94625 48.27625,195.479167 44.605,198.201667 C37.1754167,203.70625 32.7708333,220.20625 32.7708333,220.20625 Z"/>
                <path id="Path" fill="#000000" d="M80.9783333,188.4025 C80.9783333,188.4025 62.6175,192.94 55.4995833,204.389167 L80.9783333,188.4025 Z" opacity="0.1"/>
                <path id="Path" fill="#000000" d="M75.3041667,208.514167 C75.3041667,208.514167 71.8345833,231.825 72.7970833,233.580417 C73.7595833,235.335833 75.3041667,208.514167 75.3041667,208.514167 Z" opacity="0.1"/>
                <path id="Path" fill="#000000" d="M76.54625,220.48125 C77.8845833,222.232083 83.3066667,235.748333 83.3066667,235.748333 L81.7391667,258.440417 L80.3641667,271.640417 C80.3641667,271.640417 87.2391667,269.165417 89.44375,269.440417 C90.4245833,269.564167 91.5154167,268.656667 92.41375,267.607083 C90.98375,259.875 87.93125,243.700417 87.3720833,243.38875 C86.6433333,242.97625 82.9308333,229.977917 82.73375,226.36625 C82.5366667,222.754583 77.3666667,214.614583 77.3666667,214.614583 C77.3666667,214.614583 75.2033333,218.730417 76.54625,220.48125 Z" opacity="0.1"/>
                <path id="Path" fill="#000000" d="M81.7391667,198.201667 C82.07375,199.232917 82.6054167,205.214167 82.6054167,205.214167 C82.98125,210.489583 86.96875,212.212917 89.44375,212.762917 C89.5020856,212.394088 89.5910034,212.030752 89.7095833,211.676667 C91.3595833,207.00625 112.814167,161.8925 112.814167,161.8925 C112.791963,159.602817 112.504348,157.32343 111.957083,155.1 C107.286667,153.725 99.8891667,155.8425 99.8891667,155.8425 C97.7533333,155.562917 90.7820833,169.4275 90.7820833,169.4275 C90.7820833,169.4275 86.1345833,180.047083 85.6258333,181.490833 C85.1170833,182.934583 85.6258333,185.313333 85.4195833,186.138333 C85.2133333,186.963333 83.0408333,187.678333 82.73375,188.819583 C82.4266667,189.960833 82.6283333,192.215833 82.4220833,192.628333 C82.2158333,193.040833 81.3816667,197.170417 81.7391667,198.201667 Z" opacity="0.1"/>
                <path id="Path" fill="#202A25" d="M83.3891667,197.376667 C83.7283333,198.407917 84.2554167,204.389167 84.2554167,204.389167 C84.5670833,208.78 87.3904167,210.709583 89.7554167,211.552917 C90.8174701,211.932217 91.929175,212.154558 93.0554167,212.212917 L96.37375,215.09125 L111.686667,226.389167 C111.686667,226.389167 117.3975,215.8475 115.848333,215.77875 C114.299167,215.71 105.36625,208.21625 105.36625,208.21625 C102.61625,206.75875 99.89375,201.882083 98.6241667,199.379583 C98.6991077,199.077955 98.7542255,198.771745 98.7891667,198.462917 C99.34375,193.7925 110.89375,175.912917 110.89375,175.912917 C110.89375,175.912917 115.357917,170.655833 117.099583,160.91625 C117.15,160.69625 117.182083,160.457917 117.223333,160.233333 C117.272705,159.929953 117.303319,159.623816 117.315,159.316667 C117.52125,155.572083 114.79875,154.210833 111.562917,153.885417 C109.881675,153.754706 108.19121,153.806957 106.52125,154.04125 C104.850719,154.249991 103.196728,154.574663 101.57125,155.012917 C100.19625,154.834167 96.7770833,160.58625 94.5404167,164.660833 C93.335,166.87 92.46875,168.597917 92.46875,168.597917 C92.46875,168.597917 87.7983333,179.222083 87.2758333,180.665833 C86.7533333,182.109583 87.2758333,184.48375 87.0695833,185.313333 C86.8633333,186.142917 84.6908333,186.853333 84.3883333,187.994583 C84.0858333,189.135833 84.2783333,191.390833 84.0720833,191.803333 C83.8658333,192.215833 83.0408333,196.345417 83.3891667,197.376667 Z"/>
                <path id="Path" fill="#000000" d="M65.6195833,173.598333 C68.5254167,176.586667 73.2645833,176.595833 77.0504167,175.07875 C80.83625,173.561667 84.0491667,170.793333 87.5645833,168.662083 C89.85625,167.287083 92.2579167,166.1275 94.50375,164.692917 C94.83375,164.4775 95.1545833,164.262083 95.46625,164.042083 C98.0604167,162.20875 100.301667,159.8575 102.982917,158.175417 C104.779944,156.986604 106.870426,156.317269 109.02375,156.24125 C110.017248,156.231235 111.001011,156.437684 111.906667,156.84625 C112.064774,156.914996 112.21792,156.994631 112.365,157.084583 C113.246251,157.594655 114.061997,158.210313 114.794167,158.917917 C115.550417,159.600833 116.279167,160.329583 117.085833,160.962083 C117.13625,160.742083 117.168333,160.50375 117.209583,160.279167 C117.258955,159.975786 117.289569,159.66965 117.30125,159.3625 C117.90625,159.422083 118.515833,159.454167 119.134583,159.454167 C121.108524,159.443779 123.066214,159.096572 124.923333,158.4275 C124.923333,158.354167 124.950833,158.27625 124.964583,158.202917 C125.624583,154.737917 126.797917,151.066667 129.602917,149.11875 C131.220833,147.986667 133.805833,147.528333 136.0425,146.666667 C138.174008,139.242835 135.216208,131.296766 128.749275,127.07357 C122.282343,122.850373 113.817606,123.337014 107.877267,128.273508 C101.936929,133.210003 99.9092504,141.442688 102.8775,148.573333 C100.035833,148.202083 96.0025,148.573333 90.5025,150.8925 C77.5775,156.3925 74.5525,156.6675 74.5525,156.6675 L68.09,165.1925 C68.79125,166.265 69.5841667,167.32375 69.6575,168.575 C69.8041667,170.894167 67.5675,172.49375 65.6195833,173.598333 Z" opacity="0.1"/>
                <path id="Path" fill="#7C5C5C" d="M129.625833,147.473333 C126.834583,149.425833 125.6475,153.0925 124.9875,156.552917 C124.78125,157.634583 124.584167,158.775833 123.924167,159.632917 C122.44375,161.553333 119.464583,161.007917 117.530417,159.632917 C115.59625,158.257917 114.074583,156.167917 111.915833,155.191667 C109.046667,153.899167 105.677917,154.843333 102.996667,156.525417 C100.315417,158.2075 98.0695833,160.55875 95.4754167,162.3875 C92.9683333,164.156667 90.1725,165.417083 87.56,167.0075 C84.0491667,169.147917 80.8408333,171.911667 77.0504167,173.424167 C73.26,174.936667 68.5254167,174.936667 65.6241667,171.948333 C67.5720833,170.866667 69.80875,169.267083 69.6575,166.9525 C69.50625,164.637917 66.8066667,162.900833 66.99,160.535833 C67.1733333,158.170833 69.9645833,157.226667 71.9675,156.0625 C76.16125,153.624167 77.9258333,148.270833 78.8425,143.320833 C79.5391667,139.457083 80.1120833,135.135 83.0041667,132.655417 C84.865,131.055833 87.3904167,130.533333 89.265,128.952083 C91.0433333,127.44875 92.015,125.170833 93.1516667,123.07625 C95.0170833,119.579167 97.4645833,116.334167 100.705,114.244167 C103.945417,112.154167 108.065833,111.3475 111.6225,112.754583 C112.9975,113.290833 114.225833,114.129583 115.573333,114.711667 C118.919167,116.16 122.755417,115.9675 126.07375,117.489167 C130.1575,119.368333 132.81125,123.520833 135.240417,127.4625 C137.316667,130.83125 141.3775,136.794167 140.240833,141.148333 C139.08125,145.589583 132.655417,145.35125 129.625833,147.473333 Z"/>
                <g id="Group" fill="#000000" opacity="0.1" transform="translate(65.541667, 134.750000)">
                    <path id="Path" d="M1.44833333,25.4970833 C1.46319565,25.3156669 1.4954266,25.1360944 1.54458333,24.9608333 C2.2825,26.125 3.20375,27.2525 3.29083333,28.6275 C3.31188508,28.9428278 3.28562192,29.2595306 3.21291667,29.5670833 C2.3925,28.2470833 1.33375,27.0141667 1.44833333,25.4970833 Z"/>
                    <path id="Path" d="M10.68375,35.0945833 C14.4741667,33.5729167 17.6825,30.8091667 21.1933333,28.6779167 C23.8058333,27.0875 26.6016667,25.8270833 29.10875,24.0579167 C31.7029167,22.2245833 33.94875,19.8733333 36.63,18.1958333 C39.31125,16.5183333 42.68,15.5695833 45.5491667,16.8620833 C47.7079167,17.8383333 49.2158333,19.9054167 51.16375,21.3033333 C53.1116667,22.70125 56.0770833,23.2466667 57.5575,21.32625 C58.2220833,20.4691667 58.4145833,19.3325 58.6208333,18.2508333 C59.2808333,14.7858333 60.4541667,11.1191667 63.2591667,9.16666667 C66.2933333,7.04916667 72.7145833,7.2875 73.87875,2.81875 C74.0726876,2.02594082 74.1239037,1.20493192 74.03,0.394166667 C74.7770833,2.37875 75.1575,4.37708333 74.7083333,6.11875 C73.5395833,10.5875 67.1183333,10.3491667 64.0841667,12.4666667 C61.2975,14.4191667 60.1058333,18.0858333 59.4458333,21.5508333 C59.2395833,22.6325 59.0470833,23.77375 58.3870833,24.62625 C56.9020833,26.5466667 53.9229167,26.00125 51.9704167,24.6033333 C50.0179167,23.2054167 48.5145833,21.1383333 46.3558333,20.1620833 C43.4866667,18.8695833 40.1179167,19.8183333 37.4366667,21.4958333 C34.7554167,23.1733333 32.5095833,25.5291667 29.9154167,27.3579167 C27.4083333,29.1316667 24.6125,30.3875 22,31.9779167 C18.4891667,34.1229167 15.2808333,36.8820833 11.4904167,38.3945833 C7.7,39.9070833 2.96541667,39.9025 0.0641666667,36.9141667 C0.813833271,36.5081364 1.5255733,36.0356882 2.19083333,35.5025 C4.84,36.4695833 8.0025,36.1670833 10.68375,35.0945833 Z"/>
                </g>
                <path id="Path" fill="#17C671" d="M374.715,124.85 L355.923333,105.952917 C354.062563,104.050257 351.518807,102.969793 348.857556,102.951719 C346.196306,102.933644 343.638109,103.979457 341.751667,105.856667 L223.749167,222.86 L173.855,172.57625 C169.997156,168.663171 163.697695,168.618029 159.784167,172.475417 L140.790833,191.267083 C136.884765,195.168157 136.841863,201.484981 140.694583,205.43875 L216.46625,281.80625 C220.366063,285.713601 226.682898,285.758546 230.637917,281.907083 L374.609583,139.017083 C376.512058,137.157714 377.593279,134.615625 377.613073,131.955498 C377.632867,129.295372 376.589594,126.737475 374.715,124.85 Z"/>
            </g>
        </g>
    </g>
</svg>
