<?xml version="1.0" encoding="UTF-8"?>
<svg width="528px" height="426px" viewBox="0 0 528 426" version="1.1" xmlns="http://www.w3.org/2000/svg" xmlns:xlink="http://www.w3.org/1999/xlink">
    <!-- Generator: Sketch 52.1 (67048) - http://www.bohemiancoding.com/sketch -->
    <title>undraw_warning_cyit</title>
    <desc>Created with Sketch.</desc>
    <defs>
        <linearGradient x1="-0.0103373456%" y1="50.0146235%" x2="100.004589%" y2="50.0146235%" id="linearGradient-1">
            <stop stop-color="#808080" stop-opacity="0.25" offset="0%"></stop>
            <stop stop-color="#808080" stop-opacity="0.12" offset="54%"></stop>
            <stop stop-color="#808080" stop-opacity="0.1" offset="100%"></stop>
        </linearGradient>
        <linearGradient x1="100.028957%" y1="49.9753114%" x2="-0.000520432209%" y2="49.9753114%" id="linearGradient-2">
            <stop stop-color="#808080" stop-opacity="0.25" offset="0%"></stop>
            <stop stop-color="#808080" stop-opacity="0.12" offset="54%"></stop>
            <stop stop-color="#808080" stop-opacity="0.1" offset="100%"></stop>
        </linearGradient>
    </defs>
    <g id="Symbols" stroke="none" stroke-width="1" fill="none" fill-rule="evenodd">
        <g id="Illustrations-/-Warning" transform="translate(0.000000, -1.000000)">
            <g id="undraw_warning_cyit" transform="translate(0.000000, 1.000000)">
                <ellipse id="Oval" fill="#FFB400" opacity="0.1" cx="271.406312" cy="212.907947" rx="238.433146" ry="212.907947"></ellipse>
                <ellipse id="Oval" fill="#FFB400" opacity="0.1" cx="87.9148112" cy="321.816663" rx="87.9148112" ry="13.6340456"></ellipse>
                <ellipse id="Oval" fill="#FFB400" opacity="0.1" cx="130.170145" cy="393.336591" rx="34.1947725" ry="7.06761104"></ellipse>
                <ellipse id="Oval" fill="#FFB400" opacity="0.1" cx="363.824201" cy="366.14521" rx="34.1947725" ry="7.06761104"></ellipse>
                <ellipse id="Oval" fill="#FFB400" opacity="0.1" cx="247.791985" cy="357.855342" rx="55.6061181" ry="9.42518607"></ellipse>
                <ellipse id="Oval" fill="#FFB400" opacity="0.1" cx="411.635547" cy="311.199904" rx="115.981104" ry="18.1753181"></ellipse>
                <path d="M24.0385673,279.477479 C18.7350026,289.800465 19.3770264,302.177226 25.7201936,311.895414 C26.7424589,313.429628 27.6829429,314.534262 28.4343078,314.825762 C32.0377928,316.242353 39.2549855,319.725018 39.2549855,319.725018 L56.6334947,312.892653 C56.6334947,312.892653 59.4549468,297.95964 62.1230591,285.138727 C63.9426912,276.393709 65.7009874,268.635702 66.4216844,267.275366 C68.2208712,263.925666 66.4216844,227.457407 66.4216844,227.457407 C66.4216844,227.457407 49.0431752,226.291405 44.2640852,239.695318 L42.1735528,243.786555 L24.0385673,279.477479 Z" id="Path" fill="#A8A8A8"></path>
                <path d="M47.1110939,283.507347 C57.6762052,295.622521 62.1332817,285.143842 62.1332817,285.143842 C63.9529138,276.398824 65.7112101,268.640816 66.4319071,267.28048 C68.2310939,263.93078 66.4319071,227.462521 66.4319071,227.462521 C66.4319071,227.462521 49.0533979,226.296519 44.2743078,239.700432 L42.1837754,243.791669 C40.8446079,254.515822 39.5207744,274.787899 47.1110939,283.507347 Z" id="Path" fill="#FFFFFF" opacity="0.1"></path>
                <path d="M49.431636,317.27539 L110.767551,310.187323 L121.7109,238.140648 L113.435663,219.428355 C109.939542,211.459335 105.098262,204.152032 99.1239497,197.826627 C94.9582188,193.433661 89.9235624,189.20946 84.6282285,187.087131 C83.9045931,186.795311 83.1657907,186.542653 82.4150242,186.330252 C80.6645201,185.79824 78.7653367,186.134574 77.303698,187.235438 C69.7389351,192.600072 67.0350436,215.408715 66.1610068,226.388571 C65.801412,230.90046 65.1922305,235.388948 64.3362633,239.833397 L49.431636,317.27539 Z" id="Path" fill="#A8A8A8"></path>
                <path d="M90.2660213,237.363313 L77.4877057,268.814694 C84.1835431,263.915438 94.1046273,237.235462 94.1046273,237.235462 L102.993224,267.653806 L95.9089255,235.593854 C96.9460312,228.631824 97.2475581,221.579883 96.8085189,214.55467 C96.246273,206.505162 88.6968441,193.587083 84.5975605,187.082017 C83.8739251,186.790197 83.1351228,186.537539 82.3843562,186.325138 C80.6338521,185.793126 78.7346687,186.12946 77.27303,187.230324 C80.4931655,193.699592 88.5435044,209.875318 90.9969409,214.682521 C94.1097386,220.737551 90.2660213,237.363313 90.2660213,237.363313 Z" id="Path" fill="#FFFFFF" opacity="0.1"></path>
                <path d="M100.698238,319.725018 L133.978083,319.725018 C136.744593,319.725765 139.390181,318.590497 141.296502,316.584557 C143.202822,314.578617 144.202806,311.877804 144.06273,309.113373 C143.326699,294.834958 141.461065,269.377239 137.024434,253.216855 C134.627222,244.497407 131.841549,239.920336 129.285886,237.665042 C128.087443,236.507841 126.54017,235.779643 124.885034,235.593854 C123.629534,235.485363 122.373021,235.790678 121.307106,236.463241 C115.127512,242.39042 107.910319,273.580984 107.910319,273.580984 L100.698238,319.725018 Z" id="Path" fill="#A8A8A8"></path>
                <path d="M131.42242,292.063145 C132.792256,295.862881 133.334056,300.245618 131.42242,304.515846 L124.005886,308.182617 C124.005886,308.182617 104.071713,299.7291 106.494482,282.402713 C106.494482,282.402713 107.148732,278.822881 114.013243,279.09904 C121.909595,279.480883 128.790218,284.604681 131.42242,292.063145 Z" id="Path" fill="#FFFFFF" opacity="0.1"></path>
                <path d="M123.499864,246.517455 C123.269855,240.441969 126.56666,238.334982 129.290997,237.665042 C128.092554,236.507841 126.545281,235.779643 124.890145,235.593854 C122.993848,237.181564 121.649848,239.330242 121.051539,241.730708 L114.100136,275.631717 C114.100136,275.631717 123.888325,256.69952 123.499864,246.517455 Z" id="Path" fill="#FFFFFF" opacity="0.1"></path>
                <path d="M91.9425363,273.325282 L108.421452,295.878223 L111.278683,314.493349 L100.688015,319.725018 L85.420484,323.100288 C83.9500802,323.427056 82.4381592,323.525374 80.9378509,323.391789 L39.2754308,319.725018 L44.9438916,306.576807 L64.5202711,279.078583 L91.9425363,273.325282 Z" id="Path" fill="#A8A8A8"></path>
                <path d="M85.5636012,265.582617 C85.5636012,265.582617 96.8085189,266.354838 92.5865634,285.68593 C88.3646079,305.017023 44.9234463,306.566579 44.9234463,306.566579 C44.9234463,306.566579 54.1545015,290.201633 68.3537657,278.475126 C69.9484995,277.160816 71.4870087,275.790252 72.9539593,274.327635 C76.2200968,271.05976 82.4661375,265.316687 85.5636012,265.582617 Z" id="Path" fill="#FFFFFF" opacity="0.1"></path>
                <path d="M95.6789158,280.157647 C95.6789158,280.157647 110.915779,294.032053 109.479497,315.383193" id="Path" fill="#000000" opacity="0.1"></path>
                <path d="M121.312217,236.463241 C121.312217,236.463241 105.323988,257.737671 103.529913,290.472677" id="Path" fill="#000000" opacity="0.1"></path>
                <path d="M66.4370184,227.447179 C66.4370184,227.447179 74.1755663,262.606242 54.8547531,289.107227" id="Path" fill="#000000" opacity="0.1"></path>
                <path d="M207.381839,357.661008 L290.768015,357.661008 C292.407516,357.652179 293.922402,356.784102 294.759612,355.3737 C295.596821,353.963299 295.633811,352.217014 294.857076,350.772389 L253.184434,273.304826 C252.370726,271.791764 250.792205,270.848099 249.074927,270.848099 C247.35765,270.848099 245.779128,271.791764 244.965421,273.304826 L203.272333,350.772389 C202.493904,352.22022 202.532917,353.970764 203.375073,355.38244 C204.217228,356.794116 205.738692,357.659342 207.381839,357.661008 Z M254.380484,343.50533 L243.769371,343.50533 L243.769371,332.893685 L254.380484,332.893685 L254.380484,343.50533 Z M254.380484,325.815846 L243.769371,325.815846 L243.769371,304.587443 L254.380484,304.587443 L254.380484,325.815846 Z" id="Shape" fill="#E09E00" fill-rule="nonzero"></path>
                <path d="M207.381839,357.661008 L290.768015,357.661008 C292.407516,357.652179 293.922402,356.784102 294.759612,355.3737 C295.596821,353.963299 295.633811,352.217014 294.857076,350.772389 L253.184434,273.304826 C252.370726,271.791764 250.792205,270.848099 249.074927,270.848099 C247.35765,270.848099 245.779128,271.791764 244.965421,273.304826 L203.272333,350.772389 C202.493904,352.22022 202.532917,353.970764 203.375073,355.38244 C204.217228,356.794116 205.738692,357.659342 207.381839,357.661008 Z M254.380484,343.50533 L243.769371,343.50533 L243.769371,332.893685 L254.380484,332.893685 L254.380484,343.50533 Z M254.380484,325.815846 L243.769371,325.815846 L243.769371,304.587443 L254.380484,304.587443 L254.380484,325.815846 Z" id="Shape" fill="#FFB400" fill-rule="nonzero" opacity="0.1"></path>
                <path d="M207.381839,360.218031 L290.768015,360.218031 C292.407516,360.209202 293.922402,359.341125 294.759612,357.930723 C295.596821,356.520321 295.633811,354.774036 294.857076,353.329412 L253.184434,275.861849 C252.370726,274.348786 250.792205,273.405122 249.074927,273.405122 C247.35765,273.405122 245.779128,274.348786 244.965421,275.861849 L203.272333,353.329412 C202.493904,354.777243 202.532917,356.527787 203.375073,357.939463 C204.217228,359.351139 205.738692,360.216365 207.381839,360.218031 Z M254.380484,346.062353 L243.769371,346.062353 L243.769371,335.450708 L254.380484,335.450708 L254.380484,346.062353 Z M254.380484,328.372869 L243.769371,328.372869 L243.769371,307.144466 L254.380484,307.144466 L254.380484,328.372869 Z" id="Shape" fill="#FFB400" fill-rule="nonzero"></path>
                <path d="M161.579245,318.497647 C161.208916,318.262074 160.812742,318.069888 160.398529,317.924874 C159.028693,317.413469 157.566854,317.280504 156.197018,316.789556 C155.415207,316.523011 154.696626,316.098248 154.086041,315.541729 C153.983814,315.439448 153.886699,315.337167 153.794695,315.229772 C154.305828,314.907587 154.770958,314.585402 155.27698,314.283673 C153.768883,311.753385 151.649154,309.643079 149.11272,308.146819 C149.935644,306.93479 151.791055,307.031957 152.874656,306.055174 C153.422922,305.51292 153.781474,304.807989 153.896922,304.045354 C154.300716,302.035534 153.799806,299.954118 153.298896,297.974982 C152.327744,294.103649 151.34637,290.206747 149.772081,286.54509 C149.0494,285.037351 148.411199,283.490514 147.860445,281.911765 C146.536612,277.503457 147.461762,272.706483 146.459942,268.201008 C146.137928,266.753733 145.616573,265.260432 145.979477,263.828499 C146.536612,261.609004 149.015605,260.294694 149.557406,258.075198 C151.520155,250.173998 151.872836,241.976182 152.987106,233.911333 C153.240784,232.377712 153.379177,230.82722 153.401123,229.272893 C153.401123,227.641513 153.109777,226.025474 152.992217,224.399208 C152.675315,219.832365 153.590242,215.270636 153.983814,210.708908 C154.862592,212.115553 155.4904,213.664278 155.839226,215.285978 C156.061555,216.789557 156.097606,218.314838 155.946563,219.827251 C155.911195,220.841097 155.803584,221.851128 155.62455,222.849652 C155.374095,224.03611 154.934521,225.171429 154.643175,226.357887 C154.016951,228.692149 154.187851,231.168805 155.128751,233.394814 C155.823892,234.929028 157.352178,236.350732 158.941801,235.890468 C160.040736,235.573397 160.705208,234.478992 161.195895,233.44084 C162.729293,230.188307 163.582885,226.419256 162.550397,222.962161 C161.870591,220.66084 160.378083,218.579424 160.240077,216.175822 C160.236379,215.214947 160.311599,214.255392 160.464976,213.306843 C161.103892,207.752989 159.723833,202.173565 159.417154,196.589028 C159.335373,195.111068 159.468267,193.275126 159.136031,191.705114 C159.09514,191.515894 159.049138,191.326675 158.992914,191.147683 C159.124279,191.182607 159.248733,191.239678 159.360929,191.316447 C159.767424,190.401142 159.74115,189.351493 159.289371,188.457695 C159.108335,188.169306 158.947784,187.86854 158.808906,187.557623 C158.614676,187.046218 158.650455,186.452989 158.410223,185.962041 C158.256397,185.703841 158.085645,185.45612 157.89909,185.220504 C157.239729,184.264178 157.20395,183.026579 157.188616,181.86569 C157.110242,175.81066 156.939864,169.762449 156.677483,163.721056 C156.539477,160.652629 156.365692,157.512605 155.292314,154.633397 C154.363412,152.075186 152.68995,149.853997 150.487667,148.256182 C150.141251,148.010891 149.781173,147.785509 149.409177,147.581128 C149.598174,147.144545 149.702258,146.675917 149.715857,146.200336 C149.726081,146.050499 149.726081,145.900138 149.715857,145.7503 L149.685189,145.494598 C149.500447,144.426211 149.155821,143.391784 148.662924,142.42617 C148.112074,141.386283 147.779832,140.244572 147.68666,139.071357 C147.685689,138.859445 147.697637,138.647671 147.722439,138.437215 C147.896225,136.96437 148.662924,135.583577 148.933824,134.110732 C149.014579,133.653303 149.052227,133.189298 149.046273,132.724826 C149.046273,132.566291 149.046273,132.402641 149.046273,132.238992 C148.842347,130.42645 148.284903,128.671564 147.405537,127.073806 C147.149971,126.562401 146.894405,126.050996 146.60817,125.539592 C146.475276,124.583265 146.327047,123.626939 146.178819,122.675726 C146.097038,122.123409 146.010145,121.571092 145.892585,121.02389 C145.834656,120.75114 145.768209,120.48521 145.693243,120.226098 C146.485499,119.479448 146.025479,118.385042 145.519458,117.372461 C144.543195,115.44958 144.747648,113.153373 144.33363,111.036158 C144.002104,109.563554 143.497692,108.135342 142.8309,106.781273 C142.439896,105.803626 141.888849,104.897977 141.200387,104.101513 C140.566731,103.500043 139.85703,102.984247 139.089409,102.567299 C138.450354,102.133851 137.741437,101.813804 136.993766,101.6212 C136.528635,101.529148 136.053282,101.534262 135.593262,101.426867 C135.297062,101.352722 135.009302,101.248182 134.73456,101.11491 C134.164815,100.790148 133.544491,100.56367 132.899593,100.44497 C132.292345,100.424621 131.688197,100.539924 131.131075,100.782497 C130.526866,101.048479 129.885723,101.220921 129.229661,101.293902 C128.999652,101.293902 128.754308,101.293902 128.508964,101.293902 C128.166743,101.265453 127.824454,101.347933 127.532701,101.529148 C127.381569,101.660721 127.241396,101.804389 127.113572,101.958727 C126.742013,102.2932 126.327799,102.576942 125.881742,102.802545 C122.210124,104.97505 119.947569,108.916242 119.921936,113.184058 C119.965507,113.749238 119.915423,114.317739 119.773708,114.866579 C119.625479,115.296158 119.334134,115.669484 119.211462,116.109292 C119.127383,116.492039 119.108375,116.886226 119.155237,117.275294 C119.196128,117.873637 119.257464,118.466867 119.323911,119.06521 C118.944376,119.546773 118.688196,120.11383 118.577657,120.717047 C118.55483,120.821512 118.539457,120.92747 118.531655,121.034118 L118.531655,121.07503 C118.475431,122.143866 119.001897,123.120648 119.308577,124.143457 C119.823172,126.124494 119.770033,128.210454 119.155237,130.162689 C118.78211,131.507683 118.250532,132.898703 118.132972,134.253926 C118.132972,134.28461 118.132972,134.315294 118.132972,134.345978 C118.067023,135.036804 118.147133,135.733783 118.368093,136.391597 C118.536767,136.856975 118.787222,137.291669 118.940561,137.762161 C119.482362,139.42934 118.695218,141.178343 117.652507,142.64096 C117.488945,142.871092 117.320271,143.090996 117.141375,143.305786 L117.166931,143.305786 L117.141375,143.331357 L118.20453,144.083121 C117.89274,144.246771 117.580949,144.425762 117.264046,144.594526 C116.03716,144.795549 114.860522,145.231379 113.798567,145.878151 C112.78987,146.387027 111.846014,147.015455 110.987338,147.749892 C110.089343,148.648016 109.340473,149.68387 108.769022,150.818319 C108.067193,152.104327 107.439185,153.429308 106.888054,154.786819 C106.403693,155.88176 106.080038,157.040993 105.927125,158.228571 C105.487551,159.164442 105.124647,160.171909 104.720852,161.077095 C104.516399,161.542473 104.317057,162.007851 104.117715,162.473229 L86.5245305,119.372053 L83.7950823,120.507371 L84.009758,121.018776 L83.4424008,121.259136 L84.214211,123.141104 C84.1017619,123.217815 83.9893127,123.294526 83.8819748,123.376351 L83.7388577,123.48886 L83.4526234,123.713878 L83.3095063,123.831501 L83.0181607,124.076975 L82.9108228,124.169028 L82.5479187,124.501441 C82.1594579,124.85431 81.7863311,125.227635 81.4234269,125.60096 L80.4880542,126.567515 L80.3091578,126.756735 L79.9973669,127.073806 L79.8235818,127.252797 L79.3788964,127.697719 L79.3482285,127.728403 L79.0722168,127.994334 L78.8984318,128.157983 C78.8268732,128.22958 78.7502033,128.296062 78.6735334,128.362545 L78.4588577,128.561993 L78.1112875,128.858607 L78.009061,128.95066 L77.5337076,129.3291 C76.8936313,129.828596 76.2092759,130.268528 75.4891772,130.643409 C72.6932817,132.090684 69.7338238,133.302713 67.0043756,134.852269 C65.5044312,135.683917 64.0961659,136.671256 62.8028654,137.797959 C60.9985673,139.398655 59.4702807,141.377791 57.3797483,142.538679 L57.1497386,142.661417 C53.4491384,144.563842 49.0891772,143.423409 44.8825557,143.341585 C44.2538625,143.341585 43.6353921,143.341585 43.0220329,143.382497 C39.607667,143.648427 36.4846467,145.034334 33.4638529,146.721969 C31.3375411,147.913541 29.2623427,149.253421 27.1769216,150.46545 C25.8581994,151.227443 24.5343659,152.055918 23.2054211,152.90485 C19.8319458,155.047635 16.4175799,157.297815 12.8856534,158.918968 C9.60418199,160.422497 6.24092933,161.378824 2.66300097,161.194718 L2.61699903,161.194718 C2.27454017,161.194718 1.93208132,161.148691 1.59473379,161.107779 C1.26249758,163.792653 3.4092546,165.955894 4.84042594,168.318583 C5.52455151,169.337455 5.94116147,170.512322 6.05181026,171.734766 C6.06913364,172.194009 6.03484315,172.653746 5.94958374,173.10533 C5.66334947,174.762281 4.89665053,176.388547 5.10621491,178.055726 C5.23251717,179.030975 5.60743474,179.957321 6.1949274,180.745714 C7.10474347,182.044682 8.36724105,183.200456 9.22594385,184.555678 C10.5242207,186.601297 10.8615682,189.091837 11.3675895,191.500552 C11.641938,193.190862 12.2111427,194.819758 13.0492159,196.312869 C14.1532623,198.092557 15.84,199.381297 17.4245111,200.746747 C17.7158567,200.997335 18.002091,201.258151 18.2781026,201.513854 C18.4825557,201.697959 18.6818974,201.892293 18.8710165,202.091741 C20.7264279,203.989052 22.106486,206.914286 20.9871055,209.287203 C20.9513262,209.369028 20.9104356,209.440624 20.869545,209.517335 C20.9585865,209.581028 21.0525963,209.637464 21.150668,209.686098 C22.576728,210.381609 24.3656922,209.266747 25.5361859,208.085402 C26.1137657,207.507515 26.6606776,206.89383 27.1922556,206.269916 C28.6183156,204.684562 29.9268151,202.966242 31.2813166,201.31952 C31.649332,200.874598 32.0173475,200.439904 32.3955857,200.010324 C33.8303964,198.365285 35.5389402,196.981113 37.445576,195.919088 C38.4381142,195.407313 39.4748111,194.986251 40.5430397,194.661032 C42.1275508,194.149628 43.7631752,193.771188 45.3527977,193.270012 C47.5369136,192.569154 49.6558928,191.679359 51.6857309,190.610708 C55.2206055,188.709643 58.6346649,186.5918 61.9083833,184.269292 L62.419516,183.936879 C63.5202671,183.242651 64.5403029,182.427903 65.4607551,181.507707 C65.6243175,181.328715 65.7827686,181.14461 65.9309971,180.95539 C66.728364,179.932581 67.2446079,178.720552 67.9755276,177.656831 C68.7481114,176.561668 69.7210882,175.622879 70.8429816,174.890132 C73.9966699,172.767803 78.1828461,171.959784 81.9294482,170.798896 L81.9703388,170.798896 C88.5354212,168.782102 94.5235986,165.224456 99.4357406,160.422497 L102.236747,167.285546 C101.947106,168.096975 101.672798,168.916927 101.413824,169.745402 C100.790242,171.79102 100.279109,173.898007 99.0575024,175.626555 C98.6542954,176.085588 98.3513692,176.623829 98.1681317,177.206795 C98.151872,177.636692 98.0814611,178.062819 97.9585673,178.475078 C97.7847822,178.822833 97.421878,179.052965 97.2736496,179.410948 C97.0589739,179.922353 97.3400968,180.582065 97.0538625,181.062785 C96.9159945,181.254548 96.7526303,181.426602 96.5682865,181.57419 C95.8373669,182.223673 95.6431365,183.246483 95.6431365,184.177239 C95.7138916,185.124466 95.6362858,186.076938 95.4131268,187.000192 C95.6264316,186.873902 95.8465549,186.759514 96.0724879,186.657551 C96.0394705,186.826144 96.0206628,186.997213 96.0162633,187.168956 C96.014556,187.653635 96.0746737,188.136551 96.1951597,188.606002 C96.5427515,189.669724 97.0456973,190.676151 97.687667,191.592605 C98.1696761,192.39415 98.7041233,193.162933 99.2875121,193.893926 C100.302523,195.022702 101.437076,196.037827 102.67121,196.921441 L107.823427,200.900168 L107.312294,203.053181 C106.187803,207.56377 105.053088,212.130612 104.996864,216.784394 C105.012089,218.987728 105.15031,221.18849 105.410881,223.376399 L105.855566,227.866531 C106.213359,231.482161 106.571152,235.097791 106.964724,238.713421 C107.215179,240.9994 107.475857,243.316062 108.283446,245.47419 C109.499942,248.752293 108.155663,252.454862 108.671907,255.922185 C109.080813,258.637743 109.888403,261.445354 109.075702,264.06886 C108.748577,265.091669 108.176108,266.073565 107.75698,267.086146 C106.709158,269.602257 106.60182,272.39964 106.514927,275.125426 C106.350805,277.514526 106.438178,279.91427 106.775605,282.28509 C107.215179,284.729604 108.186331,287.128091 107.997212,289.608403 C107.731423,293.131981 105.155315,296.144154 104.843524,299.667731 C104.593069,302.475342 105.814676,305.1909 107.128287,307.681441 C108.094327,309.517383 106.744937,311.8903 106.233804,313.910348 C105.211539,317.873733 106.9085,322.01611 108.978587,325.52946 C109.031554,325.6485 109.123506,325.745913 109.239264,325.805618 C109.474385,325.892557 109.694172,325.657311 109.847512,325.457863 C110.000852,325.258415 110.046854,325.212389 110.154192,325.094766 C110.154192,325.253301 110.18486,325.411837 110.195082,325.565258 C110.195082,325.897671 110.220639,326.230084 110.220639,326.588067 C110.21221,327.882065 110.448054,329.166019 110.915779,330.372461 C110.998423,330.60602 111.093982,330.8348 111.202014,331.057743 C111.329065,331.356859 111.50147,331.634578 111.713146,331.881104 C112.266667,332.408085 112.994069,332.713757 113.757677,332.740264 C115.454637,332.92437 117.16182,332.571501 118.869003,332.423193 C120.66819,332.269772 122.472488,332.336255 124.276786,332.295342 C124.416739,332.303092 124.556202,332.273066 124.680581,332.208403 C124.794835,332.113611 124.875496,331.984486 124.910591,331.840192 C125.107152,331.186325 125.137023,330.493634 124.997483,329.825258 C124.900548,329.284766 124.772552,328.750314 124.614134,328.224562 C124.373901,327.380744 124.154114,326.531813 123.94455,325.667539 C123.903659,325.509004 123.86788,325.350468 123.832101,325.191933 L123.913882,325.227731 C125.014521,322.752533 126.116864,320.277335 127.22091,317.802137 C127.778045,316.549196 128.345402,315.193974 128.06939,313.84898 C127.870048,312.887539 127.256689,312.074406 126.822227,311.19479 C125.799961,309.118487 125.759071,306.69443 125.743737,304.372653 L125.682401,291.219328 C128.238064,287.966795 129.817464,284.095462 130.793727,280.055366 C132.308465,285.740162 132.41199,291.709166 131.095295,297.443121 C130.86021,298.311127 130.69779,299.197215 130.609719,300.092197 C130.410378,303.738511 133.247164,306.827395 134.00364,310.396999 C134.073228,310.670815 134.092282,310.95504 134.059864,311.235702 C133.976012,311.580953 133.834297,311.909493 133.640736,312.207371 C132.281123,314.697911 132.429351,317.70497 132.61847,320.538151 L133.216496,320.635318 C133.363919,320.89955 133.583847,321.116046 133.8503,321.259232 C134.098124,321.404186 134.364712,321.514319 134.642556,321.586531 C135.622642,321.814892 136.618915,321.967063 137.622459,322.041681 C139.063853,322.184874 140.510358,322.328067 141.956864,322.42012 C142.529332,322.455918 143.101801,322.486603 143.674269,322.501945 C144.478007,322.501802 145.28076,322.558196 146.076592,322.670708 C146.94617,322.852174 147.800561,323.100079 148.632256,323.412245 C152.358412,324.660072 156.529255,325.370924 160.137851,323.816255 C160.952036,323.50483 161.67457,322.992983 162.238606,322.328067 C162.754433,321.769781 162.985205,321.005279 162.864488,320.254642 C162.743772,319.504004 162.284961,318.850518 161.620136,318.482305 L161.579245,318.497647 Z M112.142498,172.711549 C112.684298,173.790612 113.226099,174.864562 113.675895,175.984538 C114.560155,178.152893 115.096844,180.587179 114.534598,182.847587 C114.371036,183.512413 113.302769,184.023818 113.30788,184.7091 C113.277569,184.760313 113.250263,184.813247 113.226099,184.867635 L109.888403,176.685162 C110.53485,175.303734 111.288523,173.975128 112.142498,172.711549 Z M108.477677,190.099304 C107.743637,189.139335 107.13555,188.089226 106.668267,186.974622 C106.606931,186.836543 106.540484,186.703577 106.479148,186.565498 C106.668818,186.487016 106.835774,186.362171 106.964724,186.202401 C107.475857,185.558031 107.199845,184.617047 107.276515,183.788571 C107.398894,183.05662 107.675963,182.359221 108.089216,181.742953 L111.222459,189.414022 C110.905557,190.245906 110.6091,191.086315 110.333088,191.935246 C109.670772,191.369273 109.050652,190.75566 108.477677,190.099304 Z" id="Shape" fill="url(#linearGradient-1)" fill-rule="nonzero"></path>
                <path d="M119.507919,121.059688 C119.451694,122.128523 119.983272,123.105306 120.295063,124.128115 C120.810865,126.103546 120.75949,128.184464 120.146834,130.132005 C119.574366,132.177623 118.613437,134.340864 119.344356,136.340456 C119.51303,136.810948 119.768596,137.240528 119.921936,137.71102 C120.555741,139.654358 119.380136,141.699976 118.092081,143.290444 L123.147183,146.834478 C123.885276,147.44656 124.763241,147.866451 125.702846,148.056735 C126.648441,148.169244 127.747377,147.662953 127.941607,146.732197 C128.008054,146.415126 127.941607,146.082713 128.002943,145.760528 C128.129149,144.915134 128.656803,144.183268 129.41878,143.796735 C130.178045,143.424199 131.02477,143.266791 131.867106,143.341585 C134.969681,143.510348 137.607125,145.550852 140.428577,146.860048 C142.288733,147.665971 144.216371,148.306007 146.189042,148.772701 C147.308422,149.064202 148.550474,149.330132 149.562517,148.772701 C150.57456,148.21527 151.03969,146.921417 150.96302,145.7503 C150.805882,144.585533 150.4424,143.458137 149.889642,142.421056 C149.331803,141.385182 148.995833,140.244367 148.903156,139.071357 C148.903156,137.353037 149.84364,135.788139 150.160542,134.100504 C150.605227,131.702017 149.700523,129.262617 148.596476,127.084034 C147.49243,124.90545 146.153262,122.808691 145.616573,120.435774 C145.510049,119.7165 145.323168,119.011462 145.059439,118.333902 C144.803673,117.819354 144.457393,117.355092 144.037173,116.963337 C142.140871,115.086483 139.43698,114.196639 136.789313,114.002305 C134.141646,113.807971 131.468422,114.242665 128.8412,114.697815 C127.838841,114.840968 126.851656,115.075485 125.891965,115.398439 C124.520569,115.94373 123.218375,116.649246 122.012469,117.500312 C120.816418,118.328788 119.584589,119.540816 119.507919,121.059688 Z" id="Path" fill="#464353"></path>
                <g id="Group" opacity="0.1" transform="translate(118.071636, 120.691477)" fill="#000000">
                    <path d="M30.8161859,17.3315006 C30.8161859,17.484922 30.8161859,17.6383433 30.8468538,17.7866507 C31.0053049,16.2882353 31.7924492,14.8818727 32.0735721,13.3834574 C32.1821494,12.7830697 32.2147775,12.1713971 32.1706873,11.5628571 C32.1706873,11.8287875 32.1195741,12.0742617 32.0735721,12.3606483 C31.7515586,14.0482833 30.7957406,15.6131813 30.8161859,17.3315006 Z" id="Path"></path>
                    <path d="M2.56588577,5.4822569 C2.62609457,4.44742782 2.51029677,3.40988088 2.22342691,2.41382953 C1.92091078,1.63779142 1.67325379,0.841449662 1.48228461,0.0306842737 C1.48228461,0.138079232 1.441394,0.240360144 1.43628267,0.347755102 C1.38005808,1.41659064 1.91163601,2.39337335 2.22342691,3.41618247 C2.4209125,4.08842729 2.53591052,4.78221713 2.56588577,5.4822569 Z" id="Path"></path>
                    <path d="M32.8453824,24.777551 C32.7729033,25.7043954 32.2644064,26.5415837 31.475547,27.0328451 C30.4532817,27.5902761 29.2214521,27.3243457 28.1020716,27.0328451 C26.1286031,26.5667299 24.2007653,25.9249164 22.341607,25.115078 C19.5201549,23.8109964 16.8827106,21.7704922 13.7801355,21.6017287 C12.9377997,21.526935 12.0910749,21.6843434 11.3318103,22.0568788 C10.5698327,22.4434124 10.0421789,23.1752782 9.91597289,24.0206723 C9.88019361,24.3428571 9.91597289,24.6752701 9.85463698,24.9923409 C9.65529526,25.9230972 8.56147144,26.4293878 7.61587609,26.3168788 C6.67627126,26.1265948 5.79830552,25.7067039 5.06021297,25.0946218 L0.51624395,21.9034574 C0.347570184,22.1335894 0.178896418,22.3586074 0.00511132623,22.5682833 L5.06021297,26.117431 C5.79830552,26.729513 6.67627126,27.1494039 7.61587609,27.3396879 C8.56147144,27.4521969 9.66040658,26.9459064 9.85463698,26.0151501 C9.92108422,25.6980792 9.85463698,25.3656663 9.91597289,25.0434814 C10.0421789,24.1980873 10.5698327,23.4662215 11.3318103,23.0796879 C12.0910749,22.7071525 12.9377997,22.5497441 13.7801355,22.6245378 C16.8827106,22.7933013 19.5201549,24.8338055 22.341607,26.1378872 C24.2007653,26.9477255 26.1286031,27.589539 28.1020716,28.0556543 C29.2214521,28.3471549 30.4635044,28.6130852 31.475547,28.0556543 C32.4875895,27.4982233 32.9527202,26.2043697 32.8760503,25.0332533 C32.870939,24.9463145 32.855605,24.8644898 32.8453824,24.777551 Z" id="Path"></path>
                    <path d="M1.8503001,16.9939736 C1.91330186,17.199551 1.95945652,17.4099229 1.98830591,17.6230012 C2.06748576,17.0690243 2.02030486,16.5043007 1.8503001,15.9711645 C1.69696031,15.5006723 1.441394,15.0710924 1.27272023,14.6006002 C1.14975452,14.2591468 1.07074543,13.9034168 1.03759923,13.5419928 C0.962106061,14.2446557 1.04238528,14.9553302 1.27272023,15.6234094 C1.441394,16.0939016 1.69696031,16.5285954 1.8503001,16.9939736 Z" id="Path"></path>
                </g>
                <path d="M125.922633,331.737911 C125.88759,331.88349 125.804812,332.013125 125.687512,332.106122 C125.563133,332.170785 125.42367,332.200812 125.283717,332.193061 C123.464085,332.233974 121.644453,332.193061 119.829932,332.320912 C118.112527,332.46922 116.39001,332.832317 114.677715,332.637983 C113.554977,332.677699 112.529874,332.002823 112.122052,330.955462 C112.01402,330.732519 111.918461,330.503739 111.835818,330.27018 C111.364074,329.064725 111.126412,327.78032 111.135566,326.485786 C111.135566,326.143145 111.135566,325.810732 111.135566,325.462977 C111.11318,325.088258 111.06364,324.715658 110.987338,324.348115 C110.83232,323.927097 110.850704,323.461725 111.038451,323.054262 C111.764259,321.729724 113.517444,321.463794 114.866834,321.361513 C117.992985,321.125909 121.136775,321.356864 124.195005,322.046795 C124.435237,323.223025 124.706137,324.389028 124.992372,325.55503 C125.20364,326.41078 125.428538,327.263121 125.667067,328.112053 C125.827145,328.637718 125.956846,329.172168 126.055528,329.712749 C126.181935,330.388256 126.136231,331.084739 125.922633,331.737911 Z" id="Path" fill="#464353"></path>
                <path d="M125.922633,331.737911 C125.88759,331.88349 125.804812,332.013125 125.687512,332.106122 C125.563133,332.170785 125.42367,332.200812 125.283717,332.193061 C123.464085,332.233974 121.644453,332.193061 119.829932,332.320912 C118.112527,332.46922 116.39001,332.832317 114.677715,332.637983 C113.554977,332.677699 112.529874,332.002823 112.122052,330.955462 C112.01402,330.732519 111.918461,330.503739 111.835818,330.27018 L112.490068,330.27018 C114.641936,330.27018 116.798916,330.193469 118.950784,330.193469 C119.599923,330.193469 120.254172,330.162785 120.898199,330.086074 C121.542227,330.009364 122.068693,329.901969 122.656496,329.830372 C123.536414,329.745998 124.420306,329.710146 125.304163,329.722977 L126.029971,329.722977 C126.162888,330.393054 126.125987,331.085767 125.922633,331.737911 Z" id="Path" fill="#000000" opacity="0.06"></path>
                <path d="M163.567551,322.241128 C162.99788,322.906669 162.270256,323.418387 161.451462,323.729316 C157.812197,325.263529 153.605576,324.573133 149.848751,323.325306 C149.008385,323.012991 148.145488,322.765097 147.267531,322.58377 C146.466553,322.471292 145.658703,322.414901 144.849874,322.415006 C144.272294,322.415006 143.694714,322.36898 143.117135,322.333181 C141.655295,322.241128 140.198567,322.097935 138.746951,321.954742 C137.73493,321.88052 136.730133,321.728352 135.741491,321.499592 C135.460381,321.427468 135.190405,321.317355 134.939013,321.172293 C134.501138,320.979824 134.214187,320.551163 134.202982,320.072773 C134.243872,319.423289 134.918567,319.049964 135.511481,318.768691 C140.771036,316.492941 146.485499,315.50593 152.159071,314.713253 C152.736212,314.616871 153.29817,314.444927 153.830474,314.201849 C154.46939,313.946146 154.535837,314.365498 154.85274,314.83599 C155.002469,315.053777 155.173708,315.255946 155.363872,315.439448 C155.98009,315.996237 156.703719,316.420899 157.490184,316.687275 C158.870242,317.198679 160.347415,317.336759 161.727473,317.822593 C162.14496,317.967512 162.544531,318.159683 162.918412,318.395366 C163.587232,318.759805 164.050001,319.413236 164.171959,320.165381 C164.293918,320.917526 164.061356,321.683824 163.541994,322.241128 L163.567551,322.241128 Z" id="Path" fill="#464353"></path>
                <path d="M163.567551,322.241128 C162.99788,322.906669 162.270256,323.418387 161.451462,323.729316 C157.812197,325.263529 153.605576,324.573133 149.848751,323.325306 C149.008385,323.012991 148.145488,322.765097 147.267531,322.58377 C146.466553,322.471292 145.658703,322.414901 144.849874,322.415006 C144.272294,322.415006 143.694714,322.36898 143.117135,322.333181 C143.587377,321.888259 144.067841,321.453565 144.558529,321.034214 C144.914188,320.701481 145.323826,320.431703 145.769913,320.236423 C146.325312,320.054182 146.917434,320.013748 147.49243,320.1188 C150.416108,320.522809 153.04333,322.573541 155.992565,322.39455 C157.366617,322.236348 158.695653,321.807006 159.90273,321.131381 C160.884382,320.731349 161.759394,320.108009 162.458393,319.31078 C162.669338,319.035936 162.830247,318.726064 162.933746,318.395366 C163.602566,318.759805 164.065335,319.413236 164.187293,320.165381 C164.309252,320.917526 164.076689,321.683824 163.557328,322.241128 L163.567551,322.241128 Z" id="Path" fill="#000000" opacity="0.06"></path>
                <path d="M162.540174,233.36413 C162.029042,234.386939 161.374792,235.496687 160.270745,235.813758 C158.665789,236.274022 157.122168,234.831861 156.421917,233.318103 C155.467474,231.096224 155.28745,228.617781 155.910784,226.281176 C156.20213,225.099832 156.646815,223.964514 156.89727,222.778055 C157.078001,221.779652 157.187321,220.769622 157.224395,219.755654 C157.375438,218.243241 157.339386,216.71796 157.117057,215.214382 C156.294134,210.821417 152.516864,207.543313 151.259477,203.227059 C150.625673,201.074046 150.656341,198.782953 150.69212,196.537887 C150.680221,195.970322 150.738594,195.403466 150.865905,194.850252 C150.903936,194.699406 150.955249,194.552228 151.019245,194.410444 C151.862614,192.538703 154.362052,192.283001 156.099903,191.193709 C157.060833,190.595366 159.243369,188.667371 160.050958,190.426603 C160.225332,190.818353 160.35562,191.228292 160.439419,191.64886 C160.771655,193.213758 160.638761,195.0497 160.720542,196.527659 C161.032333,202.112197 162.422614,207.686507 161.778587,213.24036 C161.625006,214.187166 161.549785,215.145039 161.553688,216.104226 C161.691694,218.507827 163.194424,220.589244 163.884453,222.890564 C164.947609,226.352773 164.094017,230.121825 162.540174,233.36413 Z" id="Path" fill="#FBBEBE"></path>
                <path d="M160.464976,191.659088 C160.085233,191.521153 159.669114,191.521153 159.289371,191.659088 L155.829003,192.681897 C154.616394,193.005456 153.434542,193.434983 152.297076,193.965522 C151.800539,194.209349 151.329651,194.502311 150.891462,194.840024 C150.929492,194.689178 150.980806,194.542 151.044802,194.400216 C151.88817,192.528475 154.387609,192.272773 156.12546,191.183481 C157.086389,190.585138 159.268925,188.657143 160.076515,190.416375 C160.252339,190.814663 160.382651,191.231541 160.464976,191.659088 Z" id="Path" fill="#000000" opacity="0.1"></path>
                <path d="M160.689874,191.27042 C160.267092,191.013431 159.747719,190.971707 159.289371,191.157911 L155.829003,192.18072 C154.616394,192.50428 153.434542,192.933806 152.297076,193.464346 C151.693461,193.758172 151.128606,194.12578 150.61545,194.558752 C149.000271,191.75114 148.57092,188.421897 148.274463,185.200048 C148.1109,183.323193 147.988228,181.441224 147.91667,179.574598 C147.836483,178.231276 147.863831,176.883688 147.998451,175.54473 C148.192682,174.010516 148.637367,172.512101 148.913379,170.988115 C149.077773,170.095924 149.183633,169.193924 149.230281,168.287899 C149.362843,166.308265 149.27197,164.319988 148.95938,162.36072 C148.662207,160.278172 148.18681,158.225008 147.538432,156.223866 C147.211307,155.308451 146.817735,154.423721 146.459942,153.523649 L146.33727,153.206579 C145.691107,151.556936 145.163303,149.863303 144.75787,148.138559 C144.594308,147.432821 144.584085,146.691285 144.042285,146.210564 C144.550968,146.149283 145.063732,146.128761 145.575682,146.149196 C145.677909,146.149196 145.780136,146.149196 145.882362,146.149196 C147.982159,146.281327 150.005125,146.989034 151.729719,148.194814 C153.950845,149.798218 155.639047,152.032534 156.575257,154.607827 C157.653746,157.487035 157.832643,160.616831 157.970649,163.690372 C158.24666,169.731765 158.417038,175.776567 158.481781,181.824778 C158.481781,182.985666 158.532894,184.223265 159.197367,185.179592 C159.383826,185.415279 159.554573,185.662993 159.7085,185.921128 C159.948732,186.432533 159.912953,187.000192 160.107183,187.516711 C160.249844,187.826712 160.412029,188.127341 160.592759,188.416783 C161.056246,189.303969 161.091972,190.353745 160.689874,191.27042 Z" id="Path" fill="#464353"></path>
                <path d="M126.668887,131.241753 C126.157754,131.072989 125.646621,130.893998 125.135489,130.730348 L126.198645,130.812173 C126.375864,130.931181 126.534354,131.075967 126.668887,131.241753 Z" id="Path" fill="#FBBEBE"></path>
                <path d="M147.599768,149.698343 C147.497541,150.046098 147.395315,150.393854 147.282865,150.721152 C147.02334,151.561456 146.707423,152.383276 146.33727,153.181008 C145.757993,154.491538 144.937896,155.681572 143.919613,156.689244 C143.5834,157.043507 143.170842,157.316359 142.71334,157.487035 C142.326337,157.586127 141.926233,157.624088 141.527512,157.599544 C140.164492,157.599544 138.801471,157.579088 137.438451,157.538175 C136.37729,157.549946 135.318035,157.445336 134.279652,157.226218 C133.136707,156.914273 132.05001,156.424136 131.059516,155.77383 C127.241355,153.41114 124.103001,149.810852 122.758722,145.545738 C122.590048,145.003649 122.472488,144.354166 122.845615,143.9297 C123.212788,143.629977 123.675301,143.472094 124.149003,143.484778 L124.210339,143.484778 C125.309251,143.341701 126.367992,142.978163 127.323136,142.415942 C127.941884,142.099085 128.440679,141.589253 128.744085,140.963553 C128.951122,140.221936 128.935121,139.435716 128.698083,138.703145 L127.563369,133.548187 C127.445191,132.722591 127.135344,131.936177 126.658664,131.251981 C126.9909,131.369604 127.323136,131.476999 127.680929,131.569052 C130.839729,132.423097 134.294985,131.906579 137.392449,133.026555 C138.578277,133.461248 139.764105,134.243697 140.121897,135.46084 C140.719923,137.506459 138.721394,139.628788 139.293863,141.674406 C139.677212,143.065426 141.093049,143.868331 142.360658,144.517815 L143.21425,144.952509 L145.580794,146.15431 L145.907919,146.317959 L145.959032,146.343529 C146.705286,146.721969 147.49243,147.192461 147.753107,147.995366 C147.864299,148.566095 147.811121,149.156688 147.599768,149.698343 Z" id="Path" fill="#FBBEBE"></path>
                <path d="M153.835586,161.706122 C153.748986,163.013425 153.430525,164.294872 152.895102,165.490516 C151.868971,167.558509 151.318815,169.830201 151.285034,172.138776 C150.891462,179.042737 148.269351,187.261008 152.026176,193.060336 C152.11818,193.203529 152.210184,193.346723 152.297076,193.49503 C151.693461,193.788856 151.128606,194.156465 150.61545,194.589436 C149.000271,191.781825 148.57092,188.452581 148.274463,185.230732 C148.1109,183.353878 147.988228,181.471909 147.91667,179.605282 C147.836483,178.26196 147.863831,176.914372 147.998451,175.575414 C148.192682,174.0412 148.637367,172.542785 148.913379,171.0188 C149.077773,170.126608 149.183633,169.224609 149.230281,168.318583 C149.362843,166.338949 149.27197,164.350672 148.95938,162.391405 C148.662207,160.308856 148.18681,158.255693 147.538432,156.25455 C147.211307,155.339136 146.817735,154.454406 146.459942,153.554334 L146.33727,153.237263 C145.757993,154.547792 144.937896,155.737827 143.919613,156.745498 C143.5834,157.099761 143.170842,157.372614 142.71334,157.543289 C142.326337,157.642381 141.926233,157.680343 141.527512,157.655798 C140.164492,157.655798 138.801471,157.635342 137.438451,157.59443 C136.37729,157.606201 135.318035,157.501591 134.279652,157.282473 C133.136707,156.970527 132.05001,156.48039 131.059516,155.830084 C127.241355,153.467395 124.103001,149.867107 122.758722,145.601993 C122.590048,145.059904 122.472488,144.41042 122.845615,143.985954 C123.212788,143.686231 123.675301,143.528349 124.149003,143.541032 L124.210339,143.541032 L128.810532,149.232965 C129.338134,149.835412 129.784889,150.504182 130.139477,151.222329 C130.208132,151.463298 130.351273,151.676334 130.548383,151.8309 C130.708341,151.904014 130.884117,151.93567 131.059516,151.922953 C135.378587,151.922953 141.13394,151.922953 145.453011,151.922953 C145.467137,151.15727 145.245895,150.405718 144.819206,149.76994 C144.686312,149.800624 144.507415,149.810852 144.783427,149.729028 C144.53367,148.068894 143.997527,146.4648 143.198916,144.988307 C143.151174,144.886804 143.098288,144.787804 143.040465,144.691693 C142.697209,144.185735 142.441481,143.6256 142.283988,143.034742 C142.82931,142.860823 143.415182,142.860823 143.960503,143.034742 C144.589197,143.305786 144.916321,143.985954 145.192333,144.614982 C145.427454,145.126387 145.662575,145.673589 145.872139,146.210564 C145.872139,146.266819 145.923253,146.328187 145.943698,146.384442 C146.389455,147.442563 146.675411,148.561143 146.792178,149.703457 C146.822846,150.122809 146.925073,150.65467 147.272643,150.792749 C147.327302,150.817738 147.386367,150.831643 147.446428,150.833661 C148.182441,150.564098 149.008295,150.766126 149.53696,151.345066 C150.039766,151.921284 150.391109,152.613799 150.559226,153.36 C150.725394,154.106001 150.968638,154.832693 151.285034,155.528355 C151.944395,156.786411 150.937464,157.348956 152.128403,158.121176 C152.685365,158.427691 153.164519,158.858109 153.528906,159.379232 C153.865783,160.105458 153.972789,160.917347 153.835586,161.706122 Z" id="Path" fill="#000000" opacity="0.1"></path>
                <path d="M124.149003,322.067251 C124.389235,323.243481 124.660136,324.409484 124.94637,325.575486 L124.915702,325.647083 C122.579826,324.624274 120.187725,323.555438 117.637173,323.33042 C115.270629,323.125858 112.699632,323.765114 111.089564,325.483433 C111.067178,325.108714 111.017639,324.736115 110.941336,324.368571 C110.786318,323.947553 110.804702,323.482181 110.992449,323.074718 C111.718258,321.75018 113.471442,321.48425 114.820833,321.381969 C117.946983,321.146365 121.090773,321.37732 124.149003,322.067251 Z" id="Path" fill="#000000" opacity="0.1"></path>
                <path d="M144.282517,150.70581 C144.522749,150.70581 144.435857,150.70581 144.318296,150.746723 C144.200736,150.787635 144.006505,150.787635 144.282517,150.70581 Z" id="Path" fill="#000000" opacity="0.1"></path>
                <path d="M155.389429,315.439448 C153.109977,316.892931 150.967955,318.551656 148.990048,320.394958 C148.415751,321.010048 147.730826,321.511437 146.971075,321.872917 C146.186484,322.12561 145.357672,322.210974 144.538083,322.123505 C141.322637,321.993332 138.11751,321.675723 134.939013,321.172293 C134.501138,320.979824 134.214187,320.551163 134.202982,320.072773 C134.243872,319.423289 134.918567,319.049964 135.511481,318.768691 C140.771036,316.492941 146.485499,315.50593 152.159071,314.713253 C152.736212,314.616871 153.29817,314.444927 153.830474,314.201849 C154.46939,313.946146 154.535837,314.365498 154.85274,314.83599 C155.010516,315.054996 155.190356,315.257209 155.389429,315.439448 Z" id="Path" fill="#000000" opacity="0.1"></path>
                <path d="M117.887628,144.773517 C118.638993,145.443457 119.497696,145.985546 120.259284,146.63503 C122.303814,148.368691 123.591868,150.792749 124.859477,153.155438 C124.107766,153.427311 123.294801,153.482246 122.513379,153.313974 C122.111474,155.582767 122.179322,157.909956 122.71272,160.151453 C121.689969,160.853497 120.895571,161.840355 120.427957,162.989748 C120.064584,164.156201 119.814672,165.355045 119.681704,166.56958 C118.945673,171.891597 118.206234,177.213613 117.463388,182.53563 C117.448454,183.056537 117.26958,183.55944 116.952256,183.972677 C116.8104,184.087349 116.680274,184.21583 116.563795,184.35623 C116.407374,184.700261 116.345615,185.079844 116.384898,185.45575 C116.35423,185.829076 116.108887,186.273998 115.73576,186.222857 C115.554453,186.179481 115.393727,186.074682 115.280852,185.926242 C114.907604,185.530764 114.565809,185.106712 114.258587,184.657959 C111.242904,190.447059 109.791288,196.686194 108.196554,203.017383 C107.056728,207.527971 105.916902,212.0897 105.860678,216.743481 C105.876072,218.945109 106.014293,221.144161 106.274695,223.330372 L106.724492,227.820504 C107.087396,231.43102 107.4503,235.046651 107.843872,238.657167 C108.099439,240.948259 108.355005,243.259808 109.177928,245.417935 C110.404647,248.696038 109.045034,252.393493 109.566389,255.860816 C109.975295,258.576375 110.787996,261.383986 109.970184,264.002377 C109.643059,265.050756 109.070591,266.007083 108.641239,267.019664 C107.588306,269.535774 107.480968,272.333157 107.388964,275.058944 C107.223433,277.448174 107.312531,279.848246 107.654753,282.218607 C108.094327,284.668235 109.080813,287.066723 108.886583,289.541921 C108.615682,293.065498 106.019129,296.077671 105.702227,299.596134 C105.451772,302.403745 106.683601,305.11419 108.007435,307.60473 C108.983698,309.440672 107.624085,311.813589 107.107841,313.833637 C106.085576,317.791909 107.787648,321.934286 109.873069,325.447635 C109.926245,325.568234 110.020414,325.666078 110.138858,325.723794 C110.37909,325.810732 110.593766,325.575486 110.752217,325.376038 C112.321394,323.361104 115.101955,322.599112 117.652507,322.819016 C120.203059,323.03892 122.590048,324.092413 124.931036,325.135678 L128.248287,317.745882 C128.810532,316.492941 129.383001,315.137719 129.101878,313.792725 C128.902536,312.831285 128.284066,312.018151 127.844492,311.138535 C126.822227,309.062233 126.771113,306.643289 126.760891,304.316399 L126.699555,291.173301 C129.285886,287.920768 130.865286,284.05455 131.861994,280.014454 C133.391107,285.697045 133.496441,291.669175 132.168674,297.402209 C131.923008,298.269012 131.752005,299.155277 131.657541,300.051285 C131.458199,303.697599 134.315431,306.781369 135.077018,310.350972 C135.15082,310.624054 135.171641,310.908755 135.138354,311.189676 C135.052641,311.535158 134.909209,311.86367 134.714114,312.161345 C133.344279,314.646771 133.492507,317.658944 133.691849,320.492125 C137.27621,321.116484 140.897734,321.504284 144.532972,321.653013 C145.352561,321.734886 146.180233,321.64964 146.965963,321.402425 C147.725946,321.039106 148.410845,320.536002 148.984937,319.919352 C151.3057,317.73536 153.853771,315.806574 156.585479,314.16605 C155.06003,311.633684 152.924991,309.523882 150.375218,308.029196 C151.198141,306.817167 153.073998,306.914334 154.167822,305.942665 C154.717062,305.39906 155.075691,304.692186 155.190087,303.927731 C155.598993,301.923025 155.092972,299.836495 154.586951,297.867587 C153.605576,293.99114 152.61909,290.099352 151.009022,286.437695 C150.280877,284.932816 149.639213,283.387564 149.087164,281.809484 C147.747996,277.401176 148.683369,272.604202 147.671326,268.098727 C147.344201,266.656567 146.817735,265.168379 147.18575,263.731333 C147.747996,261.516951 150.252546,260.202641 150.804569,257.983145 C152.782652,250.081945 153.135334,241.894358 154.259826,233.829508 C154.511349,232.288915 154.64633,230.731529 154.663621,229.170612 C154.663621,227.539232 154.372275,225.923193 154.254714,224.296927 C153.794695,217.786747 155.875005,211.291909 155.343427,204.786843 C155.003046,200.778056 153.683089,196.914423 151.49971,193.535942 C147.742885,187.731501 150.364995,179.518343 150.758567,172.614382 C150.788152,170.305872 151.336694,168.033631 152.363524,165.966122 C152.903427,164.771751 153.223746,163.489793 153.309119,162.181729 C153.466743,161.375321 153.366597,160.539728 153.022885,159.793469 C152.663205,159.270075 152.185107,158.839033 151.627493,158.535414 C150.436554,157.758079 151.443485,157.195534 150.784124,155.937479 C150.466963,155.242119 150.223691,154.515345 150.058316,153.769124 C149.891045,153.024142 149.539549,152.333086 149.03605,151.759304 C148.507385,151.180363 147.681531,150.978336 146.945518,151.247899 C146.459942,151.247899 146.327047,150.603529 146.286157,150.117695 C146.148151,148.338007 145.41212,146.665714 144.691423,145.02922 C144.415411,144.400192 144.088287,143.720024 143.459593,143.44898 C142.912131,143.277635 142.325429,143.277635 141.777967,143.44898 C141.936221,144.042049 142.193725,144.604017 142.539555,145.111044 C143.425531,146.666198 144.014827,148.372596 144.277406,150.143265 C143.766273,150.296687 144.788538,150.143265 144.277406,150.143265 C144.735082,150.78129 144.970361,151.552194 144.946989,152.337191 C140.63303,152.337191 134.877677,152.337191 130.558606,152.337191 C130.383149,152.351042 130.20709,152.319335 130.047473,152.245138 C129.850482,152.089445 129.705974,151.87703 129.633456,151.636567 C129.281993,150.918181 128.834953,150.250704 128.304511,149.652317 L123.244298,143.408067 C123.131933,143.244894 122.983199,143.110087 122.809835,143.014286 C122.600947,142.955272 122.379808,142.955272 122.17092,143.014286 C120.530184,143.254646 119.3188,143.939928 117.887628,144.773517 Z" id="Path" fill="#3A33C5"></path>
                <path d="M136.04817,229.380288 C136.920584,229.368395 137.780208,229.590921 138.537386,230.024658 C139.301931,230.474755 139.772197,231.295242 139.774327,232.182785 C139.718103,233.14934 138.97696,233.916447 138.440271,234.739808 C138.108102,235.241567 137.843444,235.78492 137.653127,236.355846 C137.594444,236.485698 137.580076,236.631256 137.612236,236.770084 C137.673572,236.964418 137.883136,237.061585 138.062033,237.148523 C139.388395,237.748699 140.261323,239.047895 140.316128,240.503337 C140.270126,242.497815 138.322711,244.113854 138.430048,246.128788 C138.478785,246.548339 138.550451,246.964905 138.644724,247.376615 C138.878549,249.093958 138.639985,250.842589 137.954695,252.434406 C137.336225,254.040216 136.492856,255.54886 135.828383,257.139328 C134.034308,261.460696 133.645847,266.247443 133.783853,270.947251 C133.891191,274.138415 132.761588,277.176158 131.739322,280.213902 C132.317002,274.095015 132.470709,267.943461 132.199342,261.803337 C132.127783,260.136158 131.918219,258.561032 131.994889,256.888739 C132.117561,254.23455 133.599845,251.82072 133.978083,249.217671 C134.192759,247.729484 134.049642,246.215726 134.085421,244.712197 C134.15698,241.64377 134.990126,238.616255 135.04635,235.537599 C135.117909,233.36413 134.918567,231.124178 136.04817,229.380288 Z" id="Path" fill="#000000" opacity="0.1"></path>
                <path d="M114.718606,145.867923 C113.70242,146.374767 112.751558,147.003288 111.886931,147.739664 C110.983458,148.63781 110.227846,149.673446 109.64817,150.808091 C108.942319,152.094364 108.309221,153.419284 107.751868,154.776591 C107.031171,156.535822 106.433146,158.484274 106.928945,160.320216 C107.378742,161.982281 108.651462,163.276134 109.53061,164.754094 C110.409758,166.232053 110.926002,167.965714 111.600697,169.586867 C112.50029,171.750108 113.73212,173.765042 114.621491,175.933397 C115.510862,178.101753 116.047551,180.536038 115.485305,182.791333 C115.321742,183.456158 114.243253,183.972677 114.243253,184.652845 C114.243253,185.777935 115.868654,187.000192 116.947144,187.327491 C118.189197,187.711044 119.543698,187.138271 120.560852,186.304682 C122.426486,184.826723 123.5612,182.612341 124.399458,180.382617 C125.748848,176.802785 126.469545,173.003049 127.118683,169.228884 C127.588925,166.457071 128.0285,163.680144 128.278955,160.887875 C128.508964,158.371765 128.580523,155.77383 127.91605,153.36 C127.296019,151.144476 126.089946,149.137407 124.425015,147.550444 C123.09607,146.271933 120.918645,144.553613 118.986563,144.507587 C117.458277,144.502473 116.027106,145.146843 114.718606,145.867923 Z" id="Path" fill="#464353"></path>
                <path d="M129.250106,207.517743 C129.137838,208.225052 128.721208,208.847525 128.110281,209.22072 C127.50711,209.587455 126.849894,209.856694 126.162865,210.018511 C124.79303,210.417407 123.341413,210.785618 121.956244,210.432749 C120.867644,210.078095 119.862496,209.505656 119.001897,208.750228 L103.524802,196.89587 C102.28146,196.014082 101.138244,194.998874 100.115547,193.868355 C99.5283985,193.138474 98.9888868,192.371481 98.5003679,191.572149 C97.8535735,190.657061 97.3470713,189.650413 96.9976379,188.585546 C96.8728543,188.11682 96.8109751,187.633561 96.8136302,187.148499 C96.8095226,186.689731 96.9220922,186.237453 97.1407551,185.83419 C97.5138819,185.210276 98.3112488,185.082425 98.9654985,184.908547 C101.161386,184.34051 103.44068,184.167351 105.697115,184.397143 C106.104304,184.377577 106.47531,184.629912 106.606931,185.015942 C106.94939,185.64497 107.245847,186.299568 107.552527,186.954166 C108.023223,188.070265 108.636585,189.120583 109.37727,190.078848 C110.090899,190.855027 110.850444,191.587652 111.65181,192.272773 C113.287435,193.806987 114.626602,195.648043 116.369564,197.05952 C118.388538,198.6909 120.841975,199.667683 123.142072,200.869484 C125.442168,202.071285 127.711597,203.631068 128.866757,205.957959 C129.134749,206.433009 129.267344,206.972517 129.250106,207.517743 Z" id="Path" fill="#FBBEBE"></path>
                <path d="M147.165305,124.813397 C147.166534,131.516082 141.947,137.058632 135.259654,137.455843 C128.572307,137.853055 122.734018,132.96731 121.942634,126.311559 C121.151251,119.655808 125.680951,113.535974 132.274791,112.352341 C138.86863,111.168709 145.242133,115.331354 146.812623,121.847251 C147.047212,122.818496 147.165603,123.814194 147.165305,124.813397 Z" id="Path" fill="#000000" opacity="0.1"></path>
                <path d="M147.165305,124.301993 C147.166534,131.004677 141.947,136.547228 135.259654,136.944439 C128.572307,137.34165 122.734018,132.455906 121.942634,125.800154 C121.151251,119.144403 125.680951,113.024569 132.274791,111.840937 C138.86863,110.657304 145.242133,114.819949 146.812623,121.335846 C147.047212,122.307091 147.165603,123.302789 147.165305,124.301993 Z" id="Path" fill="#FBBEBE"></path>
                <path d="M107.552527,186.933709 C106.969835,187.307035 106.106021,187.184298 105.385324,187.020648 C102.543427,186.386507 99.4050726,185.931357 96.8136302,187.148499 C96.8095226,186.689731 96.9220922,186.237453 97.1407551,185.83419 C97.5138819,185.210276 98.3112488,185.082425 98.9654985,184.908547 C101.161386,184.34051 103.44068,184.167351 105.697115,184.397143 C106.104304,184.377577 106.47531,184.629912 106.606931,185.015942 C106.94939,185.624514 107.245847,186.279112 107.552527,186.933709 Z" id="Path" fill="#000000" opacity="0.1"></path>
                <path d="M102.211191,169.714718 C101.582498,171.760336 101.066254,173.862209 99.834424,175.59587 C99.4271758,176.051766 99.1206367,176.588495 98.9348306,177.170996 C98.9208352,177.60112 98.8503766,178.027536 98.7252662,178.43928 C98.5514811,178.787035 98.1834656,179.017167 98.0352372,179.37515 C97.8154501,179.886555 98.1016844,180.546267 97.8103388,181.026987 C97.6739314,181.219955 97.5103846,181.392201 97.3247628,181.538391 C96.6296225,182.182761 96.4558374,183.210684 96.4405034,184.161897 C96.4251694,185.113109 96.5171733,186.084778 96.2053824,186.979736 C98.9041626,185.368812 102.338974,185.849532 105.40577,186.534814 C106.259361,186.724034 107.317406,186.867227 107.869429,186.181945 C108.421452,185.496663 108.10455,184.596591 108.18122,183.773229 C108.283446,182.69928 109.019477,181.809436 109.474385,180.832653 C109.985518,179.733133 110.159303,178.505762 110.552875,177.360216 C111.365576,174.951501 113.108538,172.987707 114.227919,170.711957 C114.642297,169.929299 114.889467,169.068971 114.953727,168.185618 C114.91513,167.040662 114.616214,165.919568 114.07969,164.907515 C113.015954,162.550718 111.750443,160.290408 110.297309,158.151861 C109.64817,157.195534 108.52879,155.426074 107.521859,156.955174 C106.704046,158.187659 106.192914,159.757671 105.589777,161.107779 C104.290033,163.905492 103.16175,166.779789 102.211191,169.714718 Z" id="Path" fill="#464353"></path>
                <path d="M148.330687,149.861993 C145.222494,150.076251 142.183676,148.875486 140.060561,146.594118 C139.884023,146.433322 139.756456,146.225916 139.692546,145.995774 C139.663337,145.696625 139.747226,145.397384 139.927667,145.157071 C140.541026,144.210972 141.599071,143.587059 142.089758,142.569364 C142.580445,141.551669 142.411772,140.380552 142.457773,139.26569 C142.539555,137.266098 143.326699,135.286963 143.393146,133.318055 C143.416801,132.81417 143.37904,132.309277 143.280697,131.814526 C143.045443,131.07978 142.901247,130.318914 142.851346,129.549004 C142.917793,128.050588 144.267183,126.884586 144.492081,125.406627 C144.783427,123.524658 143.224472,121.888163 141.655295,120.803986 C140.458703,119.973703 139.159895,119.301607 137.791133,118.804394 C136.950386,118.503091 136.07996,118.292227 135.194579,118.175366 C133.543903,117.952236 131.863702,118.140196 130.30304,118.722569 C129.65708,118.96643 129.04544,119.29304 128.483408,119.694238 C128.148652,119.906057 127.869874,120.195508 127.670707,120.538055 C127.506876,120.923749 127.433443,121.341841 127.456031,121.760312 C127.425363,123.851957 127.660484,126.076567 126.663775,127.897167 C126.152643,128.87395 125.283717,129.666627 124.859477,130.699664 C124.685856,131.129469 124.577323,131.582794 124.537464,132.044658 C124.486307,132.523673 124.460714,133.005077 124.460794,133.486819 C124.430126,136.181921 124.460794,139.02533 125.830629,141.362449 C126.314005,142.069044 126.752732,142.805199 127.14424,143.566603 C127.530288,144.349823 127.481897,145.277475 127.016457,146.01623 C126.739713,146.347731 126.389751,146.610342 125.994192,146.783337 C123.94267,147.768309 121.573748,147.853554 119.456805,147.018583 C121.964526,144.64097 122.734524,140.956056 121.388887,137.772389 C121.019636,137.144466 120.7798,136.448919 120.683524,135.726771 C120.734801,135.076259 120.908207,134.441253 121.194656,133.85503 C121.895292,131.93329 122.003899,129.845499 121.506447,127.861369 C121.194656,126.644226 120.652856,125.467995 120.555741,124.215054 C120.474628,123.269313 120.515859,122.317052 120.678412,121.381873 C121.24958,117.970324 123.68405,115.16712 126.980678,114.125042 C127.241355,114.038103 127.49181,113.956279 127.778045,113.884682 C129.018095,113.609243 130.285093,113.473728 131.555315,113.480672 C134.392101,113.388619 137.269777,113.306795 140.004337,114.048331 C141.609801,114.468935 143.103392,115.237077 144.379632,116.298511 C145.285601,117.060531 146.008789,118.016556 146.495721,119.095894 C146.761765,119.717683 146.962193,120.365565 147.093746,121.029004 C147.211307,121.576206 147.298199,122.128523 147.385092,122.68084 C148.003562,126.613541 148.622033,130.622953 147.962672,134.55054 C147.701994,136.084754 147.247086,137.618968 147.042633,139.183866 C146.546834,142.789268 147.441317,146.374214 148.330687,149.861993 Z" id="Path" fill="#464353"></path>
                <ellipse id="Oval" fill="#FFFFFF" cx="130.170145" cy="153.963457" rx="1" ry="1"></ellipse>
                <ellipse id="Oval" fill="#FFFFFF" cx="146.214598" cy="153.513421" rx="1" ry="1"></ellipse>
                <path d="M130.170145,105.891429 L128.125615,102.030324 C128.255218,101.875918 128.397094,101.732256 128.549855,101.600744 C128.845054,101.418737 129.190825,101.336282 129.536341,101.365498 L130.170145,105.891429 Z" id="Path" fill="#000000" opacity="0.1"></path>
                <path d="M135.807938,101.186507 L133.492507,104.612917 L132.173785,100.854094 C132.736518,100.61222 133.345489,100.496995 133.957638,100.516567 C134.607394,100.635207 135.232771,100.861638 135.807938,101.186507 Z" id="Path" fill="#000000" opacity="0.1"></path>
                <g id="Group" opacity="0.1" transform="translate(119.093901, 116.600240)" fill="#000000">
                    <path d="M7.92255566,28.4034094 C7.6458118,28.7349101 7.29585022,28.997521 6.90029042,29.1705162 C5.08770244,30.0382359 3.02008776,30.2110837 1.08871249,29.6563505 C0.864188878,29.9296024 0.621715599,30.1875809 0.362904163,30.4285714 C2.47984666,31.2635419 4.84876842,31.1782969 6.90029042,30.1933253 C7.29585022,30.0203301 7.6458118,29.7577193 7.92255566,29.4262185 C8.27822687,28.9098199 8.39719942,28.2662824 8.24968054,27.6567587 C8.19862148,27.9272362 8.08675989,28.1825562 7.92255566,28.4034094 Z" id="Path"></path>
                    <path d="M2.3767667,11.2764706 C2.54369774,11.9465505 2.64132628,12.6320276 2.66811229,13.3220888 C2.72702352,12.2904166 2.62878529,11.2557797 2.3767667,10.2536615 C2.0649758,9.03651861 1.52317522,7.86028812 1.42606002,6.60734694 C1.42606002,6.44881152 1.42606002,6.29027611 1.40050339,6.12662665 C1.37596748,6.62782012 1.3845049,7.13008719 1.42606002,7.63015606 C1.52317522,8.88309724 2.0649758,10.0593277 2.3767667,11.2764706 Z" id="Path"></path>
                    <path d="M28.8329913,17.9656423 C29.0499671,16.613225 29.1423589,15.2437294 29.1090029,13.8744058 C29.0910931,14.9025371 28.9988484,15.9280241 28.8329913,16.9428331 C28.5723136,18.4770468 28.1174056,20.0112605 27.9129526,21.5761585 C27.8075139,22.415589 27.7682059,23.2620149 27.7953921,24.107611 C27.8093485,23.6030798 27.8485847,23.0995663 27.9129526,22.5989676 C28.1174056,21.0340696 28.5723136,19.5151981 28.8329913,17.9656423 Z" id="Path"></path>
                    <path d="M2.27454017,20.1595678 C2.00685029,19.6560402 1.79106324,19.1265666 1.63051307,18.5793277 C1.58711809,18.7636217 1.56651847,18.9525521 1.56917715,19.1418727 C1.66545371,19.8640213 1.9052899,20.5595685 2.27454017,21.187491 C2.64981119,22.0448039 2.86629793,22.963196 2.91345595,23.8979352 C3.00596141,22.6184438 2.78671434,21.3356048 2.27454017,20.1595678 Z" id="Path"></path>
                    <path d="M24.1867957,15.1938295 C24.2316831,15.4271811 24.2641009,15.6627617 24.2839109,15.8995678 C24.2839109,15.8228571 24.2839109,15.7512605 24.2839109,15.6745498 C24.3075655,15.1706644 24.2698045,14.6657719 24.1714618,14.1710204 C24.0590126,13.6340456 23.8750048,13.1021849 23.7881123,12.560096 C23.7627408,12.6813681 23.7473552,12.8045181 23.7421104,12.9283073 C23.7969847,13.6988611 23.9463334,14.4597424 24.1867957,15.1938295 Z" id="Path"></path>
                    <path d="M20.9666602,28.9506122 C20.8879664,28.8684046 20.814557,28.7812914 20.7468732,28.6897959 C20.6210963,28.8947448 20.5688178,29.1364358 20.5986447,29.375078 C20.662555,29.6052197 20.7901219,29.8126261 20.9666602,29.9734214 C23.0897752,32.2547898 26.1285924,33.4555545 29.2367861,33.2412965 C29.1498935,32.9037695 29.063001,32.5713565 28.9812197,32.2184874 C25.9600614,32.3574683 23.0301577,31.1628225 20.9666602,28.9506122 Z" id="Path"></path>
                    <path d="M25.3879574,7.83471789 C25.3855503,7.81604371 25.3855503,7.79713756 25.3879574,7.77846339 C25.679303,5.8964946 24.1203485,4.26 22.5511713,3.17582233 C21.3545795,2.34553963 20.055771,1.67344397 18.6870087,1.17623049 C17.846262,0.874928102 16.9758362,0.664063281 16.090455,0.547202881 C14.4397795,0.324072982 12.7595777,0.512032487 11.1989158,1.09440576 C10.5529562,1.33826627 9.94131598,1.66487715 9.37928364,2.06607443 C9.04452776,2.27789384 8.76575028,2.56734515 8.56658277,2.90989196 C8.40275204,3.29558549 8.32931878,3.71367807 8.35190707,4.13214886 C8.35190707,4.48501801 8.35190707,4.83788715 8.35190707,5.19587035 L8.35190707,5.15495798 C8.32931878,4.73648719 8.40275204,4.31839462 8.56658277,3.93270108 C8.76575028,3.59015427 9.04452776,3.30070296 9.37928364,3.08888355 C9.94131598,2.68768628 10.5529562,2.36107539 11.1989158,2.11721489 C12.7595777,1.53484161 14.4397795,1.34688211 16.090455,1.570012 C16.9758362,1.6868724 17.846262,1.89773723 18.6870087,2.19903962 C20.055771,2.69625309 21.3545795,3.36834875 22.5511713,4.19863145 C23.8545595,5.0782473 25.1375024,6.34653061 25.3879574,7.83471789 Z" id="Path"></path>
                    <path d="M7.56987415,10.2843457 C7.05874153,11.2611285 6.18981607,12.0538055 5.76557599,13.0868427 C5.59195486,13.5166477 5.48342139,13.9699729 5.44356244,14.4318367 C5.39240529,14.9108519 5.36681233,15.3922556 5.36689255,15.8739976 C5.36689255,16.3086915 5.36689255,16.7484994 5.36689236,17.1883073 C5.36689255,17.0911405 5.36689255,16.9939736 5.36689255,16.8968067 C5.36681233,16.4150647 5.39240529,15.933661 5.44356244,15.4546459 C5.48342139,14.992782 5.59195486,14.5394568 5.76557599,14.1096519 C6.18981607,13.0868427 7.03829622,12.2839376 7.56987415,11.3071549 C8.39279768,9.77294118 8.3774637,8.00859544 8.36212972,6.25447779 C8.43001735,7.64227775 8.15804959,9.02566238 7.56987415,10.2843457 Z" id="Path"></path>
                </g>
                <path d="M147.057967,121.064802 C146.987633,121.164898 146.90523,121.255933 146.812623,121.335846 C146.632249,121.484359 146.430675,121.605023 146.214598,121.69383 C144.727202,122.338199 144.788538,120.236327 144.011617,119.515246 C143.513393,119.147561 142.901959,118.966567 142.283988,119.003842 C140.788074,118.928836 139.290455,118.862353 137.791133,118.804394 C135.291694,118.712341 132.797367,118.666315 130.30304,118.722569 C129.106989,118.743025 127.914347,118.792461 126.725111,118.870876 C125.345053,118.962929 123.862769,119.141921 122.687164,119.796519 C122.284724,120.018041 121.920566,120.302961 121.608674,120.640336 C121.327551,120.947179 121.031094,121.335846 120.642633,121.407443 C121.213801,117.995894 123.648271,115.19269 126.944898,114.150612 C132.383594,110.09744 140.049229,111.056154 144.323408,116.324082 C145.229377,117.086101 145.952565,118.042126 146.439497,119.121465 C146.713217,119.745743 146.920516,120.397109 147.057967,121.064802 Z" id="Path" fill="#000000" opacity="0.1"></path>
                <path d="M146.214598,120.67102 C144.727202,121.31539 144.788538,119.213517 144.011617,118.492437 C143.513393,118.124752 142.901959,117.943757 142.283988,117.981032 C137.104463,117.640177 131.9097,117.595783 126.725111,117.848067 C124.879923,117.970804 122.855837,118.246963 121.613785,119.617527 C121.296883,119.965282 120.964647,120.415318 120.489293,120.399976 C120.330842,119.377167 120.218393,118.313445 120.141723,117.265066 C120.095375,116.872345 120.116116,116.474598 120.203059,116.088836 C120.330842,115.649028 120.622188,115.275702 120.770416,114.846122 C120.916333,114.299751 120.968187,113.732506 120.923756,113.168715 C120.969346,108.925129 123.22995,105.014492 126.883562,102.8588 C127.334441,102.638198 127.752462,102.355926 128.125615,102.020096 C128.255218,101.86569 128.397094,101.722028 128.549855,101.590516 C128.845054,101.408509 129.190825,101.326054 129.536341,101.35527 C129.781684,101.35527 130.047473,101.35527 130.262149,101.35527 C130.923171,101.282412 131.569387,101.109996 132.178896,100.843866 C132.741629,100.601992 133.350601,100.486767 133.962749,100.506339 C134.612506,100.624979 135.237883,100.85141 135.813049,101.176279 C136.089554,101.309578 136.379011,101.414113 136.676864,101.488235 C137.141994,101.59563 137.622459,101.590516 138.08759,101.682569 C138.840992,101.874446 139.556473,102.192607 140.203679,102.623553 C140.976087,103.040313 141.690883,103.556065 142.32999,104.157767 C143.024906,104.952365 143.581284,105.858257 143.975837,106.837527 C144.652797,108.190395 145.167502,109.618605 145.509235,111.092413 C145.923253,113.209628 145.7188,115.50072 146.700174,117.423601 C147.298199,118.630516 147.845111,119.970396 146.214598,120.67102 Z" id="Path" fill="#FED253"></path>
                <path d="M120.305286,119.06521 C120.305286,119.06521 130.901065,109.42012 146.679729,117.418487 C146.679729,117.418487 128.866757,113.363049 120.305286,119.06521 Z" id="Path" fill="#000000" opacity="0.1"></path>
                <path d="M4.8506486,168.349268 C3.4092546,165.986579 1.24205227,163.823337 1.57939981,161.143577 C5.54578896,161.598727 9.30772507,160.632173 12.941878,158.949652 C16.576031,157.267131 19.9495063,155.083433 23.3536496,152.940648 C24.692817,152.096831 26.0268732,151.268355 27.355818,150.501248 C29.4616844,149.294334 31.5522168,147.944226 33.6938625,146.762881 C36.7606583,145.075246 39.8887899,143.694454 43.3338238,143.428523 C43.9578449,143.379786 44.5840219,143.364422 45.2096805,143.382497 C49.4520813,143.464322 53.8478219,144.604754 57.57909,142.702329 L57.8090997,142.579592 C59.9251888,141.418703 61.463698,139.444682 63.2782188,137.843986 C64.5827497,136.715171 66.0031012,135.727768 67.5155082,134.898295 C70.2705131,133.364082 73.2555276,132.136711 76.0718683,130.689436 C76.7927626,130.317906 77.4772663,129.879591 78.1163988,129.38024 L78.5968635,128.996687 L78.7042014,128.904634 C78.8217619,128.807467 78.9393224,128.7103 79.0517715,128.608019 L79.2715586,128.413685 L79.4964569,128.209124 L79.670242,128.045474 L79.951365,127.779544 L79.9820329,127.743745 L80.4267183,127.303938 L80.6056147,127.124946 L80.9174056,126.802761 L81.1014134,126.618655 C81.4132043,126.296471 81.7249952,125.969172 82.0418974,125.652101 C82.3587996,125.33503 82.788151,124.90545 83.1715005,124.552581 L83.539516,124.225282 L83.6468538,124.133229 L83.9433107,123.887755 L84.0813166,123.770132 L84.3726621,123.545114 L84.5157793,123.432605 C84.6588964,123.32521 84.8071249,123.222929 84.9553533,123.120648 C85.0917596,123.026106 85.2353098,122.942324 85.3847047,122.87006 L84.4288867,120.553397 L87.1787803,119.418079 L125.104821,211.496471 L122.349816,212.631789 L100.657348,159.957119 L100.504008,160.11054 C95.4789088,165.071869 89.3236017,168.73648 82.568364,170.788667 L82.5274734,170.788667 C78.7502033,171.9291 74.5231365,172.737119 71.3438916,174.854334 C70.2165661,175.587459 69.2369408,176.525971 68.4559923,177.621032 C67.7097386,178.684754 67.1883833,179.896783 66.4114618,180.919592 C66.2632333,181.108812 66.0996709,181.292917 65.9361084,181.466795 C65.0065542,182.388739 63.9780511,183.205119 62.8693127,183.90108 L62.3837367,184.233493 C59.0905746,186.551838 55.6596644,188.667838 52.109971,190.569796 C50.0615552,191.636569 47.9257688,192.52624 45.7259245,193.2291 C44.1260794,193.740504 42.475121,194.11383 40.8752759,194.62012 C39.7991027,194.946155 38.7539915,195.36716 37.7522556,195.878175 C35.0432527,197.294766 32.9629429,199.514262 30.9950823,201.882065 C29.2725653,203.958367 27.6369409,206.157407 25.7457502,208.049604 C24.5599226,209.225834 22.7556244,210.340696 21.324453,209.6503 L21.0331075,209.481537 C21.0791094,209.404826 21.1148887,209.328115 21.1557793,209.246291 C22.2853824,206.878487 20.8951016,203.953253 19.0243562,202.055942 C18.8301258,201.856495 18.6307841,201.662161 18.4263311,201.478055 C18.221878,201.29395 17.8538625,200.966651 17.5625169,200.710948 C15.9626718,199.33527 14.2606002,198.056759 13.1514424,196.282185 C12.3048754,194.791532 11.7302599,193.162011 11.4544821,191.469868 C10.9433495,189.061152 10.6008906,186.58084 9.29239109,184.530108 C8.43368829,183.174886 7.15585673,182.019112 6.22559535,180.720144 C5.6375587,179.95146 5.25100021,179.047839 5.10110358,178.091525 C4.89153921,176.42946 5.66334947,174.803193 5.95469506,173.146242 C6.04136936,172.694812 6.07737187,172.235107 6.06203291,171.775678 C5.95526064,170.549223 5.53839196,169.370106 4.8506486,168.349268 Z" id="Path" fill="url(#linearGradient-2)"></path>
                <polygon id="Rectangle" fill="#D6D8E1" transform="translate(104.092731, 166.018044) rotate(157.600000) translate(-104.092731, -166.018044) " points="102.637395 117.062783 105.566412 117.062234 105.548067 214.973305 102.619051 214.973854"></polygon>
                <path d="M10.2073185,184.207923 C11.4902614,186.227971 11.8327202,188.662257 12.3285189,191.03006 C12.6035098,192.694519 13.1692826,194.297529 13.9999226,195.765666 C15.0937464,197.509556 16.76515,198.767611 18.3343272,200.117719 C18.6205615,200.368307 18.9067957,200.629124 19.1828074,200.874598 C19.3821491,201.053589 19.5814908,201.247923 19.7706099,201.437143 C21.6106873,203.30377 22.9754114,206.182977 21.8662536,208.509868 C21.8322005,208.589097 21.7929273,208.665977 21.7486931,208.74 C21.8384867,208.801019 21.9324219,208.855701 22.0298161,208.903649 C23.4405421,209.588932 25.2141723,208.494526 26.3795547,207.333637 C28.2400774,205.472125 29.8501452,203.313998 31.5419942,201.273493 C33.4740755,198.941489 35.5237173,196.757791 38.1867183,195.366771 C39.1697876,194.862982 40.1961966,194.448776 41.253514,194.129172 C42.8226912,193.617767 44.4480929,193.25467 46.0223814,192.763721 C48.1847156,192.071793 50.2844813,191.197565 52.29909,190.150444 C55.7950114,188.278334 59.1746483,186.196532 62.419516,183.916423 L62.8999806,183.589124 C63.9895852,182.90593 65.0008787,182.10504 65.9156631,181.200864 C66.0792256,181.026987 66.2376767,180.847995 66.3859051,180.658776 C67.1730494,179.635966 67.6892933,178.46485 68.4304356,177.416471 C69.1990815,176.339512 70.1630995,175.416615 71.272333,174.695798 C74.4004647,172.614382 78.5508616,171.816591 82.2667957,170.696615 L82.3076864,170.696615 C88.947963,168.675527 94.9990451,165.072779 99.9417619,160.197479 C100.351411,159.855098 100.657614,159.40529 100.826021,158.898511 C100.984472,158.177431 100.596012,157.461465 100.222885,156.827323 C99.7884221,156.080672 99.364182,155.334022 98.9450532,154.577143 C97.0600767,151.144624 95.3772832,147.604779 93.9052856,143.975726 C93.583272,143.177935 93.2714811,142.385258 92.9699129,141.582353 C92.1963988,139.536735 91.4910358,137.462137 90.8538238,135.358559 C90.6442594,134.663049 90.4398064,133.962425 90.245576,133.261801 C90.2097967,133.128836 90.1689061,132.985642 90.1331268,132.832221 C89.2846467,129.421152 88.1499322,121.438127 84.6537851,123.826387 C83.6140125,124.570202 82.6470541,125.410962 81.7658858,126.337383 C81.0860794,127.027779 80.421607,127.738631 79.7213553,128.423914 C79.1509923,128.98515 78.5485461,129.512784 77.9170571,130.004154 C77.2761906,130.495127 76.5918368,130.9265 75.8725266,131.292893 C73.0970765,132.714598 70.1631752,133.90617 67.4592836,135.430156 C65.970313,136.244239 64.5721594,137.214553 63.2884414,138.324706 C61.5045886,139.899832 59.991636,141.843169 57.9113262,142.983601 L57.6864279,143.106339 C54.0164956,144.972965 49.697425,143.852989 45.5214714,143.771164 C44.9077289,143.755707 44.2935978,143.771068 43.681394,143.817191 C40.2925847,144.072893 37.195121,145.433229 34.1998838,147.095294 C32.0940174,148.261297 30.0392643,149.58072 27.9691772,150.772293 C26.6606776,151.524058 25.3521781,152.337191 24.033456,153.17078 C20.6906486,155.277767 17.3018393,157.487035 13.8108035,159.082617 C10.2328751,160.708884 6.53738625,161.680552 2.63744434,161.23563 C2.30520813,163.869364 4.43151985,165.996807 5.85246854,168.318583 C6.53494292,169.316593 6.94865097,170.47383 7.0536302,171.678511 C7.07241389,172.129078 7.03983207,172.580319 6.956515,173.023505 C6.67028074,174.654886 5.93424976,176.250468 6.1182575,177.892077 C6.26330136,178.828132 6.64119198,179.712691 7.21719264,180.464442 C8.10656341,181.737839 9.35883833,182.878271 10.2073185,184.207923 Z" id="Path" fill="#F86D70"></path>
                <path d="M114.125692,194.86048 C114.125692,194.86048 118.603214,198.767611 123.142072,200.849028 C127.680929,202.930444 124.67547,210.396951 124.67547,210.396951 C124.67547,210.396951 119.865712,211.501585 116.497348,206.817119 C113.128984,202.132653 114.125692,194.86048 114.125692,194.86048 Z" id="Path" fill="#FBBEBE"></path>
                <path d="M355.400736,261.368643 C355.400736,261.368643 343.542459,276.981825 333.703156,277.109676 C323.863853,277.237527 318.088054,283.686339 322.759806,287.716206 C327.431559,291.746074 378.340368,285.414886 378.340368,285.414886 C378.340368,285.414886 378.820833,266.226987 374.409758,263.42449 C369.998683,260.621993 355.400736,261.368643 355.400736,261.368643 Z" id="Path" fill="#444176"></path>
                <path d="M482.902769,280.111621 C482.902769,280.111621 484.717289,292.477383 479.110165,300.910444 C473.50304,309.343505 489.240813,312.596038 489.240813,312.596038 C489.240813,312.596038 500.67485,315.782089 501.507996,304.480048 C502.341142,293.178007 502.070242,284.53527 500.996864,283.614742 C499.923485,282.694214 499.029003,276.337455 499.029003,276.337455 L482.902769,280.111621 Z" id="Path" fill="#444176"></path>
                <path d="M303.392991,303.467467 C303.392991,303.467467 302.978974,263.470516 342.535528,247.212965 L351.720581,229.728043 L356.126544,218.988547 C359.364699,211.094114 366.251231,205.278781 374.57332,203.411164 L381.698509,201.810468 L383.901491,192.523361 C386.300386,182.37728 394.499572,174.630044 404.760813,172.81383 C409.093549,172.009091 413.49018,171.598293 417.896922,171.586459 C421.862918,171.646234 425.507571,173.781013 427.501104,177.211909 C427.501104,177.211909 464.977348,176.797671 466.638529,197.212941 C466.638529,197.212941 470.390242,215.955918 475.803136,219.290276 C475.803136,219.290276 484.962633,217.20886 494.12213,230.541176 L504.114773,264.703001 C504.114773,264.703001 530.346099,289.281104 522.433766,311.752221 C522.433766,311.752221 511.607977,327.165954 456.645886,316.748643 C456.645886,316.748643 397.937193,334.647803 366.686544,310.100384 C366.681433,310.131068 314.637909,320.129028 303.392991,303.467467 Z" id="Path" fill="#A8A8A8"></path>
                <path d="M329.624318,297.218103 C329.624318,297.218103 337.955779,285.552965 337.536651,277.217071 C337.117522,268.881176 339.4994,248.578415 339.4994,248.578415" id="Path" stroke="#000000" opacity="0.1"></path>
                <path d="M360.021375,265.971285 C360.021375,265.971285 368.347725,250.557551 367.514579,242.226771 C367.514579,242.226771 376.260058,226.373229 382.920116,227.641513" id="Path" stroke="#000000" opacity="0.1"></path>
                <path d="M405.823969,222.225738 C405.823969,222.225738 428.722711,213.894958 429.974985,207.231357" id="Path" stroke="#000000" opacity="0.1"></path>
                <path d="M414.150319,241.393181 C414.150319,241.393181 438.301336,230.561633 438.301336,227.641513 L450.369177,227.641513 C450.369177,227.641513 467.860136,250.557551 465.779826,260.55551" id="Path" stroke="#000000" opacity="0.1"></path>
                <path d="M442.467067,258.054742 C442.467067,258.054742 419.149197,256.387563 410.817735,263.056279 C402.486273,269.724994 387.499864,273.054238 387.499864,273.054238 C387.499864,273.054238 378.754385,291.802329 375.421801,295.131573 C372.089216,298.460816 366.676321,310.131068 366.676321,310.131068" id="Path" stroke="#000000" opacity="0.1"></path>
                <path d="M442.467067,280.137191 C442.467067,280.137191 444.961394,288.882209 448.293979,293.883745 C451.626563,298.885282 456.620329,316.79467 456.620329,316.79467" id="Path" stroke="#000000" opacity="0.1"></path>
                <path d="M481.604492,305.548884 C481.604492,305.548884 486.889603,320.261993 491.535799,320.405186" id="Path" stroke="#000000" opacity="0.1"></path>
                <path d="M446.985479,242.395534 C446.985479,242.395534 460.714501,246.108331 466.454521,255.103938 C472.19454,264.099544 489.726389,272.256447 489.726389,272.256447" id="Path" stroke="#000000" opacity="0.1"></path>
                <path d="M452.873727,198.077215 C452.873727,198.077215 452.873727,217.239544 458.286621,217.239544 C463.699516,217.239544 475.77758,219.32096 475.77758,219.32096" id="Path" stroke="#000000" opacity="0.1"></path>
                <path d="M426.345944,175.319712 C426.345944,175.319712 424.960774,208.422929 417.881588,216.99407" id="Path" stroke="#000000" opacity="0.1"></path>
                <g id="Group" opacity="0.05" transform="translate(329.680542, 170.809124)" fill="#000000">
                    <path d="M173.575528,93.494982 L163.582885,59.3331573 C154.423388,46.0008403 145.263892,48.0822569 145.263892,48.0822569 C139.850997,44.7478992 136.104395,25.9998079 136.104395,25.9998079 C134.438103,5.58453782 96.9618587,6.00388956 96.9618587,6.00388956 C94.9645907,2.56680106 91.3105585,0.43107412 87.3372314,0.378439376 C85.5687125,0.378439376 83.759303,0.434693878 81.9498935,0.5830012 C82.9721588,0.685282113 83.9518296,0.830180072 84.8889061,1.01769508 L87.8023621,6.01923169 C87.8023621,6.01923169 125.273495,5.59987995 126.939787,26.0151501 C126.939787,26.0151501 130.6915,44.7632413 136.104395,48.097599 C136.104395,48.097599 145.263892,46.0110684 154.423388,59.3484994 L164.416031,93.5103241 C164.416031,93.5103241 190.647357,118.088427 182.735024,140.559544 C182.735024,140.559544 177.393688,148.16413 155.174753,149.084658 C185.132236,150.184178 191.894521,140.559544 191.894521,140.559544 C199.806854,118.073085 173.575528,93.494982 173.575528,93.494982 Z" id="Path"></path>
                    <path d="M27.0082478,138.902593 C18.1940752,140.489517 9.28084613,141.465214 0.332236205,141.822713 C10.764453,142.221609 21.6157986,141.091405 28.6080929,140.129964 C28.0662924,139.715726 27.5347144,139.316831 27.0082478,138.902593 Z" id="Path"></path>
                    <path d="M116.947144,145.571309 C104.128323,149.168374 90.9335227,151.255401 77.6308228,151.789988 C96.8238529,152.485498 115.00484,148.4812 122.498045,146.558319 C120.688635,146.256591 118.853669,145.91395 116.947144,145.571309 Z" id="Path"></path>
                </g>
                <path d="M113.905905,381.359496 C113.905905,381.359496 125.360387,381.006627 128.810532,378.546771 C132.260678,376.086915 146.424163,373.151453 147.282865,377.094382 C148.141568,381.037311 164.492701,396.706747 151.561045,396.814142 C138.62939,396.921537 121.521781,394.799208 118.076747,392.697335 C114.631713,390.595462 113.905905,381.359496 113.905905,381.359496 Z" id="Path" fill="#A8A8A8"></path>
                <path d="M151.796167,395.438463 C138.864511,395.545858 121.751791,393.423529 118.306757,391.347227 C115.684647,389.746531 114.636825,384.008571 114.289255,381.36461 L113.905905,381.36461 C113.905905,381.36461 114.631713,390.60569 118.076747,392.702449 C121.521781,394.799208 138.634501,396.921537 151.561045,396.819256 C155.297425,396.788571 156.585479,395.45892 156.513921,393.490012 C155.997677,394.676471 154.571617,395.418007 151.796167,395.438463 Z" id="Path" fill="#000000" opacity="0.2"></path>
                <path d="M393.158103,352.618559 C393.158103,352.618559 379.669313,349.918343 376.07605,346.318055 C372.482788,342.717767 356.295218,336.427491 354.496031,340.922737 C352.696844,345.417983 330.222343,360.714094 345.505208,363.424538 C360.788074,366.134982 381.4685,367.00437 385.966467,365.224682 C390.464434,363.444994 393.158103,352.618559 393.158103,352.618559 Z" id="Path" fill="#A8A8A8"></path>
                <path d="M345.505208,361.726675 C360.793185,364.421777 381.4685,365.306507 385.966467,363.521705 C389.385944,362.15114 391.767822,355.569364 392.708306,352.50605 L393.158103,352.603217 C393.158103,352.603217 390.459322,363.393854 385.966467,365.193998 C381.473611,366.994142 360.793185,366.09407 345.505208,363.393854 C341.094134,362.616519 339.831636,360.78569 340.306989,358.474142 C340.685227,359.998127 342.223737,361.159016 345.505208,361.726675 Z" id="Path" fill="#000000" opacity="0.2"></path>
                <path d="M264,58.7348139 L260.790087,58.7348139 C262.032166,58.7348139 263.039071,57.727374 263.039071,56.4846339 C263.039071,55.2418937 262.032166,54.2344538 260.790087,54.2344538 L234.783659,54.2344538 C233.54158,54.2344538 232.534676,55.2418937 232.534676,56.4846339 C232.534676,57.727374 233.54158,58.7348139 234.783659,58.7348139 L237.993572,58.7348139 C236.794528,58.7920553 235.851774,59.7813897 235.851774,60.982437 C235.851774,62.1834843 236.794528,63.1728186 237.993572,63.23006 L233.500716,63.23006 C232.258637,63.23006 231.251733,64.2375 231.251733,65.4802401 C231.251733,66.7229802 232.258637,67.7304202 233.500716,67.7304202 L259.507144,67.7304202 C260.749224,67.7304202 261.756128,66.7229802 261.756128,65.4802401 C261.756128,64.2375 260.749224,63.23006 259.507144,63.23006 L264,63.23006 C264.828136,63.2695946 265.610849,62.8500565 266.036746,62.1383536 C266.462643,61.4266508 266.462643,60.5382231 266.036746,59.8265203 C265.610849,59.1148175 264.828136,58.6952794 264,58.7348139 Z" id="Path" fill="#FFB400" opacity="0.1"></path>
                <path d="M365.010029,137.905354 L361.800116,137.905354 C362.999161,137.848113 363.941914,136.858778 363.941914,135.657731 C363.941914,134.456684 362.999161,133.467349 361.800116,133.410108 L335.768132,133.410108 C334.939995,133.370573 334.157283,133.790112 333.731385,134.501814 C333.305488,135.213517 333.305488,136.101945 333.731385,136.813648 C334.157283,137.525351 334.939995,137.944889 335.768132,137.905354 L338.978045,137.905354 C337.779,137.962596 336.836247,138.95193 336.836247,140.152977 C336.836247,141.354024 337.779,142.343359 338.978045,142.4006 L334.485189,142.4006 C333.243109,142.4006 332.236205,143.40804 332.236205,144.65078 C332.236205,145.89352 333.243109,146.90096 334.485189,146.90096 L360.486505,146.90096 C361.728585,146.90096 362.735489,145.89352 362.735489,144.65078 C362.735489,143.40804 361.728585,142.4006 360.486505,142.4006 L365.010029,142.4006 C365.838165,142.440135 366.620878,142.020597 367.046775,141.308894 C367.472673,140.597191 367.472673,139.708763 367.046775,138.997061 C366.620878,138.285358 365.838165,137.86582 365.010029,137.905354 Z" id="Path" fill="#FFB400" opacity="0.1"></path>
                <path d="M215.335063,123.258727 L212.12515,123.258727 C212.953286,123.298262 213.735999,122.878724 214.161896,122.167021 C214.587794,121.455318 214.587794,120.566891 214.161896,119.855188 C213.735999,119.143485 212.953286,118.723947 212.12515,118.763481 L186.113611,118.763481 C185.285475,118.723947 184.502762,119.143485 184.076865,119.855188 C183.650967,120.566891 183.650967,121.455318 184.076865,122.167021 C184.502762,122.878724 185.285475,123.298262 186.113611,123.258727 L189.323524,123.258727 C188.495388,123.219193 187.712675,123.638731 187.286777,124.350434 C186.86088,125.062137 186.86088,125.950564 187.286777,126.662267 C187.712675,127.37397 188.495388,127.793508 189.323524,127.753974 L184.825557,127.753974 C183.583477,127.753974 182.576573,128.761414 182.576573,130.004154 C182.576573,131.246894 183.583477,132.254334 184.825557,132.254334 L210.831985,132.254334 C212.074064,132.254334 213.080968,131.246894 213.080968,130.004154 C213.080968,128.761414 212.074064,127.753974 210.831985,127.753974 L215.32484,127.753974 C216.152976,127.793508 216.935689,127.37397 217.361587,126.662267 C217.787484,125.950564 217.787484,125.062137 217.361587,124.350434 C216.935689,123.638731 216.152976,123.219193 215.32484,123.258727 L215.335063,123.258727 Z" id="Path" fill="#FFB400" opacity="0.1"></path>
            </g>
        </g>
    </g>
</svg>