<svg xmlns="http://www.w3.org/2000/svg" xmlns:xlink="http://www.w3.org/1999/xlink" width="281" height="211" viewBox="0 0 281 211">
    <linearGradient id="a">
        <stop offset="0" stop-color="#808080" stop-opacity=".25"/>
        <stop offset=".54" stop-color="#808080" stop-opacity=".12"/>
        <stop offset="1" stop-color="#808080" stop-opacity=".1"/>
    </linearGradient>
    <linearGradient id="b" x1="50.016093%" x2="50.016093%" y1="99.981964%" y2=".000901%" xlink:href="#a"/>
    <linearGradient id="c" x1="50.028354%" x2="50.028354%" y1="99.975764%" y2="-.106057%" xlink:href="#a"/>
    <linearGradient id="d" x1="49.926553%" x2="49.926553%" y1="99.961291%" y2="-.077729%" xlink:href="#a"/>
    <linearGradient id="e" x1="50%" x2="50%" y1="99.989913%" y2="0%" xlink:href="#a"/>
    <linearGradient id="f" x1="49.970326%" x2="49.970326%" y1="100.03535%" y2="0%" xlink:href="#a"/>
    <linearGradient id="g" x1="50.02061%" x2="50.02061%" y1="99.978697%" y2="-.045911%" xlink:href="#a"/>
    <linearGradient id="h" x1="50.024438%" x2="50.024438%" y1="78.348059%" y2="21.348059%" xlink:href="#a"/>
    <linearGradient id="i" x1="50.000587%" x2="50.000587%" y1="99.92731%" y2=".101498%" xlink:href="#a"/>
    <linearGradient id="j" x1="49.988281%" x2="49.988281%" y1="99.782018%" y2="0%" xlink:href="#a"/>
    <linearGradient id="k" x1="50.032072%" x2="50.032072%" y1="100%" y2=".019833%" xlink:href="#a"/>
    <linearGradient id="l" x1="50%" x2="50%" y1="100%" y2="0%" xlink:href="#a"/>
    <linearGradient id="m" x1="50.003585%" x2="50.003585%" y1="100%" y2="-.007329%" xlink:href="#a"/>
    <linearGradient id="n" x1="49.994024%" x2="49.994024%" y1="99.898804%" y2="-.123569%" xlink:href="#a"/>
    <linearGradient id="o" x1="49.974857%" x2="49.974857%" y1="99.986696%" y2="-.02918%" xlink:href="#a"/>
    <linearGradient id="p" x1="50.040225%" x2="50.040225%" y1="99.997206%" y2="-.180464%" xlink:href="#a"/>
    <linearGradient id="q" x1="50.040225%" x2="50.040225%" y1="99.796861%" y2="-.189908%" xlink:href="#a"/>
    <linearGradient id="r" x1="49.828066%" x2="49.828066%" y1="100%" y2="0%" xlink:href="#a"/>
    <linearGradient id="s" x1="49.93858%" x2="49.93858%" y1="99.888889%" y2="-.222222%" xlink:href="#a"/>
    <linearGradient id="t" x1="50.007214%" x2="50.007214%" y1="100.021184%" y2=".094758%" xlink:href="#a"/>
    <linearGradient id="u" x1="49.986034%" x2="49.986034%" y1="100.005102%" y2="0%" xlink:href="#a"/>
    <linearGradient id="v" x1="49.783088%" x2="49.783088%" y1="100.11796%" y2="0%" xlink:href="#a"/>
    <linearGradient id="w" x1="49.790531%" x2="49.790531%" y1="100.035378%" y2="0%" xlink:href="#a"/>
    <linearGradient id="x" x1="51.108148%" x2="51.108148%" y1="100.086812%" y2="0%" xlink:href="#a"/>
    <linearGradient id="y" x1="49.981364%" x2="49.981364%" y1="100.109496%" y2=".573693%" xlink:href="#a"/>
    <linearGradient id="z" x1="50%" x2="50%" y1="100.006316%" y2="0%" xlink:href="#a"/>
    <linearGradient id="A" x1="49.993395%" x2="49.993395%" y1="66.72%" y2="32.72%" xlink:href="#a"/>
    <linearGradient id="B" x1="49.997016%" x2="49.997016%" y1="100.024637%" y2="0%" xlink:href="#a"/>
    <linearGradient id="C" x1="49.995576%" x2="49.995576%" y1="99.974189%" y2="-.014186%" xlink:href="#a"/>
    <linearGradient id="D" x1="49.712512%" x2="49.712512%" y1="100%" y2="0%" xlink:href="#a"/>
    <linearGradient id="E" x1="49.888288%" x2="49.888288%" y1="100%" y2="-.035894%" xlink:href="#a"/>
    <linearGradient id="F" x1="50.033257%" x2="50.033257%" y1="99.858086%" y2="-.133903%" xlink:href="#a"/>
    <linearGradient id="G" x1="50.083266%" x2="50.083266%" y1="100%" y2="0%" xlink:href="#a"/>
    <linearGradient id="H" x1="50.07356%" x2="50.07356%" y1="99.959167%" y2="0%" xlink:href="#a"/>
    <linearGradient id="I" x1="50.008716%" x2="50.008716%" y1="100.128096%" y2=".042699%" xlink:href="#a"/>
    <linearGradient id="J" x1="49.991516%" x2="49.991516%" y1="100.132392%" y2=".132392%" xlink:href="#a"/>
    <g fill="none" fill-rule="evenodd">
        <path fill="#3a33c5" d="m160.11607 29.5665409c-17.103854-.5945157-33.393743-6.1415598-48.948947-12.2088051-15.5552049-6.0672452-30.9624158-12.79801253-47.6566441-16.00149681-10.7374782-2.07018868-23.0183202-2.36213836-31.6680288 3.4211195-8.3220081 5.56296851-11.0176093 15.17607551-12.4631915 24.07788681-1.0888115 6.7042264-1.7283561 13.7614465 1.2526617 20.0383648 2.0719131 4.3580125 5.7453304 8.0206541 8.2876524 12.1928805 8.8452718 14.5258239 2.5925341 32.43561-6.990064 46.6164024-4.4926687 6.651145-9.7120926 13.005032-13.18201847 20.078176-3.46992588 7.073145-5.07407288 15.194654-2.03755739 22.419082 3.00744528 7.166038 10.17721596 12.537912 17.94424736 16.319987 15.7745526 7.683585 34.3557018 9.88117 52.4875841 11.128592 40.1248167 2.754943 80.4610537 1.563257 120.6915807.366264 14.889232-.440579 29.841891-.88912 44.487991-3.20083 8.134373-1.284579 16.530378-3.322919 22.436916-8.243598 7.494828-6.245069 9.352679-16.818956 4.328818-24.65117-8.425075-13.135082-31.712955-16.396956-37.608922-30.492817-3.240007-7.760554.08721-16.4022645 4.799227-23.5974972 10.105862-15.4388302 27.043223-28.9826415 27.933828-46.6270189.613117-12.118566-7.529184-24.2557107-20.119227-29.991195-13.195232-6.01150941-31.496251-5.25509432-41.226842 4.6924277-10.029223 10.247434-27.651055 14.1914088-42.749064 13.6632453z" opacity=".1"/>
        <path fill="#e8e9ed" d="m0 32.772679h68.581909v68.876239h-68.581909z"/>
        <path fill="#e8e9ed" d="m212.077747 32.772679h68.581909v68.876239h-68.581909z"/>
        <path fill="#17c671" d="m38.4228883 8.50104403-.6844712-.70333334c-.0275318-.03092153-.067053-.04834676-.1083526-.04777358-.0414446-.00130792-.0812614.01624764-.1083526.04777358l-4.7305159 4.77735851-1.7230706-1.7278113c-.0279975-.0302226-.0672493-.0473902-.1083526-.0473902-.0411032 0-.080355.0171676-.1083526.0473902l-.6897568.6927169c-.0303768.0290546-.0475694.0693427-.0475694.1114717 0 .0421291.0171926.0824172.0475694.1114717l2.1723375 2.1790063c.1166331.129715.2783958.2095184.4519096.2229434.1714004-.0150361.3317456-.0913151.4519096-.2149811l5.187711-5.22589938c.0565286-.06347213.0565286-.15947126 0-.22294339z" opacity=".5"/>
        <path fill="#3a33c5" fill-rule="nonzero" d="m34.2896331 3.94928302c3.3267254.00239242 6.1886417 2.36418381 6.8359256 5.64133546.647284 3.27715162-1.1002864 6.55721342-4.1742173 7.83470062-3.073931 1.2774873-6.6183546.1967121-8.4661511-2.5815215s-1.4844879-6.48038817.8677928-8.84290452c1.3068306-1.31833783 3.0843625-2.0570579 4.93665-2.05161006zm0-1.09083019c-3.2635649.00000018-6.2057286 1.97450318-7.4543938 5.00268677-1.2486652 3.0281836-.5578908 6.5136067 1.7501761 8.8308198s5.7788218 3.0098102 8.7936558 1.7547942c3.014834-1.2550161 4.9799353-4.2104531 4.9788664-7.488024.0007018-2.14900294-.8492083-4.2101519-2.3625371-5.72947757-1.5133288-1.51932568-3.5659482-2.37220804-5.7057674-2.3707992z" opacity=".5"/>
        <path fill="#17c671" d="m91.3914523 31.1483774-.8615353-.8864655c-.0346029-.0378429-.0836257-.0590808-.1347801-.0583899-.0522036-.0021904-.1026355.0192377-.1374228.0583899l-5.9541074 6.0247799-2.1696947-2.1763522c-.0349865-.0372969-.083758-.0584258-.13478-.0583899-.051813-.0001391-.1014417.0209478-.1374228.0583899l-.8694636.873195c-.038324.0361221-.0600638.0865554-.0600638.1393396s.0217398.1032175.0600638.1393396l2.7325997 2.7390189c.147704.1629037.3520337.2626569.5708332.2786792.2138595-.0184324.4142671-.1124827.5655477-.2654088l6.5275833-6.5927547c.0628491-.0772115.0628491-.1881972 0-.2654088z" opacity=".8"/>
        <path fill="#3a33c5" fill-rule="nonzero" d="m86.1852421 25.4155472c4.1918849.0009367 7.7994292 2.9754165 8.6165962 7.1045257.817167 4.1291093-1.3836095 8.2629663-5.2565403 9.8736907-3.8729309 1.6107244-8.3394754.2497588-10.6683128-3.2506575-2.3288373-3.5004163-1.8714287-8.1654812 1.0925176-11.1424772 1.6442587-1.6619063 3.8829506-2.5929624 6.2157393-2.5850817zm0-1.3721636c-5.6090448 0-10.156074 4.5665435-10.156074 10.1996604s4.5470292 10.1996604 10.156074 10.1996604 10.156074-4.5665435 10.156074-10.1996604c.0007012-2.7053339-1.0690855-5.3000667-2.9738708-7.2130267-1.9047854-1.9129601-4.48843-2.9873379-7.1822032-2.9866337z" opacity=".8"/>
        <path fill="#3a33c5" fill-rule="nonzero" d="m246.36738 3.94928302c3.326726.00239242 6.188642 2.36418381 6.835926 5.64133546.647284 3.27715162-1.100287 6.55721342-4.174217 7.83470062-3.073931 1.2774873-6.618355.1967121-8.466151-2.5815215-1.847797-2.7782336-1.484488-6.48038817.867792-8.84290452 1.306831-1.31833783 3.084363-2.0570579 4.93665-2.05161006zm0-1.09083019c-3.263565.00000018-6.205728 1.97450318-7.454393 5.00268677-1.248666 3.0281836-.557891 6.5136067 1.750176 8.8308198 2.308066 2.3172131 5.778821 3.0098102 8.793655 1.7547942 3.014834-1.2550161 4.979936-4.2104531 4.978867-7.488024.000702-2.14900294-.849209-4.2101519-2.362537-5.72947757-1.513329-1.51932568-3.565948-2.37220804-5.705768-2.3707992z" opacity=".5"/>
        <path fill="#3a33c5" fill-rule="nonzero" d="m194.101787 25.4155472c4.193123-.0053989 7.805827 2.965347 8.627878 7.0947503s-1.375621 8.2667846-5.24849 9.8809148c-3.87287 1.6141302-8.341742.2552237-10.672583-3.2453474-2.330842-3.5005711-1.874152-8.1673546 1.090669-11.145236 1.645264-1.6604007 3.8833-2.5911842 6.21574-2.5850817zm.013214-1.3721636c-5.609045 0-10.156074 4.5665435-10.156074 10.1996604s4.547029 10.1996604 10.156074 10.1996604c5.609044 0 10.156074-4.5665435 10.156074-10.1996604.000705-2.7076354-1.070895-5.3043825-2.97854-7.2177248-1.907645-1.9133424-4.494686-2.9861641-7.190748-2.9819356z" opacity=".8"/>
        <path fill="#3a33c5" fill-rule="nonzero" d="m139.888489 41.6001761c5.539153.003728 10.304535 3.9360497 11.382452 9.3926279 1.077917 5.4565781-1.831762 10.9181075-6.949973 13.0452481-5.118211 2.1271407-11.019863.3276211-14.096511-4.2982794-3.076649-4.6259005-2.471646-10.790167 1.445092-14.7237853 2.175144-2.1957536 5.13489-3.4258309 8.21894-3.4158113zm0-1.8153962c-7.415965 0-13.427793 6.0376288-13.427793 13.4854214 0 7.4477925 6.011828 13.4854213 13.427793 13.4854213 7.415966 0 13.427794-6.0376288 13.427794-13.4854213.000702-3.576772-1.413783-7.0072508-3.932135-9.5364106-2.518352-2.5291597-5.934171-3.949715-9.495659-3.9490108z"/>
        <path fill="#f3f5f7" d="m47.971131 50.825786h76.428223v76.756226h-76.428223z"/>
        <path fill="#f3f5f7" d="m155.887676 50.825786h76.428223v76.756226h-76.428223z"/>
        <path fill="#000" d="m6.852641 45.000063h25.491931v2.845182h-25.491931z" opacity=".1"/>
        <path fill="#000" d="m224.419372 45.000063h25.491931v2.845182h-25.491931z" opacity=".1"/>
        <path stroke="#535461" stroke-width="2" d="m185.306727 164.131459s6.622722-11.781497 16.596447-15.176075c4.192057-1.396985 7.819758-4.121987 10.338423-7.765862 1.18148-1.742354 2.202284-3.589285 3.04973-5.517849"/>
        <g fill="#3a33c5">
            <path d="m221.562564 133.503283c-1.136381 1.106755-6.429802 2.253321-6.429802 2.253321s1.300231-5.278981 2.436612-6.38839c1.136988-1.107421 2.952605-1.079497 4.055294.062371s1.074884 2.965277-.062104 4.072698z"/>
            <path d="m218.568332 143.052692c-1.553935.310528-6.606866-1.61634-6.606866-1.61634s3.945621-3.715723 5.499555-4.03156c1.534949-.269442 3.003204.741508 3.306309 2.276523s-.669898 3.032165-2.19107 3.371377z"/>
            <path d="m207.667004 153.390365c-1.495795-.530818-4.897009-4.750818-4.897009-4.750818s5.285492-1.212918 6.773359-.692717c.968238.336616 1.684112 1.166428 1.877959 2.176854s-.163783 2.047958-.938175 2.721767c-.774392.67381-1.847896.88153-2.816134.544914z"/>
            <path d="m197.677423 159.343484c-1.564506-.265409-5.62905-3.851081-5.62905-3.851081s5.000076-2.088768 6.561939-1.831321c1.018581.15887 1.873869.854592 2.240175 1.822237s.187253 2.058289-.468976 2.856618c-.656228.79833-1.688637 1.18148-2.704088 1.003547z"/>
            <path d="m207.540152 137.311899c0 1.592453 2.864737 6.202604 2.864737 6.202604s2.864737-4.610151 2.864737-6.19995c0-1.590406-1.28377-2.879685-2.86738-2.879685s-2.86738 1.289279-2.86738 2.879685z"/>
            <path d="m195.930567 144.430164c.473052 1.518138 4.582522 5.058691 4.582522 5.058691s1.363658-5.260402.890606-6.778541c-.305909-.981876-1.110166-1.725266-2.109816-1.950142s-2.042822.102925-2.736564.859924c-.693741.757-.932656 1.828192-.626748 2.810068z"/>
            <path d="m185.592144 152.89405c.21142 1.576529 3.662846 5.762025 3.662846 5.762025s2.230478-4.952528 2.021701-6.529056c-.136431-1.019805-.804233-1.889045-1.751852-2.280287-.947618-.391242-2.031087-.245047-2.842273.383515-.811187.628563-1.226854 1.643999-1.090422 2.663803z"/>
        </g>
        <path fill="#000" d="m221.562564 133.503283c-1.136381 1.106755-6.429802 2.253321-6.429802 2.253321s1.300231-5.278981 2.436612-6.38839c1.136988-1.107421 2.952605-1.079497 4.055294.062371s1.074884 2.965277-.062104 4.072698z" opacity=".25"/>
        <path fill="#000" d="m218.568332 143.052692c-1.553935.310528-6.606866-1.61634-6.606866-1.61634s3.945621-3.715723 5.499555-4.03156c1.534949-.269442 3.003204.741508 3.306309 2.276523s-.669898 3.032165-2.19107 3.371377z" opacity=".25"/>
        <path fill="#000" d="m207.667004 153.390365c-1.495795-.530818-4.897009-4.750818-4.897009-4.750818s5.285492-1.212918 6.773359-.692717c.968238.336616 1.684112 1.166428 1.877959 2.176854s-.163783 2.047958-.938175 2.721767c-.774392.67381-1.847896.88153-2.816134.544914z" opacity=".25"/>
        <path fill="#000" d="m197.677423 159.343484c-1.564506-.265409-5.62905-3.851081-5.62905-3.851081s5.000076-2.088768 6.561939-1.831321c1.018581.15887 1.873869.854592 2.240175 1.822237s.187253 2.058289-.468976 2.856618c-.656228.79833-1.688637 1.18148-2.704088 1.003547z" opacity=".25"/>
        <path fill="#000" d="m207.540152 137.311899c0 1.592453 2.864737 6.202604 2.864737 6.202604s2.864737-4.610151 2.864737-6.19995c0-1.590406-1.28377-2.879685-2.86738-2.879685s-2.86738 1.289279-2.86738 2.879685z" opacity=".25"/>
        <path fill="#000" d="m195.930567 144.430164c.473052 1.518138 4.582522 5.058691 4.582522 5.058691s1.363658-5.260402.890606-6.778541c-.305909-.981876-1.110166-1.725266-2.109816-1.950142s-2.042822.102925-2.736564.859924c-.693741.757-.932656 1.828192-.626748 2.810068z" opacity=".25"/>
        <path fill="#000" d="m185.592144 152.89405c.21142 1.576529 3.662846 5.762025 3.662846 5.762025s2.230478-4.952528 2.021701-6.529056c-.136431-1.019805-.804233-1.889045-1.751852-2.280287-.947618-.391242-2.031087-.245047-2.842273.383515-.811187.628563-1.226854 1.643999-1.090422 2.663803z" opacity=".25"/>
        <path stroke="#535461" stroke-width="2" d="m185.687283 163.897899s1.302874-13.464188 9.048763-20.627572c3.269045-2.986065 5.486132-6.955954 6.318806-11.314377.377665-2.071607.566083-4.173534.562945-6.279573"/>
        <path fill="#3a33c5" d="m206.475125 121.140541c-.591975 1.475673-4.968363 4.676503-4.968363 4.676503s-.94346-5.353296-.351485-6.828969c.382858-.954377 1.243611-1.63113 2.258024-1.775331 1.014412-.144201 2.028369.266056 2.659924 1.076233.631554.810176.784758 1.897186.4019 2.851564z"/>
        <path fill="#3a33c5" d="m207.590364 131.090717c-1.294946.91566-6.699362 1.215572-6.699362 1.215572s2.114197-5.010918 3.401215-5.923924c1.293983-.856578 3.031513-.525545 3.923232.747451.891719 1.272995.61488 3.027208-.625085 3.960901z"/>
        <path fill="#3a33c5" d="m201.794821 144.976906c-1.585647.132704-6.392803-2.348868-6.392803-2.348868s4.334104-3.256566 5.911824-3.389271c1.031354-.10604 2.03938.355297 2.636349 1.20656.596968.851263.689892 1.959857.243029 2.899368-.446863.939512-1.363907 1.563599-2.398399 1.632211z"/>
        <path fill="#3a33c5" d="m195.055818 154.491811c-1.535435.398114-6.699362-1.231497-6.699362-1.231497s3.726273-3.943974 5.259066-4.344742c1.518771-.363523 3.047997.560113 3.440202 2.077845.392204 1.517731-.496787 3.071646-1.999906 3.49574z"/>
        <path fill="#3a33c5" d="m195.190598 130.331648c.642188 1.45444 5.121643 4.511949 5.121643 4.511949s.763753-5.38249.124209-6.83693c-.641472-1.454819-2.335811-2.111936-3.784413-1.467711s-2.10291 2.345835-1.461439 3.800654z"/>
        <path fill="#3a33c5" d="m187.447352 141.55844c1.057098 1.19434 6.231596 2.760252 6.231596 2.760252s-.877392-5.366566-1.921277-6.560906c-1.045037-1.19537-2.857104-1.313603-4.047366-.264082-1.190262 1.049522-1.30799 2.869366-.262953 4.064736z"/>
        <path fill="#3a33c5" d="m181.413962 153.507145c.82718 1.356239 5.673976 3.779421 5.673976 3.779421s.042284-5.438226-.792824-6.794465c-.829023-1.355144-2.594946-1.778764-3.944298-.946183-1.349353.832582-1.771163 2.606083-.94214 3.961227z"/>
        <path fill="#000" d="m57.836503 67.209472h25.491931v2.845182h-25.491931z" opacity=".1"/>
        <path fill="#000" d="m104.811318 92.218943h15.219576v2.845182h-15.219576z" opacity=".1"/>
        <path fill="#000" d="m104.811318 111.312453h22.53734v2.845182h-22.53734z" opacity=".1"/>
        <path fill="#000" d="m57.836503 77.236616h25.491931v2.845182h-25.491931z" opacity=".1"/>
        <path fill="#000" d="m172.550191 67.209472h25.491931v2.845182h-25.491931z" opacity=".1"/>
        <path fill="#000" d="m172.550191 77.236616h25.491931v2.845182h-25.491931z" opacity=".1"/>
        <path fill="#3a33c5" d="m136.275855 57.2354088.713542-.9395472c.686457.6755047 1.607703 1.0562453 2.568749 1.0616353 1.205093 0 2.098341-.5918617 2.098341-1.5499875 0-1.0404025-.85625-1.7251572-3.229436-1.7251572v-1.0802138c2.114197 0 2.907021-.6980252 2.907021-1.6189937 0-.8333837-.710899-1.353585-1.765355-1.353585-.821503.0243302-1.606399.3468019-2.209336.9076982l-.758468-.9076982c.833276-.7481804 1.908281-1.1677701 3.025945-1.1810691 1.826137 0 3.171295.8811572 3.171295 2.4258364 0 1.0881761-.792824 1.7994717-1.93449 2.1922768v.0583899c1.223591.2654088 2.248977 1.0802138 2.248977 2.351522 0 1.6773837-1.585648 2.683283-3.456712 2.683283-1.590933-.002654-2.682388-.6104402-3.380073-1.3243899z"/>
        <path fill="#3a33c5" d="m4.66708995 3.05220126c0-.50958491.04492669-1.15983648.07135415-1.66942139h-.06606866c-.29070209.45119497-.62104537.89973585-.91703296 1.34827673l-2.11419703 2.72309434h5.61319312v1.09613837h-7.06141809v-.92893082l4.21518034-5.57358491h1.55129207v8.862h-1.29230294z" opacity=".8" transform="translate(190.277733 29.725786)"/>
        <path fill="#3a33c5" d="m.22463344 5.80714465.47833707-.65555974c.46243566.4552447 1.08344925.71138147 1.73099883.71394968.8509643 0 1.51957911-.5095849 1.51957911-1.34562264s-.58933242-1.2872327-1.46408144-1.2872327c-.44298131-.00369862-.87709451.12469269-1.24737625.36891823l-.49683631-.32114465.20084872-3.13447799h3.69984481v.86257862h-2.82773853l-.15592203 1.71719497c.34432208-.15701222.718599-.23671758 1.09673971-.23355975 1.21302055 0 2.20140766.62636478 2.20140766 2.01179874s-1.15752288 2.19493082-2.40754187 2.19493082c-.86327744.02544369-1.70109767-.29545952-2.32825948-.89177359z" opacity=".5" transform="translate(243.396934 7.962264)"/>
        <path fill="#3a33c5" d="m91.74558 75.195623h94.475537v94.880994h-94.475537z" opacity=".1"/>
        <path fill="#fff" d="m94.916876 70.683673h94.475537v94.880994h-94.475537z"/>
        <path fill="#3a33c5" d="m104.811318 81.193862h74.68401v2.845182h-74.68401z" opacity=".5"/>
        <path fill="#000" d="m104.811318 101.765698h47.55622v2.845182h-47.55622z" opacity=".1"/>
        <path fill="#000" d="m104.811318 120.861862h46.14235v2.845182h-46.14235z" opacity=".1"/>
        <path fill="#000" d="m104.811318 130.408616h62.900005v2.845182h-62.900005z" opacity=".1"/>
        <path fill="#3acc6c" d="m165.837615 102.017836-.325057-.337069c-.014394-.013405-.033227-.02097-.052855-.021232-.018875.000129-.03693.007763-.050213.021232l-2.254262 2.282516-.821894-.825421c-.014646-.013-.033323-.020502-.052855-.021233-.018762.000662-.036629.008218-.050212.021233l-.330344.331761c-.014205.013977-.022209.033109-.022209.053081 0 .019973.008004.039104.022209.053082l1.035957 1.037749c.056336.061544.133731.09946.216705.106163.0816-.006895.157809-.043746.214063-.103509l2.470967-2.492189c.024736-.031028.024736-.075136 0-.106164z" opacity=".5"/>
        <path fill="#3acc6c" fill-rule="nonzero" d="m163.868769 99.8414843c1.588832-.0011517 2.957148 1.1251787 3.267938 2.6900047.310789 1.564827-.522534 3.132184-1.99022 3.743308-1.467685.611124-3.160832.095753-4.043728-1.230856-.882897-1.326609-.709565-3.09486.413966-4.223098.622213-.628973 1.469221-.9816556 2.352044-.9793587zm0-.5175472c-1.555717-.0010734-2.958793.9394059-3.554634 2.3826639s-.26703 3.104887.833028 4.209666c1.100059 1.10478 2.754587 1.435001 4.191678.836603 1.43709-.598398 2.37355-2.007495 2.372481-3.569889-.002916-2.129218-1.722432-3.8537377-3.842553-3.8537357z" opacity=".5"/>
        <path fill="#3acc6c" d="m165.837615 121.111346-.325057-.334415c-.013734-.014419-.033009-.022162-.052855-.021233-.019066-.00087-.037509.006929-.050213.021233l-2.254262 2.279861-.821894-.822767c-.013651-.014849-.032736-.023474-.052855-.023887-.01934.000509-.03757.009181-.050212.023887l-.330344.329107c-.014205.013978-.022209.033109-.022209.053082 0 .019972.008004.039104.022209.053082l1.035957 1.040402c.056336.061544.133731.09946.216705.106164.081278-.008065.1571-.044728.214063-.10351l2.470967-2.494843c.024736-.031028.024736-.075135 0-.106163z" opacity=".5"/>
        <path fill="#3acc6c" fill-rule="nonzero" d="m163.868769 118.950918c1.588832-.001151 2.957148 1.125178 3.267938 2.690005.310789 1.564826-.522534 3.132184-1.99022 3.743308-1.467685.611124-3.160832.095753-4.043728-1.230856-.882897-1.326609-.709565-3.09486.413966-4.223098.622213-.628973 1.469221-.981656 2.352044-.979359zm0-.530817c-1.555476-.001074-2.958385.939118-3.554381 2.38205s-.26767 3.104353.83184 4.209341 2.753605 1.435865 4.19078.838304c1.437176-.597562 2.374314-2.005845 2.374314-3.567997.000702-1.023942-.403828-2.006187-1.124523-2.730472-.720694-.724286-1.698463-1.131227-2.71803-1.131226z" opacity=".5"/>
        <ellipse cx="135.44339" cy="207.650541" fill="#3a33c5" opacity=".1" rx="18.871851" ry="3.179597"/>
        <path fill="#3a33c5" d="m34.5961917 184.026503s.9831016 1.292541-.4545523 3.24595c-1.437654 1.953409-2.6268899 3.598943-2.14591 4.81717 0 0 2.1696947-3.625485 3.9376919-3.675912 1.7679973-.050428.6051889-2.205547-1.3372296-4.387208z"/>
        <path fill="#000" d="m34.5961917 184.026503c.0856151.125209.1532298.261912.2008487.406076 1.7230706 2.035685 2.6427463 3.933358.9857444 3.981132-1.5433638.045119-3.395929 2.815987-3.8399104 3.516666.0140304.054216.0316889.107419.052855.159246 0 0 2.1696947-3.625485 3.9376919-3.675912 1.7679973-.050428.6051889-2.205547-1.3372296-4.387208z" opacity=".1"/>
        <path fill="#ffd037" d="m36.4249721 185.674692c0 .456503-.0502121.825421-.113638.825421-.063426 0-.1136381-.368918-.1136381-.825421s.0634259-.241522.1268518-.241522.1004243-.212327.1004243.241522z"/>
        <path fill="#ffd037" d="m37.0539458 186.21878c-.3990547.217635-.7452545.350339-.7743247.294604-.0290702-.055736.2642746-.265409.6659721-.496315.4016974-.230905.2404899-.05839.2642746 0s.2404899-.015924-.155922.201711z"/>
        <path fill="#3a33c5" d="m29.395267 184.026503s-.9857444 1.292541.4545524 3.24595c1.4402967 1.953409 2.624247 3.598943 2.14591 4.81717 0 0-2.1723375-3.625485-3.937692-3.675912-1.7653545-.050428-.6078317-2.205547 1.3372296-4.387208z"/>
        <path fill="#000" d="m29.395267 184.026503c-.0856151.125209-.1532298.261912-.2008487.406076-1.7257133 2.035685-2.6427463 3.933358-.9857444 3.981132 1.5433639.045119 3.395929 2.815987 3.8399104 3.516666-.0158565.053082-.031713.106164-.0528549.159246 0 0-2.1723375-3.625485-3.937692-3.675912-1.7653545-.050428-.6078317-2.205547 1.3372296-4.387208z" opacity=".1"/>
        <path fill="#ffd037" d="m27.5638438 185.674692c0 .456503.0502122.825421.1136381.825421s.1136381-.368918.1136381-.825421-.0634259-.241522-.1268518-.241522-.1004244-.212327-.1004244.241522z"/>
        <path fill="#ffd037" d="m26.937513 186.21878c.3964119.217635.7426117.350339.7743246.294604.031713-.055736-.2642746-.265409-.665972-.496315-.4016975-.230905-.24049-.05839-.2642747 0s-.2431326-.015924.1559221.201711z"/>
        <ellipse cx="31.995729" cy="200.394264" fill="#3a33c5" opacity=".1" rx="10.293497" ry="1.587145"/>
        <path fill="#65617d" d="m37.2944357 190.345887-.0502122.406075-.0687114.567975-.0290702.238868-.0687114.570629-.0290702.238868-.0713542.567975-.7928239 6.486591c-.0687114.578591-1.0121718 1.029786-2.1485527 1.029786h-4.0883285c-1.1363809 0-2.0771986-.451195-2.14591-1.029786l-.7928239-6.486591-.0687114-.567975-.0290702-.238868-.0687114-.570629-.0290702-.238868-.0687114-.567975-.0528549-.406075c-.0396412-.326453.4704088-.602478 1.1125961-.602478h8.3722203c.6474728 0 1.1575229.276025 1.1178817.602478z"/>
        <path fill="#9d9cb5" d="m37.2442235 190.749308-.0687114.570629h-10.3595655l-.0713541-.570629z"/>
        <path fill="#9d9cb5" d="m37.1464419 191.558805-.0687114.570629h-10.1640023l-.0687114-.570629z"/>
        <path fill="#9d9cb5" d="m37.0486603 192.365648-.0713542.570629h-9.9657962l-.0687114-.570629z"/>
        <path fill="#000" fill-rule="nonzero" d="m156.144022 122.563132c-.177064-.36361-1.585648-5.042767-1.585648-5.042767l-2.7141-6.919208s-1.646431-9.106176-4.104185-6.834276c-2.457754 2.271899 1.321373 7.723396 1.321373 7.723396s1.551292 3.981132 1.47201 4.777358c-.079283.796227.864178 3.715723.864178 3.715723l-.306559 1.677384c-.399055-.026541-.658044-.026541-.658044-.026541s-.243132.35034-.475694.374227c-.039481.005397-.07968-.000109-.116281-.015925-.264275-.119434-1.139024-.095547-1.585648-.095547-.414866-.056175-.816578-.185562-1.186593-.382189-.153279-.307874-1.0201-.491006-1.789139-.594515-.584047-1.459749-1.405941-2.879686-1.519579-4.403133-.055928-.414685.02581-.836322.232561-1.199647.051271-.077838.109665-.150699.174422-.217636.214062-.217635.475694-.408729.713541-.61044.118924-.100855.227276-.204365.330344-.310528 2.016415-1.964025 1.696643-5.00561-.132138-7.110302-2.114197-2.433799-11.649225-7.6703144-14.535104-3.184906-.401698.626365-.414912 1.350931-.52855 2.046302-.287604 1.700718-1.08189 3.273899-2.278047 4.51195-.956674 1.021824-2.211979 1.964025-2.76167 3.121207l-.018499-.042465c-.131025.251018-.227063.518935-.285417.796227-.277488 1.40932.668615 2.765559 1.165451 4.137723.169067.466079.291243.947988.364699 1.438515l.031713-.302566c.121705.700706.163378 1.413073.124209 2.123271-3.461997.711295-3.46464 6.704226-3.46464 6.704226s-.425482 2.38868-.354128 3.240642.071354 2.715132.071354 3.168981-.428125 3.240641-.475694 3.575057c-.060783.368918-.710899 2.13654.858892 2.534654.108353.029195.224634.053081.343557.074314.066069 1.430554.190278 4.432327.081926 5.095849 0 0 .570833 4.028906 1.043884 5.042767.303803.59947.657423 1.172129 1.057099 1.711887-.033521.244664-.115278.48016-.24049.692717-.24049.352994-.116281.64229.288059.767032-.012332.122088-.028189.2601-.047569.414037-.171779 1.555296-.430768 4.642 0 6.207912.605189 2.144504.639545 2.858453.639545 2.858453-.000326.348965.084996.69263.248418 1.000591.264274.358302.713541 3.681221.713541 4.217346 0 .536126 1.210378 5.361258.853607 6.50517s-.071354 2.752289-.071354 2.752289-.214062 2.82395-.462481 3.431736c-.248418.607786-.35677 10.401371.034356 12.93868.391127 2.537308.642188 4.647308.642188 4.647308s-.264275 2.322327-.036999 2.654088.605189 2.253321.319772 2.359484c-.285416.106164-.425482.894428-.425482.894428.150357.23046.312669.452825.486266.666176-.11035-.038903-.218051-.085006-.322416-.138013.113639.1619.282774.384843.488909.629019l-.192921 2.569157c-.017155.207714.1165.397872.31713.451195 1.273212.350756 2.635084-.036662 3.535994-1.005899 1.778568-1.823359 2.378472-1.57122 2.706172-2.680629.031713-.119434.063426-.23356.087211-.345031.099978-.436368-.059087-.891556-.408671-1.169474-.349583-.277918-.827236-.328918-1.227189-.13103.113638-.796226.203491-1.669421.116281-2.171044-.177064-1.035094-.142708-3.75288-.142708-3.75288l-.248419-13.005032s.462481-2.571811.996316-3.572402.46248-4.51195.46248-4.51195l.605189-11.51078.602546-5.573585s.568191-1.929522 1.27909.214982c0 0-.391127 4.323509-.21142 5.361257.179707 1.037749.425482 6.075208.248418 7.184617s-.96196 7.184616-.462481 8.721333c.49948 1.536717 1.030672 3.394579.924962 4.002365s-.462481 13.801258-.462481 13.801258.959317 2.537308.248418 3.360075c-.710899.822768-.034355 4.111183-.034355 4.111183s.084567.061044.232561.148629l-.021142.265408-.22199 2.956654c-.016065.207414.117146.39694.317129.451195 1.273207.34952 2.634443-.037717 3.535995-1.005899 1.778568-1.823358 2.378471-1.573874 2.706172-2.680629.031713-.119434.063426-.236214.089853-.347685.110089-.485192-.099537-.986945-.521392-1.247985-.421856-.261041-.962367-.223467-1.344387.093456-.01195.012889-.025239.024456-.039641.034503-.044927.039812-.092496.074315-.140065.108818l-.068712.04512c.177064-.81746.436053-2.210856.314487-2.86907-.177064-.966088.177064-3.896201.177064-3.896201s1.033314-3.503396 1.057099-4.896792c.023784-1.393397.285416-11.14717.285416-11.14717s-.034356-4.538491.108353-5.645245c.142708-1.106755 1.279089-10.688013 2.418113-13.53585.874749-2.192276 1.265875-7.779132 1.033313-10.616352-.013213-.14332-.026427-.265409-.039641-.403421 1.392727-1.051019 1.540721-2.781484 1.540721-2.781484s-1.281732-2.478919-2.515894-3.527283c-1.234163-1.048365-1.519579-2.858453-1.47201-3.622831.021764-.466376-.129886-.924223-.425482-1.284578 0 0-.570833-1.857862-.951389-2.048956-.031226-.015596-.059069-.037245-.081925-.063698-.264274-.281334-.060783-1.080214-.060783-1.080214v-.023887c.042284-.185786.319772-1.385434.229919-1.693308s.047569-1.905635.047569-1.905635.90382-2.715132.761111-4.859636c-.142708-2.144503 1.849923-1.956062 1.849923-1.956062l6.154956-.063699h.700328c.295357-.253117.561316-.538915.792823-.851962.480458.090654.976502-.031229 1.361015-.334415 1.305516-1.199648 1.144309-3.490126.967245-3.859044zm-28.623585 18.578616.044927-1.088176.240489.207019c.073401.285499.073401.585042 0 .870541-.075492.271879-.269974.49454-.528549.605132-.030543.01513-.059722.032891-.08721.053082l-.060784-.621057c.251061-.015924.391127-.029195.391127-.029195z" opacity=".1"/>
        <path fill="url(#b)" d="m150.610111 124.673132s3.504282 2.263937 4.83094 1.061635c1.326659-1.202302 1.162809-3.521975.983102-3.888239s-1.60679-5.07727-1.60679-5.07727l-2.756384-6.974944s-1.675501-9.18049-4.175539-6.900628c-2.500038 2.279861 1.3478 7.78444 1.3478 7.78444s1.585648 4.015635 1.495795 4.819824c-.089854.804188.877392 3.750226.877392 3.750226z"/>
        <path fill="url(#c)" d="m144.0746 206.464164c-.026428.114125-.055498.230905-.092497.350339-.325057 1.117371-.940817.865233-2.748456 2.701862-.919768.978464-2.301589 1.368258-3.594135 1.013861-.202499-.05324-.338174-.244223-.322415-.453849l.227277-2.980541.108352-1.435861s2.877951.812151 4.344675-.214981c.047569-.034503.095139-.069007.140066-.108818l.042284-.034503c.386786-.31819.931616-.355983 1.358288-.094219.426672.261763.641894.765849.536561 1.25671z"/>
        <path fill="url(#d)" d="m135.044336 205.33883c-.023785.114126-.055498.230906-.089854.35034-.325058 1.117371-.940818.865233-2.748456 2.701861-.920452.977338-2.301112 1.367825-3.594135 1.016516-.204207-.052454-.340627-.245609-.322415-.456503l.224633-2.980541.110996-1.435861s2.877951.81215 4.342032-.214982c.050212-.034503.095139-.069006.142708-.108817l.042284-.034503c.38617-.319587.931657-.358061 1.358515-.095818.426857.262243.641151.767494.533692 1.258308z"/>
        <path fill="url(#e)" d="m4.15439717.09554717.11892358 1.54733333c-1.65435917 1.64553459-3.62056242-.79622641-4.2019666-1.60837736 1.51429363.78030189 4.08304302.06104403 4.08304302.06104403z" opacity=".1" transform="translate(127.908921 205.691824)"/>
        <path fill="url(#f)" d="m4.35260314.98997484.21934795-.14332075c-1.51165088 2.2878239-3.75269974 1.23149685-4.45038476.82276729l.1083526-1.43586163s2.87795071.81215094 4.3446749-.21498113c-.11628083.56001258-.22199069.97139622-.22199069.97139622z" opacity=".1" transform="translate(137.422807 205.426415)"/>
        <path fill="url(#g)" d="m146.371146 163.13883c-1.157523 2.88234-2.315046 12.540566-2.460397 13.657937s-.108352 5.693019-.108352 5.693019l-.301273 11.242717c-.034356 1.406667-1.083526 4.936604-1.083526 4.936604s-.362057 2.956654-.18235 3.92805-.470409 3.532591-.470409 3.532591l.219348-.14332c-1.810281 2.736364-4.66709.6821-4.66709.6821s-.687114-3.314956.034356-4.143031c.72147-.828076-.251061-3.386616-.251061-3.386616s.359414-13.296982.470409-13.910076-.412268-2.48688-.940818-4.036868c-.528549-1.549987.28806-7.675623.470409-8.792994.18235-1.117371-.073997-6.197295-.264274-7.243006-.190278-1.045711.216705-5.406377.216705-5.406377-.724113-2.160428-1.302874-.214981-1.302874-.214981l-.578762 5.658515-.594618 11.616944s.073997 3.529937-.470408 4.53849c-.544406 1.008554-1.012172 3.604252-1.012172 3.604252l.264274 13.116503s-.036998 2.739019.145351 3.78473c.18235 1.04571-.399054 3.747572-.399054 3.747572-2.024344 4.756126-5.285493-.395459-5.285493-.395459s.142708-.796227.433411-.90239c.290702-.106164-.108353-2.054264-.325058-2.388679s.034355-2.654088.034355-2.654088-.25106-2.123271-.650115-4.68712-.288059-12.431748-.036999-13.044843c.251061-.613094.470409-3.450314.470409-3.450314s-.288059-1.621648.073997-2.776176c.362056-1.154529-.869463-6.016818-.869463-6.558252s-.470409-3.890893-.724113-4.246541c-.170209-.308892-.261041-.655532-.264274-1.008553 0 0-.036999-.721912-.652759-2.88234-.449267-1.592453-.184992-4.692427 0-6.258339.063426-.581246.116281-.950164.116281-.950164s20.764058-3.352113 21.596523-2.593044c.195563.17517.325058.796226.399054 1.661459.235205 2.829258-.16385 8.463887-1.04917 10.672088z"/>
        <path fill="url(#h)" d="m.03964119.19109434c.09778162 0 2.37847167.19374843 3.23207872.02388679.85360705-.16986163-3.23207872-.02388679-3.23207872-.02388679z" opacity=".1" transform="translate(138.479906 179.150943)"/>
        <path fill="url(#i)" d="m.20877696.20967296s3.17129555.55205031 3.32986033.2654088c.15856477-.28664151-3.32986033-.2654088-3.32986033-.2654088z" opacity=".1" transform="translate(138.479906 180.477987)"/>
        <path fill="url(#j)" d="m.05285493.16455346s1.6385027.07166038 2.53175094.48038994c.89324825.40872956-2.53175094-.48038994-2.53175094-.48038994z" opacity=".1" transform="translate(128.966019 179.94717)"/>
        <path fill="url(#k)" d="m123.062124 139.703233s.264274 5.021534.121566 5.908c0 0 .578762 4.060754 1.057099 5.093195.431571.823535.940403 1.603834 1.519579 2.330289l1.421797-9.968755-.330343-3.413157z"/>
        <ellipse cx="138.014782" cy="111.280604" fill="url(#l)" rx="5.570909" ry="5.549698"/>
        <path fill="url(#m)" d="m135.120975 113.876302s-1.736284 3.386616-3.472568 4.973761c-1.736285 1.587145 10.417705 3.386616 10.705765 3.386616.288059 0-2.169695-7.205849-1.736285-8.071082.433411-.865232-5.496912-.289295-5.496912-.289295z"/>
        <path fill="url(#n)" d="m22.1541422 1.95340881c-.2726783.20802824-.5734417.37603471-.8932483.49896855-2.2172641.8652327-4.6300915 2.06753459-6.2712369 1.59245283-1.6411455-.47508176-5.11107136 0-5.11107136 0s-6.99534944-.5785912-8.39336222-.24152201c-.4688022.14309136-.96745145.15593211-1.44293948.03715723.06342591-.58124528.11628084-.95016352.11628084-.95016352s20.76405762-3.35211321 21.59652272-2.59304403c.1955632.16986164.3250578.78295598.3990547 1.65615095z" opacity=".1" transform="translate(125.266174 150.486792)"/>
        <path fill="url(#o)" d="m148.939896 149.239371s-.192921 2.388679-2.412828 3.267182c-2.219907.878504-4.630091 2.067535-6.271237 1.592453-1.641145-.475081-5.111071 0-5.111071 0s-6.99535-.578591-8.393362-.241522c-1.398013.337069-2.114197-.095547-1.688715-.721912.425482-.626364.388483-2.688591.388483-3.553824 0-.865232-.483622-4.373937-.050212-4.997647.433411-.623711.819252-3.025661 1.688715-3.410504.26368-.110074.463089-.334761.541763-.61044.075848-.287881.075848-.590622 0-.878503 0 0-.145351-.119434-.348842-.299912-.51005-.453849-1.376871-1.297849-1.099383-1.573874.385841-.384843 0-2.884994 0-2.884994s-.917033-1.92156-.578761-2.640817c.338271-.719258-2.941377-4.51195-2.941377-4.51195s0-6.534365 3.96412-6.82366c0 0 2.796025.098201 3.134297-1.151875.338271-1.250075 2.555535-1.971987 2.555535-1.971987l5.063502 1.106755s4.492669.960779 5.306635.384842 1.448225.767032 1.448225.767032 2.796025.145975 3.086727.721912c.290703.575937-.917033 6.197295-.917033 6.197295s-2.026986-.191094-1.881635 1.971988-.771682 4.899446-.771682 4.899446-.145351 1.592453-.047569 1.92156c.097781.329107-.190278 1.518138-.235205 1.706579v.023887s-.200848.796226.060784 1.09083c.02521.024953.053655.046379.084567.063698.385841.191094.964603 2.06488.964603 2.06488.301621.362756.457171.825727.436053 1.297849-.047569.769686.24049 2.593044 1.493152 3.652026 1.252661 1.058981 2.531751 3.543207 2.531751 3.543207z"/>
        <path fill="url(#p)" d="m127.425298 138.116088v.204365l-.089853 2.248012s-2.965162.238868-4.582522-.169861c-1.617361-.40873-.93289-2.184315-.869464-2.555887.047569-.337069.48098-3.147748.48098-3.604252 0-.456503 0-2.330289-.071354-3.184905-.071354-.854617.362056-3.267183.362056-3.267183l.311844-.384842 3.401214 1.297849z"/>
        <path fill="url(#q)" d="m5.85368304.5785912-.08985338 2.24801257s-2.96516134.23886793-4.58252207-.16986163-.93288944-2.18431447-.86946353-2.55588679z" opacity=".1" transform="translate(121.566329 137.74717)"/>
        <path fill="url(#r)" d="m.52854926 3.07608805c.07584745-.2878808.07584745-.59062235 0-.87850314 0 0-.14535105-.11943397-.34884251-.29991195 2.55553566-.35299371 12.66932575-1.73842768 16.07846845-1.88705661v.02388679s-.2008487.79622642.0607832 1.09083019z" opacity=".1" transform="translate(127.116097 137.481761)"/>
        <path fill="url(#s)" d="m1.8155667.04777358s.62633087 3.5325912-1.71249959 4.7773585c0 0 1.32665863-1.75966038 1.71249959-4.7773585z" opacity=".1" transform="translate(141.915476 142.259119)"/>
        <path fill="url(#t)" d="m.24313266.66883019s5.64226333-.96077988 6.75221678-.21763522c1.10995344.74314465-6.75221678.21763522-6.75221678.21763522z" opacity=".1" transform="translate(128.173195 146.50566)"/>
        <path fill="url(#u)" d="m.65275833.01592453s-.86682078 3.5538239-.21670519 4.37128302.21670519-4.37128302.21670519-4.37128302z" opacity=".1" transform="translate(141.122652 125.272956)"/>
        <path fill="url(#v)" d="m.15856478.02654088s.79282389 1.32704403.31448681 2.69124528c-.47833708 1.36420126-.31448681-2.69124528-.31448681-2.69124528z" opacity=".1" transform="translate(125.266174 122.353459)"/>
        <path fill="url(#w)" d="m123.786236 133.959786s1.012172.602478.673901 1.539371c-.338272.936893-.673901-1.539371-.673901-1.539371z"/>
        <path fill="url(#x)" d="m0 .10881761s.94081768.50693082 1.05709852 1.25007547c.11628083.74314466-1.05709852-1.25007547-1.05709852-1.25007547z" opacity=".1" transform="translate(123.680526 131.11195)"/>
        <path fill="url(#y)" d="m.20613421.97405031s5.90918071.60247799 7.0904883-.79622641c0 .00530818-5.33041927 1.06163522-7.0904883.79622641z" opacity=".1" transform="translate(137.422807 158.979874)"/>
        <path fill="url(#z)" d="m.04756943.10881761s6.3425911 1.4889434 7.59525285.3105283c0 0-5.44934286.40872956-7.59525285-.3105283z" opacity=".1" transform="translate(127.380371 159.510692)"/>
        <path fill="url(#A)" d="m.13478006.26806289s2.64274629 0 3.8821943.07166038c1.23944802.07166038-3.8821943-.07166038-3.8821943-.07166038z" opacity=".1" transform="translate(137.951356 161.633962)"/>
        <path fill="url(#B)" d="m.2167052.06900629s1.30287392 1.4650566 2.77224086 1.20230189c1.46936694-.26275472-2.77224086-1.20230189-2.77224086-1.20230189z" opacity=".1" transform="translate(127.644646 162.961006)"/>
        <path fill="url(#C)" d="m130.41953 103.02639c-.409626.631673-.42284 1.361547-.52855 2.062226-.291165 1.722034-1.098843 3.313765-2.315045 4.562378-1.157523 1.226188-2.745814 2.335597-3.044444 3.832503-.282774 1.422591.679186 2.789446 1.18395 4.172226 1.321373 3.649371-.528549 7.473912-1.070312 11.240063-.147994 1.040403.031713 2.370101 1.321373 2.715132.401697.108818.861535.095547 1.220949.265409.486265.230906.634259.711296.724112 1.143912.321947 1.546283.433079 3.129345.330344 4.705698-.058141.886466-.121567 1.902981.716184 2.510767.427367.26481.897962.4517 1.390084.552051 1.321374.355648 3.03123.639635 3.921836-.191095.37527-.347685.528549-.841346.980459-1.117371.697685-.411383 1.688715-.132704 2.568749-.090239 1.693599.072903 3.293263-.782693 4.178182-2.234742.710899-1.276616.650116-2.731056.385841-4.105874s-.718827-2.733711-.753183-4.124453c-.041072-.487301.067778-.975522.311844-1.398704.52855-.828076 1.78914-1.204956 2.642747-1.857862 1.601504-1.22088 1.585647-3.222063 1.014814-4.896792-.570833-1.67473-1.627931-3.275145-1.757426-5.00561-.056934-.41876.02676-.844631.237847-1.210265.279765-.347268.60721-.652884.972531-.907698 2.33883-1.966679 2.063985-5.199358.129494-7.410214-2.14591-2.460339-11.842146-7.7419744-14.76238-3.211446z"/>
        <g opacity=".1" transform="translate(124.209076 108.552201)">
            <path fill="url(#D)" d="m1.80235297 10.6136981c.23009066-1.452342.10399989-2.93912815-.36734173-4.33147168-.26427463-.69802516-.62633087-1.39339623-.89324825-2.09142139-.13432791.25007634-.23222645.51821822-.29070209.79622642-.2854166 1.4199371.6791858 2.78679245 1.18395034 4.17222641.17027769.4713466.29333364.95857014.36734173 1.45444024z"/>
            <path fill="url(#E)" d="m3.96411944 26.3524403c.10308729-1.5764765-.00894568-3.1597062-.33298603-4.7056982-.08985338-.4326163-.23784717-.9130063-.72146974-1.1439119-.36205624-.1725157-.8218941-.1592453-1.22359154-.2654088-.49724285-.1199039-.91221427-.4623061-1.12580992-.9289308-.07135415.3662641-.1374228.7325283-.19027773 1.0961383-.15063654 1.0404025.02907021 2.3701007 1.32137315 2.7151321.40169743.1088176.86153529.0955472 1.22359153.2654088.48362257.2309057.63161636.7112956.72146974 1.143912.14971252.7171966.25387063 1.4432271.31184406 2.1736981-.00528549-.1141258.01585648-.2335598.01585648-.3503396z"/>
            <path fill="url(#F)" d="m17.7064002 25.7924277c-.8840515 1.4516227-2.4827387 2.3072376-4.1755392 2.2347421-.8800345-.0424654-1.8710644-.3211446-2.5687494.090239-.4651233.2654088-.6078316.7696855-.98045885 1.1173711-.8906055.8307295-2.60046236.5467421-3.9218355.1910943-.49232936-.0996484-.96304488-.2865857-1.39008455-.5520503-.36486168-.2647234-.61086147-.6634462-.68447129-1.1094088 0 .4936604 0 .9899748-.03171296 1.4836352-.05814042.8838113-.12156633 1.9003271.71618425 2.5081132.42703967.2654646.89775519.4524019 1.39008455.5520503 1.32137314.3583019 3.03123.6396353 3.9218355-.1910943.37262725-.3476855.52854925-.8386918.98045885-1.114717.697685-.4140377 1.6887149-.1353585 2.5687494-.090239 1.6936019.0730936 3.2929612-.7838976 4.1755392-2.2373962.6844712-1.2261887.655401-2.6169308.4175539-3.9439748-.0915254.370962-.2319502.7279936-.4175539 1.0616352z"/>
            <path fill="url(#G)" d="m20.7693431 2.27720755c-.3661208.25478344-.6944427.56038774-.9751734.90769811-.2099823.36602199-.29273.7918071-.2352044 1.21026415.0448908.52594718.1558873 1.04407309.3303433 1.54202516.2698233-.28488995.564327-.54512987.8800345-.7776478 1.5856478-1.32704403 1.9662033-3.23798742 1.4535105-5.0188805-.2714742.83693204-.7758479 1.57831986-1.4535105 2.13654088z"/>
            <path fill="url(#H)" d="m20.301577 14.2975723c-.8562498.6502516-2.114197 1.0271321-2.6427463 1.8578617-.2451983.4227373-.354129.9113207-.311844 1.3987044.019946.5623355.0889213 1.1218341.2061342 1.6720754.0316357-.0647833.0669297-.1276992.1057098-.1884402.5285493-.8254214 1.7864965-1.204956 2.6427463-1.8578617 1.4614387-1.1147169 1.5856478-2.8796855 1.1522374-4.4535597-.2209992.6266045-.6219636 1.1733697-1.1522374 1.5712201z"/>
        </g>
        <path fill="url(#I)" d="m155.522977 123.438981c-.988388 2.497497-2.267477 3.482164-2.267477 3.482164h-.710899l-6.258023.063698-.724112-1.969334 1.014814-4.24654.623688.039811c.376108.198284.784026.328552 1.205093.384843.457195 0 1.350443-.023887 1.614718.095547.037236.016879.078585.022416.118923.015924.235205-.023886.486266-.37688.486266-.37688s5.885396.010616 4.897009 2.510767z"/>
        <path fill="url(#J)" d="m5.41498715 2.67797484c-.98838711 2.49749686-2.26747632 3.48216352-2.26747632 3.48216352h-.71089875c.36998448-.98997484 1.15223739-3.02300628 1.45879595-3.49012578.30655857-.4671195-2.32825948-1.54998742-3.86105233-2.14715723.23520442-.0238868.48626532-.37688051.48626532-.37688051s5.88275325.03184906 4.89436613 2.532z" opacity=".1" transform="translate(150.107989 120.761006)"/>
        <path fill="#efb7b9" d="m150.425119 125.373811s3.43557 2.245359 4.756943 1.045711 1.144309-3.49278.967245-3.85639-1.585647-5.042767-1.585647-5.042767l-2.714101-6.919208s-1.646431-9.106176-4.104185-6.834276c-2.457754 2.271899 1.321373 7.723396 1.321373 7.723396s1.551292 3.981132 1.47201 4.777358c-.079282.796227.864178 3.715723.864178 3.715723z"/>
        <path fill="#3a33c5" d="m143.995317 206.498667c-.026427.111471-.05814.228251-.089853.347685-.322415 1.106755-.927604.857271-2.706172 2.680629-.901552.968182-2.262788 1.355419-3.535995 1.0059-.199983-.054256-.333194-.243782-.317129-.451195l.22199-2.956655.108353-1.422591s2.833024.796227 4.273321-.214981c.047569-.034503.095138-.069006.140065-.108817.014402-.010048.027691-.021615.039641-.034504.38202-.316922.922531-.354497 1.344387-.093456.421855.26104.631481.762793.521392 1.247985z"/>
        <path fill="#3a33c5" d="m135.102476 205.38395c-.023785.111471-.055498.225597-.087211.345031-.322415 1.109409-.927604.857271-2.706172 2.680629-.90091.969237-2.262783 1.356655-3.535994 1.005899-.20063-.053323-.334285-.243481-.31713-.451195l.221991-2.956654.108352-1.422591s2.833024.796227 4.273321-.214981c.048561-.032825.095318-.068264.140066-.106163l.039641-.037158c.382527-.31553.922503-.351849 1.343509-.090365.421007.261485.629852.762892.519627 1.247548z"/>
        <path fill="#000" d="m132.176956 205.827182.116281 1.536717c-1.625289 1.62961-3.562422-.796226-4.133256-1.592452 1.495795.764377 4.016975.055735 4.016975.055735z" opacity=".1"/>
        <path fill="#000" d="m141.733126 206.450893.214063-.140667c-1.485224 2.266592-3.699845 1.220881-4.379031.814805l.108353-1.422591s2.833024.796227 4.273321-.214981c-.113638.554705-.216706.963434-.216706.963434z" opacity=".1"/>
        <path fill="#444053" d="m146.252223 163.539597c-1.139024 2.858453-2.278048 12.437057-2.418113 13.53585-.140066 1.098792-.108353 5.645245-.108353 5.645245l-.285416 11.14717c-.034356 1.393396-1.057099 4.896792-1.057099 4.896792s-.354128 2.919497-.177064 3.896201c.177064.976705-.462481 3.503397-.462481 3.503397l.214063-.143321c-1.778568 2.715132-4.59045.679446-4.59045.679446s-.676544-3.288415.034355-4.111182-.248418-3.360076-.248418-3.360076.356771-13.188163.462481-13.801257c.10571-.613095-.428125-2.465648-.924962-4.002365-.496836-1.536717.285417-7.614579.462481-8.721333.177064-1.106755-.071354-6.149522-.248418-7.184617-.177064-1.035094.21142-5.361258.21142-5.361258-.710899-2.144503-1.27909-.214981-1.27909-.214981l-.570833 5.610742-.61576 11.521397s.071354 3.500742-.46248 4.511949c-.533835 1.011208-.993673 3.561786-.993673 3.561786l.248418 13.005032s-.034355 2.717786.142709 3.75288c.177064 1.035095-.391127 3.715724-.391127 3.715724-1.992631 4.716314-5.195639-.392805-5.195639-.392805s.142708-.796227.425482-.894428-.10571-2.03834-.319772-2.359484c-.214063-.321145.036998-2.654088.036998-2.654088s-.264274-2.11-.642187-4.647309c-.377913-2.537308-.282774-12.330893-.034356-12.938679s.462481-3.431736.462481-3.431736-.285417-1.608377.071354-2.752289-.853607-5.969044-.853607-6.50517-.462481-3.859044-.713542-4.217346c-.163421-.307961-.248743-.651627-.248418-1.000591 0 0-.034355-.71395-.639544-2.858453-.441339-1.565912-.18235-4.652616 0-6.207912.063426-.575937.11628-.942201.11628-.942201s20.428429-3.322918 21.247681-2.571811c.190277.17517.319772.796226.391126 1.648188.219348 2.850491-.171778 8.437346-1.046527 10.642893z"/>
        <path fill="#000" d="m138.530118 179.59683c.095139 0 2.349401.191095 3.171295.023887.821895-.167208-3.171295-.023887-3.171295-.023887z" opacity=".1"/>
        <path fill="#000" d="m138.696611 180.931836s3.10787.549397 3.274363.265409c.166493-.283987-3.274363-.265409-3.274363-.265409z" opacity=".1"/>
        <path fill="#000" d="m129.182724 180.361208s1.612076.07166 2.489467.475081c.877392.403422-2.489467-.475081-2.489467-.475081z" opacity=".1"/>
        <path fill="#efb7b9" d="m123.321113 140.281824s.264275 4.979069.118924 5.860226c0 0 .570833 4.028906 1.043884 5.042768.42496.81618.925786 1.590192 1.495795 2.31171l1.400655-9.878515-.330343-3.383963z"/>
        <ellipse cx="138.033282" cy="112.092755" fill="#efb7b9" rx="5.481056" ry="5.504579"/>
        <path fill="#efb7b9" d="m135.184401 114.66722s-1.707214 3.357422-3.417071 4.931296 10.251213 3.360075 10.53663 3.360075c.285416 0-2.135339-7.150113-1.709857-8.007383.425482-.857271-5.409702-.283988-5.409702-.283988z"/>
        <path fill="#000" d="m147.285536 152.923245c-.267726.206117-.56311.373207-.877391.496315-2.182909.85727-4.556095 2.048956-6.170813 1.57122s-5.021218 0-5.021218 0-6.87114-.570629-8.255939-.238868c-.464998.140551-.959424.150647-1.429726.029195.063426-.575937.116281-.942201.116281-.942201s20.428429-3.322919 21.24768-2.571812c.190278.17517.319772.782956.391126 1.656151z" opacity=".1"/>
        <path fill="#3a33c5" d="m148.786616 149.73834s-.190277 2.388679-2.378471 3.240641-4.556095 2.048956-6.170813 1.573874c-1.614718-.475081-5.021218 0-5.021218 0s-6.87114-.573283-8.255939-.238868c-1.384799.334416-2.08777-.095547-1.662288-.716603.425482-.621057.380556-2.654088.380556-3.524629s-.475695-4.33678-.04757-4.957837c.428125-.621056.792824-3.001773 1.662288-3.383962.258574-.110592.453056-.333253.528549-.605132.0734-.285499.0734-.585042 0-.870541 0 0-.142708-.119434-.343557-.297258-.502122-.451195-1.353086-1.287233-1.078241-1.560604.377913-.382188 0-2.861107 0-2.861107s-.903819-1.905635-.570833-2.619584c.332986-.71395-2.907021-4.480101-2.907021-4.480101s0-6.481283 3.892766-6.767925c0 0 2.751098.095548 3.084085-1.143912.332986-1.239459 2.515894-1.953408 2.515894-1.953408l4.981577 1.096138s4.413386.952818 5.219424.382189c.806037-.570629 1.413869.759069 1.413869.759069s2.751099.143321 3.036515.71395c.285417.570628-.901176 6.146867-.901176 6.146867s-1.992631-.18844-1.849922 1.956063c.142708 2.144504-.761111 4.859636-.761111 4.859636s-.142709 1.573874-.04757 1.905635-.187635 1.507522-.229919 1.693308v.023887s-.195563.796226.060783 1.080214c.022856.026453.0507.048102.081926.063698.380555.18844.951388 2.048956.951388 2.048956.295596.360355.447246.818202.425482 1.284578-.047569.764378.237848 2.574466 1.47201 3.622831 1.234163 1.048364 2.518537 3.529937 2.518537 3.529937z"/>
        <path fill="#3a33c5" d="m127.615576 138.70795v.20171l-.087211 2.229434s-2.907021.238868-4.492669-.167207c-1.585647-.406076-.919675-2.165736-.858892-2.534654.047569-.334415.475694-3.123862.475694-3.575057s0-2.311711-.071354-3.168981.354128-3.240642.354128-3.240642l.309201-.382188 3.345717 1.287232z"/>
        <path fill="#000" d="m127.607647 138.90966-.08721 2.229434s-2.907021.238868-4.492669-.167207c-1.585648-.406076-.919676-2.165736-.858892-2.534654z" opacity=".1"/>
        <path fill="#000" d="m127.819067 141.128478c.073401-.285499.073401-.585042 0-.870541 0 0-.142708-.119434-.343557-.297258 2.515895-.350339 12.465834-1.722503 15.819479-1.857861v.023886s-.195563.796227.060784 1.080214z" opacity=".1"/>
        <path fill="#000" d="m143.654403 142.853635s.618403 3.503396-1.683429 4.742856c0 0 1.305516-1.738428 1.683429-4.742856z" opacity=".1"/>
        <path fill="#000" d="m128.588106 147.692038s5.549768-.952818 6.643865-.214981c1.094096.737836-6.643865.214981-6.643865.214981z" opacity=".1"/>
        <path fill="#000" d="m141.733126 125.984252s-.853607 3.527283-.214062 4.336779c.639545.809497.214062-4.336779.214062-4.336779z" opacity=".1"/>
        <path fill="#000" d="m125.64673 123.101912s.792824 1.308465.309201 2.667358c-.483623 1.358894-.309201-2.667358-.309201-2.667358z" opacity=".1"/>
        <path fill="#3a33c5" d="m124.034654 134.586151s.996316.59717.66333 1.526101c-.332986.92893-.66333-1.526101-.66333-1.526101z"/>
        <path fill="#000" d="m123.944801 131.871019s.924961.498968 1.043885 1.236805c.118923.737836-1.043885-1.236805-1.043885-1.236805z" opacity=".1"/>
        <path fill="#000" d="m137.652726 160.367962s5.814042.59717 6.974208-.796226c0 .010616-5.243209 1.048365-6.974208.796226z" opacity=".1"/>
        <path fill="#000" d="m127.615576 160.033547s6.239524 1.478327 7.473686.310528c0 .010617-5.362132.406076-7.473686-.310528z" opacity=".1"/>
        <path fill="#000" d="m138.101993 162.297484s2.611033 0 3.821411.071661c1.210378.07166-3.821411-.071661-3.821411-.071661z" opacity=".1"/>
        <path fill="#000" d="m128.043701 163.417509s1.281732 1.454441 2.727314 1.191686-2.727314-1.191686-2.727314-1.191686z" opacity=".1"/>
        <path fill="#e3787d" d="m130.551667 103.891623c-.401698.626364-.414911 1.35093-.528549 2.046302-.287605 1.700718-1.081891 3.273898-2.278048 4.511949-1.136381 1.215573-2.698244 2.317019-2.994231 3.800654-.277489 1.409321.668615 2.76556 1.165451 4.137724 1.321373 3.617522-.528549 7.412867-1.057099 11.147169-.147993 1.032441.029071 2.351522 1.294946 2.6939.396412.106163.848322.092893 1.205092.265409.475695.228251.621046.705987.708256 1.133295.318364 1.534219.428597 3.10464.327701 4.668541-.058141.878503-.121566 1.887057.70297 2.492189.421188.260802.884445.445822 1.368943.546742 1.300231.352994 2.981018.631673 3.85841-.191094.367341-.345032.504764-.833384.964602-1.106755.687114-.40873 1.662287-.132705 2.526465-.090239 1.669849.069644 3.244888-.779746 4.109471-2.216164.700328-1.268654.639544-2.70717.380555-4.071371s-.708256-2.712478-.739969-4.092604c-.041464-.48244.065543-.966036.306559-1.385434.528549-.822767 1.757426-1.196993 2.600462-1.841937 1.585648-1.210264 1.569792-3.184905.998958-4.856981-.570833-1.672075-1.604147-3.248604-1.730998-4.965799-.055928-.414685.02581-.836322.232561-1.199647.285218-.336546.615122-.632144.980459-.878503 2.301832-1.950755 2.029629-5.156894.126852-7.34917-2.108912-2.441761-11.649226-7.678277-14.529819-3.198176z"/>
        <g fill="#000" opacity=".1" transform="translate(124.47335 109.348428)">
            <path d="m1.75214079 10.5632704c.22423269-1.44093714.09912952-2.91493186-.36469899-4.29696851-.24841815-.69271698-.61311714-1.38012579-.88003451-2.07284277-.13102471.25101758-.22706283.51893502-.2854166.79622641-.27748836 1.40932076.66861481 2.76555975 1.16545111 4.13772328.16889623.46522254.29106978.94623379.36469899 1.43586159z"/>
            <path d="m3.87162332 26.1746164c.10089589-1.5639011-.00933723-3.1343222-.32770054-4.6685409-.08721063-.4273082-.23256168-.9050441-.70825601-1.1332956-.35677075-.1725157-.80868036-.1592453-1.20509231-.2654088-.48957997-.1214502-.89726774-.4605309-1.10731069-.9209686-.07135415.360956-.13478006.7245661-.18763499 1.085522-.14799379 1.0324403.02907021 2.351522 1.29494568 2.6938994.39641195.1061635.84832156.0928931 1.20509231.2654088.47569433.2309057.62104538.7059874.70825601 1.1359497.14667341.7112785.24905811 1.4310473.30655857 2.1551195.00528549-.1167799.01321373-.2335598.02114197-.3476855z"/>
            <path d="m17.4024843 25.6092956c-.8641748 1.4368485-2.4394898 2.2863876-4.1094704 2.2161635-.8641781-.0424654-1.8499225-.3184905-2.5264655.090239-.4571951.2654088-.5972607.7617233-.9646024 1.1067547-.87739177.8227673-2.55817841.5440881-3.85840959.1910944-.48431197-.100173-.94697622-.2862127-1.36629983-.5493963-.3582977-.2648197-.60072367-.6585505-.67654305-1.0987924 0 .4883522 0 .9793585-.02907021 1.4677107-.05814042.8785031-.12156633 1.8870566.70561326 2.4921887.42013385.2610056.88256095.4460516 1.36629983.5467421 1.30023118.3529937 2.98101782.631673 3.85840959-.1884403.3673417-.3476855.5074073-.8360377.9646024-1.1094088.687114-.4087295 1.6622874-.1327044 2.5264655-.090239 1.6699806.0702241 3.2452956-.779315 4.1094704-2.2161635.6739003-1.2182264.6448301-2.5956981.4096257-3.9121258-.0899489.3677428-.227672.7220057-.4096257 1.053673z"/>
            <path d="m20.4099296 2.29578616c-.3604689.25291781-.6834492.55583854-.9593169.89973585-.2067516.36332504-.2884895.78496215-.2325617 1.1996478.0465608.52199271.1566139 1.03629214.3277006 1.53140881.2636443-.28374494.5529446-.54230055.864178-.77233963 1.5565776-1.32704402 1.9344903-3.21144654 1.4297258-4.97641509-.2655191.82856403-.7616315 1.56349335-1.4297258 2.11796226z"/>
            <path d="m19.9500918 14.2179497c-.8430361.6449434-2.0719131 1.0191698-2.6004624 1.839283-.2401135.4207187-.3470376.9048676-.3065586 1.3880881.0203694.55777.0884506 1.1127486.2034915 1.658805.0291396-.0647055.0636154-.1268507.1030671-.1857862.5285493-.8227673 1.7574263-1.1969937 2.6004624-1.8419371 1.4376539-1.1067547 1.5592203-2.8557987 1.1337381-4.4164025-.2178298.6196195-.6120538 1.1613506-1.1337381 1.5579497z"/>
        </g>
        <path fill="#3a33c5" d="m155.258702 124.150277c-.972531 2.478918-2.233121 3.450314-2.233121 3.450314h-.700327l-6.154957.063698-.710898-1.953408.996315-4.217346.61576.023886c.370014.196627.771726.326014 1.186593.382189.45191 0 1.321373-.023887 1.585648.095547.0366.015817.0768.021322.116281.015925.232561-.023887.475694-.374227.475694-.374227s5.7929.034503 4.823012 2.513422z"/>
        <path fill="#000" d="m155.258702 124.150277c-.972531 2.478918-2.233121 3.450314-2.233121 3.450314h-.700327c.367341-.982012 1.13638-2.996465 1.437654-3.450314.301273-.453849-2.291262-1.536717-3.797627-2.123271.232562-.023887.475694-.374226.475694-.374226s5.787615.018578 4.817727 2.497497z" opacity=".1"/>
    </g>
</svg>
